G75*
G70*
%OFA0B0*%
%FSLAX24Y24*%
%IPPOS*%
%LPD*%
%AMOC8*
5,1,8,0,0,1.08239X$1,22.5*
%
%ADD10R,0.0630X0.0217*%
%ADD11R,0.0474X0.0513*%
%ADD12R,0.0710X0.0631*%
%ADD13C,0.1380*%
%ADD14C,0.0740*%
%ADD15R,0.0820X0.0820*%
%ADD16C,0.0820*%
%ADD17C,0.0480*%
D10*
X008122Y004437D03*
X008122Y004693D03*
X008122Y004948D03*
X008122Y005204D03*
X008122Y005460D03*
X008122Y005716D03*
X008122Y005972D03*
X008122Y006228D03*
X008122Y006484D03*
X008122Y006740D03*
X008122Y006996D03*
X008122Y007252D03*
X008122Y007507D03*
X008122Y007763D03*
X011001Y007763D03*
X011001Y007507D03*
X011001Y007252D03*
X011001Y006996D03*
X011001Y006740D03*
X011001Y006484D03*
X011001Y006228D03*
X011001Y005972D03*
X011001Y005716D03*
X011001Y005460D03*
X011001Y005204D03*
X011001Y004948D03*
X011001Y004693D03*
X011001Y004437D03*
D11*
X012061Y007265D03*
X012061Y007935D03*
X007061Y007935D03*
X007061Y007265D03*
X007061Y006435D03*
X007061Y005765D03*
X007061Y004935D03*
X007061Y004265D03*
D12*
X012061Y004549D03*
X012061Y005651D03*
D13*
X003061Y001600D03*
X003991Y003730D03*
X003991Y008470D03*
X003061Y010600D03*
X015061Y010600D03*
X015061Y001600D03*
D14*
X005841Y005608D03*
X005061Y005608D03*
X005061Y006592D03*
X005841Y006592D03*
D15*
X015561Y007600D03*
D16*
X015561Y006600D03*
X015561Y005600D03*
X015561Y004600D03*
D17*
X012681Y005620D03*
X011561Y006180D03*
X008761Y007300D03*
X007561Y006660D03*
X006601Y006100D03*
M02*
