G75*
G70*
%OFA0B0*%
%FSLAX24Y24*%
%IPPOS*%
%LPD*%
%AMOC8*
5,1,8,0,0,1.08239X$1,22.5*
%
%ADD10C,0.0060*%
%ADD11C,0.0040*%
%ADD12C,0.0220*%
%ADD13C,0.0080*%
%ADD14C,0.0050*%
D10*
X008410Y004053D02*
X010713Y004053D01*
X010713Y008147D01*
X008410Y008147D01*
X008410Y004053D01*
X010148Y004437D02*
X010150Y004463D01*
X010156Y004489D01*
X010165Y004514D01*
X010178Y004537D01*
X010194Y004558D01*
X010213Y004576D01*
X010235Y004592D01*
X010258Y004604D01*
X010283Y004612D01*
X010309Y004617D01*
X010336Y004618D01*
X010362Y004615D01*
X010387Y004608D01*
X010412Y004598D01*
X010434Y004584D01*
X010455Y004567D01*
X010472Y004548D01*
X010487Y004526D01*
X010498Y004502D01*
X010506Y004476D01*
X010510Y004450D01*
X010510Y004424D01*
X010506Y004398D01*
X010498Y004372D01*
X010487Y004348D01*
X010472Y004326D01*
X010455Y004307D01*
X010434Y004290D01*
X010412Y004276D01*
X010387Y004266D01*
X010362Y004259D01*
X010336Y004256D01*
X010309Y004257D01*
X010283Y004262D01*
X010258Y004270D01*
X010235Y004282D01*
X010213Y004298D01*
X010194Y004316D01*
X010178Y004337D01*
X010165Y004360D01*
X010156Y004385D01*
X010150Y004411D01*
X010148Y004437D01*
X013091Y004344D02*
X013305Y004130D01*
X013518Y004344D01*
X013518Y004771D01*
X013736Y004664D02*
X013736Y004237D01*
X013843Y004130D01*
X014056Y004130D01*
X014163Y004237D01*
X014380Y004237D02*
X014487Y004130D01*
X014701Y004130D01*
X014807Y004237D01*
X014380Y004237D02*
X014380Y004664D01*
X014487Y004771D01*
X014701Y004771D01*
X014807Y004664D01*
X014163Y004664D02*
X014056Y004771D01*
X013843Y004771D01*
X013736Y004664D01*
X013736Y005130D02*
X013736Y005771D01*
X014163Y005130D01*
X014163Y005771D01*
X014380Y005771D02*
X014701Y005771D01*
X014807Y005664D01*
X014807Y005237D01*
X014701Y005130D01*
X014380Y005130D01*
X014380Y005771D01*
X014163Y006130D02*
X013736Y006771D01*
X013518Y006771D02*
X013091Y006771D01*
X013305Y006771D02*
X013305Y006130D01*
X013736Y006130D02*
X014163Y006771D01*
X014163Y007130D02*
X013736Y007771D01*
X013518Y007664D02*
X013518Y007450D01*
X013412Y007344D01*
X013091Y007344D01*
X013305Y007344D02*
X013518Y007130D01*
X013736Y007130D02*
X014163Y007771D01*
X013518Y007664D02*
X013412Y007771D01*
X013091Y007771D01*
X013091Y007130D01*
X013198Y005771D02*
X013091Y005664D01*
X013091Y005237D01*
X013198Y005130D01*
X013412Y005130D01*
X013518Y005237D01*
X013518Y005450D01*
X013305Y005450D01*
X013518Y005664D02*
X013412Y005771D01*
X013198Y005771D01*
X013091Y004771D02*
X013091Y004344D01*
X012998Y009416D02*
X012891Y009416D01*
X012998Y009416D02*
X013104Y009523D01*
X013104Y010057D01*
X012677Y010057D02*
X012677Y009737D01*
X012784Y009630D01*
X013104Y009630D01*
X012460Y009844D02*
X012460Y009950D01*
X012353Y010057D01*
X012140Y010057D01*
X012033Y009950D01*
X012033Y009737D01*
X012140Y009630D01*
X012353Y009630D01*
X012460Y009844D02*
X012033Y009844D01*
X011815Y009737D02*
X011709Y009844D01*
X011495Y009844D01*
X011388Y009950D01*
X011495Y010057D01*
X011815Y010057D01*
X011815Y009737D02*
X011709Y009630D01*
X011388Y009630D01*
X011172Y009630D02*
X010959Y009630D01*
X011065Y009630D02*
X011065Y010271D01*
X010959Y010271D01*
X010741Y009950D02*
X010634Y010057D01*
X010421Y010057D01*
X010314Y009950D01*
X010314Y009737D01*
X010421Y009630D01*
X010634Y009630D01*
X010741Y009844D02*
X010314Y009844D01*
X010096Y009737D02*
X010096Y009950D01*
X009883Y009950D01*
X010096Y009737D02*
X009990Y009630D01*
X009776Y009630D01*
X009669Y009737D01*
X009669Y010164D01*
X009776Y010271D01*
X009990Y010271D01*
X010096Y010164D01*
X010741Y009950D02*
X010741Y009844D01*
X009423Y011023D02*
X009316Y010916D01*
X009209Y010916D01*
X009423Y011023D02*
X009423Y011557D01*
X009640Y011557D02*
X009640Y011450D01*
X009747Y011450D01*
X009747Y011557D01*
X009640Y011557D01*
X009640Y011237D02*
X009640Y011130D01*
X009747Y011130D01*
X009747Y011237D01*
X009640Y011237D01*
X009423Y011130D02*
X009102Y011130D01*
X008996Y011237D01*
X008996Y011557D01*
X008778Y011557D02*
X008778Y011664D01*
X008671Y011771D01*
X008351Y011771D01*
X008351Y011130D01*
X008671Y011130D01*
X008778Y011237D01*
X008778Y011344D01*
X008671Y011450D01*
X008351Y011450D01*
X008671Y011450D02*
X008778Y011557D01*
X007489Y011557D02*
X007169Y011557D01*
X007062Y011450D01*
X007062Y011237D01*
X007169Y011130D01*
X007489Y011130D01*
X007489Y011771D01*
X006845Y011557D02*
X006738Y011557D01*
X006525Y011344D01*
X006525Y011557D02*
X006525Y011130D01*
X006307Y011130D02*
X006307Y011450D01*
X006201Y011557D01*
X005987Y011557D01*
X005987Y011344D02*
X005880Y011237D01*
X005987Y011130D01*
X006307Y011130D01*
X006307Y011344D02*
X005987Y011344D01*
X005663Y011450D02*
X005663Y011237D01*
X005556Y011130D01*
X005343Y011130D01*
X005236Y011237D01*
X005236Y011450D01*
X005343Y011557D01*
X005556Y011557D01*
X005663Y011450D01*
X005018Y011344D02*
X005018Y011237D01*
X004912Y011130D01*
X004591Y011130D01*
X004591Y011771D01*
X004912Y011771D01*
X005018Y011664D01*
X005018Y011557D01*
X004912Y011450D01*
X004591Y011450D01*
X004912Y011450D02*
X005018Y011344D01*
X007091Y010271D02*
X007412Y010271D01*
X007518Y010164D01*
X007518Y010057D01*
X007412Y009950D01*
X007091Y009950D01*
X007412Y009950D02*
X007518Y009844D01*
X007518Y009737D01*
X007412Y009630D01*
X007091Y009630D01*
X007091Y010271D01*
X007736Y009950D02*
X007843Y010057D01*
X008056Y010057D01*
X008163Y009950D01*
X008163Y009844D01*
X007736Y009844D01*
X007736Y009950D02*
X007736Y009737D01*
X007843Y009630D01*
X008056Y009630D01*
X008380Y009630D02*
X008380Y010057D01*
X008701Y010057D01*
X008807Y009950D01*
X008807Y009630D01*
D11*
X004581Y001580D02*
X004581Y001120D01*
X004581Y001350D02*
X004735Y001350D01*
X004581Y001580D02*
X004888Y001580D01*
X005042Y001580D02*
X005349Y001580D01*
X005195Y001580D02*
X005195Y001120D01*
X005502Y001120D02*
X005809Y001427D01*
X005809Y001504D01*
X005732Y001580D01*
X005579Y001580D01*
X005502Y001504D01*
X005962Y001504D02*
X006039Y001580D01*
X006193Y001580D01*
X006269Y001504D01*
X006269Y001427D01*
X006193Y001350D01*
X006269Y001273D01*
X006269Y001197D01*
X006193Y001120D01*
X006039Y001120D01*
X005962Y001197D01*
X005809Y001120D02*
X005502Y001120D01*
X006116Y001350D02*
X006193Y001350D01*
X006423Y001504D02*
X006500Y001580D01*
X006653Y001580D01*
X006730Y001504D01*
X006730Y001427D01*
X006423Y001120D01*
X006730Y001120D01*
X006883Y001120D02*
X006883Y001580D01*
X007113Y001580D01*
X007190Y001504D01*
X007190Y001350D01*
X007113Y001273D01*
X006883Y001273D01*
X007037Y001273D02*
X007190Y001120D01*
X007344Y001120D02*
X007651Y001120D01*
X007344Y001120D02*
X007344Y001580D01*
X008264Y001580D02*
X008264Y001120D01*
X008495Y001120D01*
X008571Y001197D01*
X008571Y001273D01*
X008495Y001350D01*
X008264Y001350D01*
X008264Y001580D02*
X008495Y001580D01*
X008571Y001504D01*
X008571Y001427D01*
X008495Y001350D01*
X008725Y001273D02*
X008878Y001427D01*
X008955Y001427D01*
X009108Y001350D02*
X009185Y001427D01*
X009339Y001427D01*
X009415Y001350D01*
X009415Y001273D01*
X009108Y001273D01*
X009108Y001197D02*
X009108Y001350D01*
X009108Y001197D02*
X009185Y001120D01*
X009339Y001120D01*
X009569Y001197D02*
X009646Y001273D01*
X009876Y001273D01*
X009876Y001350D02*
X009876Y001120D01*
X009646Y001120D01*
X009569Y001197D01*
X009646Y001427D02*
X009799Y001427D01*
X009876Y001350D01*
X010029Y001273D02*
X010259Y001427D01*
X010413Y001350D02*
X010413Y001197D01*
X010490Y001120D01*
X010643Y001120D01*
X010720Y001197D01*
X010720Y001350D01*
X010643Y001427D01*
X010490Y001427D01*
X010413Y001350D01*
X010259Y001120D02*
X010029Y001273D01*
X010029Y001120D02*
X010029Y001580D01*
X010873Y001427D02*
X010873Y001197D01*
X010950Y001120D01*
X011180Y001120D01*
X011180Y001427D01*
X011334Y001427D02*
X011487Y001427D01*
X011410Y001504D02*
X011410Y001197D01*
X011487Y001120D01*
X012101Y001273D02*
X012101Y001580D01*
X012101Y001273D02*
X012254Y001120D01*
X012408Y001273D01*
X012408Y001580D01*
X012561Y001427D02*
X012715Y001580D01*
X012715Y001120D01*
X012868Y001120D02*
X012561Y001120D01*
X013022Y001120D02*
X013099Y001120D01*
X013099Y001197D01*
X013022Y001197D01*
X013022Y001120D01*
X013252Y001197D02*
X013559Y001504D01*
X013559Y001197D01*
X013482Y001120D01*
X013329Y001120D01*
X013252Y001197D01*
X013252Y001504D01*
X013329Y001580D01*
X013482Y001580D01*
X013559Y001504D01*
X008725Y001427D02*
X008725Y001120D01*
D12*
X007073Y004600D02*
X007049Y004600D01*
X007049Y006100D02*
X007073Y006100D01*
X012049Y007600D02*
X012073Y007600D01*
D13*
X012376Y006084D02*
X011746Y006084D01*
X011589Y005927D01*
X011589Y005494D01*
X012376Y006084D02*
X012534Y005927D01*
X012534Y005494D01*
X012534Y004706D02*
X012534Y004116D01*
X011589Y004116D01*
X011589Y004706D01*
X015061Y004850D02*
X015061Y004350D01*
X015311Y004100D01*
X015811Y004100D01*
X016061Y004350D01*
X016061Y004850D01*
X015811Y005100D01*
X016061Y005350D01*
X016061Y005850D01*
X015811Y006100D01*
X016061Y006350D01*
X016061Y006850D01*
X015811Y007100D01*
X016061Y007350D01*
X016061Y007850D01*
X015811Y008100D01*
X015311Y008100D01*
X015061Y007850D01*
X015061Y007350D01*
X015311Y007100D01*
X015061Y006850D01*
X015061Y006350D01*
X015311Y006100D01*
X015061Y005850D01*
X015061Y005350D01*
X015311Y005100D01*
X015061Y004850D01*
X006360Y003738D02*
X006360Y008462D01*
X004825Y008462D01*
X003171Y008462D02*
X001675Y008462D01*
X001675Y003738D02*
X003171Y003738D01*
X004825Y003738D02*
X006360Y003738D01*
D14*
X011661Y005250D02*
X012461Y005250D01*
M02*
