G75*
G70*
%OFA0B0*%
%FSLAX24Y24*%
%IPPOS*%
%LPD*%
%AMOC8*
5,1,8,0,0,1.08239X$1,22.5*
%
%ADD10C,0.0060*%
%ADD11C,0.0660*%
%ADD12C,0.1300*%
%ADD13R,0.0740X0.0740*%
%ADD14C,0.0740*%
%ADD15C,0.0100*%
%ADD16C,0.0400*%
D10*
X002198Y004130D02*
X002091Y004237D01*
X002091Y004450D01*
X002198Y004557D01*
X002305Y004557D01*
X002412Y004450D01*
X002412Y004130D01*
X002198Y004130D01*
X002412Y004130D02*
X002625Y004344D01*
X002732Y004557D01*
X002412Y004775D02*
X002412Y005202D01*
X002198Y005419D02*
X002091Y005419D01*
X002198Y005419D02*
X002625Y005846D01*
X002732Y005846D01*
X002732Y005419D01*
X002412Y006064D02*
X002412Y006491D01*
X002518Y006708D02*
X002732Y006922D01*
X002091Y006922D01*
X002091Y007135D02*
X002091Y006708D01*
X002198Y007353D02*
X002091Y007460D01*
X002091Y007673D01*
X002198Y007780D01*
X002305Y007780D01*
X002412Y007673D01*
X002412Y007566D01*
X002412Y007673D02*
X002518Y007780D01*
X002625Y007780D01*
X002732Y007673D01*
X002732Y007460D01*
X002625Y007353D01*
D11*
X005061Y006592D03*
X005841Y006592D03*
X005841Y005608D03*
X005061Y005608D03*
D12*
X003991Y003730D03*
X003991Y008470D03*
D13*
X015561Y007600D03*
D14*
X015561Y006600D03*
X015561Y005600D03*
X015561Y004600D03*
D15*
X015561Y004660D01*
X009561Y004660D01*
X007561Y006660D01*
X006601Y006100D02*
X006601Y007300D01*
X008761Y007300D01*
X011561Y006180D02*
X012921Y007540D01*
X015561Y007540D01*
X015561Y007600D01*
X015561Y005620D02*
X015561Y005600D01*
X015561Y005620D02*
X012681Y005620D01*
D16*
X012681Y005620D03*
X011561Y006180D03*
X008761Y007300D03*
X007561Y006660D03*
X006601Y006100D03*
M02*
