G75*
G70*
%OFA0B0*%
%FSLAX24Y24*%
%IPPOS*%
%LPD*%
%AMOC8*
5,1,8,0,0,1.08239X$1,22.5*
%
%ADD10C,0.0000*%
%ADD11R,0.0550X0.0137*%
%ADD12R,0.0394X0.0433*%
%ADD13R,0.0630X0.0551*%
%ADD14C,0.0660*%
%ADD15C,0.1300*%
%ADD16R,0.0740X0.0740*%
%ADD17C,0.0740*%
%ADD18C,0.0100*%
%ADD19C,0.0400*%
D10*
X001561Y000100D02*
X001561Y012100D01*
X016561Y012100D01*
X016561Y000100D01*
X001561Y000100D01*
X002411Y001600D02*
X002413Y001650D01*
X002419Y001700D01*
X002429Y001750D01*
X002442Y001798D01*
X002459Y001846D01*
X002480Y001892D01*
X002504Y001936D01*
X002532Y001978D01*
X002563Y002018D01*
X002597Y002055D01*
X002634Y002090D01*
X002673Y002121D01*
X002714Y002150D01*
X002758Y002175D01*
X002804Y002197D01*
X002851Y002215D01*
X002899Y002229D01*
X002948Y002240D01*
X002998Y002247D01*
X003048Y002250D01*
X003099Y002249D01*
X003149Y002244D01*
X003199Y002235D01*
X003247Y002223D01*
X003295Y002206D01*
X003341Y002186D01*
X003386Y002163D01*
X003429Y002136D01*
X003469Y002106D01*
X003507Y002073D01*
X003542Y002037D01*
X003575Y001998D01*
X003604Y001957D01*
X003630Y001914D01*
X003653Y001869D01*
X003672Y001822D01*
X003687Y001774D01*
X003699Y001725D01*
X003707Y001675D01*
X003711Y001625D01*
X003711Y001575D01*
X003707Y001525D01*
X003699Y001475D01*
X003687Y001426D01*
X003672Y001378D01*
X003653Y001331D01*
X003630Y001286D01*
X003604Y001243D01*
X003575Y001202D01*
X003542Y001163D01*
X003507Y001127D01*
X003469Y001094D01*
X003429Y001064D01*
X003386Y001037D01*
X003341Y001014D01*
X003295Y000994D01*
X003247Y000977D01*
X003199Y000965D01*
X003149Y000956D01*
X003099Y000951D01*
X003048Y000950D01*
X002998Y000953D01*
X002948Y000960D01*
X002899Y000971D01*
X002851Y000985D01*
X002804Y001003D01*
X002758Y001025D01*
X002714Y001050D01*
X002673Y001079D01*
X002634Y001110D01*
X002597Y001145D01*
X002563Y001182D01*
X002532Y001222D01*
X002504Y001264D01*
X002480Y001308D01*
X002459Y001354D01*
X002442Y001402D01*
X002429Y001450D01*
X002419Y001500D01*
X002413Y001550D01*
X002411Y001600D01*
X002411Y010600D02*
X002413Y010650D01*
X002419Y010700D01*
X002429Y010750D01*
X002442Y010798D01*
X002459Y010846D01*
X002480Y010892D01*
X002504Y010936D01*
X002532Y010978D01*
X002563Y011018D01*
X002597Y011055D01*
X002634Y011090D01*
X002673Y011121D01*
X002714Y011150D01*
X002758Y011175D01*
X002804Y011197D01*
X002851Y011215D01*
X002899Y011229D01*
X002948Y011240D01*
X002998Y011247D01*
X003048Y011250D01*
X003099Y011249D01*
X003149Y011244D01*
X003199Y011235D01*
X003247Y011223D01*
X003295Y011206D01*
X003341Y011186D01*
X003386Y011163D01*
X003429Y011136D01*
X003469Y011106D01*
X003507Y011073D01*
X003542Y011037D01*
X003575Y010998D01*
X003604Y010957D01*
X003630Y010914D01*
X003653Y010869D01*
X003672Y010822D01*
X003687Y010774D01*
X003699Y010725D01*
X003707Y010675D01*
X003711Y010625D01*
X003711Y010575D01*
X003707Y010525D01*
X003699Y010475D01*
X003687Y010426D01*
X003672Y010378D01*
X003653Y010331D01*
X003630Y010286D01*
X003604Y010243D01*
X003575Y010202D01*
X003542Y010163D01*
X003507Y010127D01*
X003469Y010094D01*
X003429Y010064D01*
X003386Y010037D01*
X003341Y010014D01*
X003295Y009994D01*
X003247Y009977D01*
X003199Y009965D01*
X003149Y009956D01*
X003099Y009951D01*
X003048Y009950D01*
X002998Y009953D01*
X002948Y009960D01*
X002899Y009971D01*
X002851Y009985D01*
X002804Y010003D01*
X002758Y010025D01*
X002714Y010050D01*
X002673Y010079D01*
X002634Y010110D01*
X002597Y010145D01*
X002563Y010182D01*
X002532Y010222D01*
X002504Y010264D01*
X002480Y010308D01*
X002459Y010354D01*
X002442Y010402D01*
X002429Y010450D01*
X002419Y010500D01*
X002413Y010550D01*
X002411Y010600D01*
X014411Y010600D02*
X014413Y010650D01*
X014419Y010700D01*
X014429Y010750D01*
X014442Y010798D01*
X014459Y010846D01*
X014480Y010892D01*
X014504Y010936D01*
X014532Y010978D01*
X014563Y011018D01*
X014597Y011055D01*
X014634Y011090D01*
X014673Y011121D01*
X014714Y011150D01*
X014758Y011175D01*
X014804Y011197D01*
X014851Y011215D01*
X014899Y011229D01*
X014948Y011240D01*
X014998Y011247D01*
X015048Y011250D01*
X015099Y011249D01*
X015149Y011244D01*
X015199Y011235D01*
X015247Y011223D01*
X015295Y011206D01*
X015341Y011186D01*
X015386Y011163D01*
X015429Y011136D01*
X015469Y011106D01*
X015507Y011073D01*
X015542Y011037D01*
X015575Y010998D01*
X015604Y010957D01*
X015630Y010914D01*
X015653Y010869D01*
X015672Y010822D01*
X015687Y010774D01*
X015699Y010725D01*
X015707Y010675D01*
X015711Y010625D01*
X015711Y010575D01*
X015707Y010525D01*
X015699Y010475D01*
X015687Y010426D01*
X015672Y010378D01*
X015653Y010331D01*
X015630Y010286D01*
X015604Y010243D01*
X015575Y010202D01*
X015542Y010163D01*
X015507Y010127D01*
X015469Y010094D01*
X015429Y010064D01*
X015386Y010037D01*
X015341Y010014D01*
X015295Y009994D01*
X015247Y009977D01*
X015199Y009965D01*
X015149Y009956D01*
X015099Y009951D01*
X015048Y009950D01*
X014998Y009953D01*
X014948Y009960D01*
X014899Y009971D01*
X014851Y009985D01*
X014804Y010003D01*
X014758Y010025D01*
X014714Y010050D01*
X014673Y010079D01*
X014634Y010110D01*
X014597Y010145D01*
X014563Y010182D01*
X014532Y010222D01*
X014504Y010264D01*
X014480Y010308D01*
X014459Y010354D01*
X014442Y010402D01*
X014429Y010450D01*
X014419Y010500D01*
X014413Y010550D01*
X014411Y010600D01*
X014411Y001600D02*
X014413Y001650D01*
X014419Y001700D01*
X014429Y001750D01*
X014442Y001798D01*
X014459Y001846D01*
X014480Y001892D01*
X014504Y001936D01*
X014532Y001978D01*
X014563Y002018D01*
X014597Y002055D01*
X014634Y002090D01*
X014673Y002121D01*
X014714Y002150D01*
X014758Y002175D01*
X014804Y002197D01*
X014851Y002215D01*
X014899Y002229D01*
X014948Y002240D01*
X014998Y002247D01*
X015048Y002250D01*
X015099Y002249D01*
X015149Y002244D01*
X015199Y002235D01*
X015247Y002223D01*
X015295Y002206D01*
X015341Y002186D01*
X015386Y002163D01*
X015429Y002136D01*
X015469Y002106D01*
X015507Y002073D01*
X015542Y002037D01*
X015575Y001998D01*
X015604Y001957D01*
X015630Y001914D01*
X015653Y001869D01*
X015672Y001822D01*
X015687Y001774D01*
X015699Y001725D01*
X015707Y001675D01*
X015711Y001625D01*
X015711Y001575D01*
X015707Y001525D01*
X015699Y001475D01*
X015687Y001426D01*
X015672Y001378D01*
X015653Y001331D01*
X015630Y001286D01*
X015604Y001243D01*
X015575Y001202D01*
X015542Y001163D01*
X015507Y001127D01*
X015469Y001094D01*
X015429Y001064D01*
X015386Y001037D01*
X015341Y001014D01*
X015295Y000994D01*
X015247Y000977D01*
X015199Y000965D01*
X015149Y000956D01*
X015099Y000951D01*
X015048Y000950D01*
X014998Y000953D01*
X014948Y000960D01*
X014899Y000971D01*
X014851Y000985D01*
X014804Y001003D01*
X014758Y001025D01*
X014714Y001050D01*
X014673Y001079D01*
X014634Y001110D01*
X014597Y001145D01*
X014563Y001182D01*
X014532Y001222D01*
X014504Y001264D01*
X014480Y001308D01*
X014459Y001354D01*
X014442Y001402D01*
X014429Y001450D01*
X014419Y001500D01*
X014413Y001550D01*
X014411Y001600D01*
D11*
X011001Y004437D03*
X011001Y004693D03*
X011001Y004948D03*
X011001Y005204D03*
X011001Y005460D03*
X011001Y005716D03*
X011001Y005972D03*
X011001Y006228D03*
X011001Y006484D03*
X011001Y006740D03*
X011001Y006996D03*
X011001Y007252D03*
X011001Y007507D03*
X011001Y007763D03*
X008122Y007763D03*
X008122Y007507D03*
X008122Y007252D03*
X008122Y006996D03*
X008122Y006740D03*
X008122Y006484D03*
X008122Y006228D03*
X008122Y005972D03*
X008122Y005716D03*
X008122Y005460D03*
X008122Y005204D03*
X008122Y004948D03*
X008122Y004693D03*
X008122Y004437D03*
D12*
X007061Y004265D03*
X007061Y004935D03*
X007061Y005765D03*
X007061Y006435D03*
X007061Y007265D03*
X007061Y007935D03*
X012061Y007935D03*
X012061Y007265D03*
D13*
X012061Y005651D03*
X012061Y004549D03*
D14*
X005841Y005608D03*
X005061Y005608D03*
X005061Y006592D03*
X005841Y006592D03*
D15*
X003991Y008470D03*
X003991Y003730D03*
D16*
X015561Y007600D03*
D17*
X015561Y006600D03*
X015561Y005600D03*
X015561Y004600D03*
D18*
X015561Y003860D01*
X011001Y003860D01*
X010521Y004340D01*
X010521Y005220D01*
X010921Y005220D01*
X011001Y005204D01*
X011001Y005220D01*
X012041Y005220D01*
X012041Y005620D01*
X012061Y005651D01*
X012041Y005700D01*
X012041Y007220D01*
X012061Y007265D01*
X012521Y007460D02*
X012521Y005620D01*
X012681Y005620D01*
X012521Y005620D02*
X012521Y004980D01*
X012121Y004580D01*
X012061Y004549D01*
X011561Y004420D02*
X011561Y004260D01*
X011721Y004100D01*
X015001Y004100D01*
X015001Y006020D01*
X015561Y006580D01*
X015561Y006600D01*
X012521Y007460D02*
X012121Y007860D01*
X012061Y007935D01*
X012041Y007940D01*
X012041Y008020D01*
X010681Y008020D01*
X010521Y007860D01*
X010521Y005940D01*
X010921Y005940D01*
X011001Y005972D01*
X010521Y005940D02*
X008601Y005940D01*
X008601Y006980D01*
X008201Y006980D01*
X008122Y006996D01*
X008122Y007252D02*
X008201Y007300D01*
X008761Y007300D01*
X008521Y007540D02*
X008521Y007620D01*
X008601Y007700D01*
X008601Y007860D01*
X007801Y008660D01*
X004841Y008660D01*
X004841Y007060D01*
X004601Y006820D01*
X004601Y006340D01*
X004841Y006100D01*
X005801Y006100D01*
X005801Y006580D01*
X005841Y006592D01*
X006361Y006580D02*
X006361Y006340D01*
X005881Y005860D01*
X005881Y005620D01*
X005841Y005608D01*
X005881Y005540D01*
X005881Y005460D01*
X007001Y004340D01*
X007061Y004265D01*
X007061Y004935D02*
X007081Y004980D01*
X007401Y004980D01*
X007401Y006100D01*
X007321Y006180D01*
X008121Y006180D01*
X008122Y006228D01*
X008122Y006484D02*
X008121Y006500D01*
X007801Y006500D01*
X007641Y006660D01*
X007561Y006660D01*
X007641Y006660D02*
X007641Y007300D01*
X007081Y007860D01*
X007061Y007935D01*
X007481Y008420D02*
X005081Y008420D01*
X005081Y006660D01*
X005061Y006592D01*
X006361Y006580D02*
X007001Y007220D01*
X007061Y007265D01*
X008122Y007507D02*
X008201Y007540D01*
X008521Y007540D01*
X008122Y007763D02*
X008121Y007780D01*
X007481Y008420D01*
X007061Y006435D02*
X007081Y006420D01*
X007321Y006180D01*
X007061Y005765D02*
X007001Y005780D01*
X006601Y005780D01*
X006601Y006100D01*
X008122Y005204D02*
X008121Y005140D01*
X008121Y004980D01*
X008122Y004948D01*
X008201Y004980D01*
X008601Y005380D01*
X008601Y005940D01*
X008121Y004980D02*
X007401Y004980D01*
X011001Y005460D02*
X011001Y005460D01*
X011561Y005460D01*
X011561Y006180D01*
X011561Y004420D02*
X011001Y004420D01*
X011001Y004437D01*
D19*
X012681Y005620D03*
X011561Y006180D03*
X008761Y007300D03*
X007561Y006660D03*
X006601Y006100D03*
M02*
