G75*
%MOIN*%
%OFA0B0*%
%FSLAX24Y24*%
%IPPOS*%
%LPD*%
%AMOC8*
5,1,8,0,0,1.08239X$1,22.5*
%
%ADD10R,0.0335X0.1181*%
%ADD11R,0.1181X0.0335*%
%ADD12C,0.0058*%
%ADD13R,0.1102X0.0291*%
%ADD14R,0.0354X0.0394*%
%ADD15R,0.0669X0.0315*%
%ADD16R,0.0394X0.0433*%
%ADD17R,0.0472X0.0472*%
%ADD18R,0.0433X0.0394*%
%ADD19R,0.0315X0.0472*%
%ADD20R,0.0217X0.0472*%
%ADD21R,0.0531X0.0157*%
%ADD22R,0.0591X0.0591*%
%ADD23R,0.0630X0.0630*%
%ADD24C,0.0020*%
D10*
X009343Y002318D03*
X009835Y002318D03*
X010327Y002318D03*
X010819Y002318D03*
X011311Y002318D03*
X011803Y002318D03*
X012295Y002318D03*
X012787Y002318D03*
X013280Y002318D03*
X013280Y007062D03*
X013772Y007062D03*
X014264Y007062D03*
X014756Y007062D03*
X015248Y007062D03*
X012787Y007062D03*
X012295Y007062D03*
X011803Y007062D03*
X011311Y007062D03*
X010819Y007062D03*
X010327Y007062D03*
X009835Y007062D03*
X009343Y007062D03*
D11*
X008476Y006412D03*
X008476Y005920D03*
X008476Y005428D03*
X008476Y004936D03*
X008476Y004444D03*
X008476Y003952D03*
X008476Y003460D03*
X008476Y002967D03*
D12*
X006561Y003896D02*
X005517Y003896D01*
X006561Y003896D02*
X006561Y003664D01*
X005517Y003664D01*
X005517Y003896D01*
X005517Y003721D02*
X006561Y003721D01*
X006561Y003778D02*
X005517Y003778D01*
X005517Y003835D02*
X006561Y003835D01*
X006561Y003892D02*
X005517Y003892D01*
D13*
X006039Y004280D03*
X006039Y004780D03*
X006039Y005280D03*
X006039Y005780D03*
X004440Y005780D03*
X004440Y005280D03*
X004440Y004780D03*
X004440Y004280D03*
X004440Y003780D03*
D14*
X003682Y002695D03*
X003682Y002065D03*
X005297Y002065D03*
X005297Y002695D03*
D15*
X004489Y002852D03*
D16*
X003339Y003845D03*
X003339Y004515D03*
X003339Y005145D03*
X003339Y005815D03*
X003574Y007280D03*
X002905Y007280D03*
X006905Y007280D03*
X007574Y007280D03*
X007239Y005715D03*
X007239Y005045D03*
X007239Y004415D03*
X007239Y003745D03*
X014139Y008045D03*
X014939Y008045D03*
X014939Y008715D03*
X014139Y008715D03*
D17*
X006353Y007280D03*
X005526Y007280D03*
X004953Y007280D03*
X004126Y007280D03*
D18*
X001774Y007280D03*
X001105Y007280D03*
X005905Y002880D03*
X006574Y002880D03*
X006574Y002080D03*
X005905Y002080D03*
D19*
X001694Y002280D03*
X000985Y002280D03*
D20*
X002365Y002068D03*
X003113Y002068D03*
X002739Y003092D03*
D21*
X002489Y004168D03*
X002489Y004424D03*
X002489Y004680D03*
X002489Y004936D03*
X002489Y005192D03*
D22*
X001436Y005172D03*
X001436Y004188D03*
D23*
X001436Y003036D03*
X001436Y006324D03*
D24*
X002293Y005637D02*
X002293Y005479D01*
X002411Y005361D01*
X002572Y005361D01*
X002686Y005475D01*
X002686Y005641D01*
X002572Y005755D01*
X002411Y005755D01*
X002293Y005637D01*
X002293Y005636D02*
X002686Y005636D01*
X002686Y005617D02*
X002293Y005617D01*
X002293Y005599D02*
X002686Y005599D01*
X002686Y005581D02*
X002293Y005581D01*
X002293Y005563D02*
X002686Y005563D01*
X002686Y005545D02*
X002293Y005545D01*
X002293Y005526D02*
X002686Y005526D01*
X002686Y005508D02*
X002293Y005508D01*
X002293Y005490D02*
X002686Y005490D01*
X002683Y005472D02*
X002300Y005472D01*
X002318Y005454D02*
X002665Y005454D01*
X002647Y005436D02*
X002336Y005436D01*
X002354Y005417D02*
X002628Y005417D01*
X002610Y005399D02*
X002373Y005399D01*
X002391Y005381D02*
X002592Y005381D01*
X002574Y005363D02*
X002409Y005363D01*
X002310Y005654D02*
X002673Y005654D01*
X002655Y005672D02*
X002328Y005672D01*
X002346Y005690D02*
X002637Y005690D01*
X002619Y005708D02*
X002364Y005708D01*
X002382Y005727D02*
X002600Y005727D01*
X002582Y005745D02*
X002401Y005745D01*
X002411Y004003D02*
X002572Y004003D01*
X002686Y003889D01*
X002686Y003723D01*
X002572Y003609D01*
X002411Y003609D01*
X002293Y003727D01*
X002293Y003885D01*
X002411Y004003D01*
X002407Y003999D02*
X002576Y003999D01*
X002594Y003981D02*
X002389Y003981D01*
X002370Y003963D02*
X002612Y003963D01*
X002631Y003944D02*
X002352Y003944D01*
X002334Y003926D02*
X002649Y003926D01*
X002667Y003908D02*
X002316Y003908D01*
X002298Y003890D02*
X002685Y003890D01*
X002686Y003872D02*
X002293Y003872D01*
X002293Y003853D02*
X002686Y003853D01*
X002686Y003835D02*
X002293Y003835D01*
X002293Y003817D02*
X002686Y003817D01*
X002686Y003799D02*
X002293Y003799D01*
X002293Y003781D02*
X002686Y003781D01*
X002686Y003763D02*
X002293Y003763D01*
X002293Y003744D02*
X002686Y003744D01*
X002686Y003726D02*
X002294Y003726D01*
X002312Y003708D02*
X002671Y003708D01*
X002653Y003690D02*
X002330Y003690D01*
X002348Y003672D02*
X002635Y003672D01*
X002616Y003653D02*
X002366Y003653D01*
X002385Y003635D02*
X002598Y003635D01*
X002580Y003617D02*
X002403Y003617D01*
M02*
