%
M48
M72
T01C0.0130
T02C0.0217
T03C0.0400
T04C0.0433
%
T01
X1739Y1080
X3139Y2680
X3139Y3080
X3439Y3380
X2939Y3880
X2139Y3380
X1839Y3680
X1439Y3680
X1939Y4480
X2039Y5680
X1639Y5680
X1239Y5680
X2139Y6380
X2939Y6680
X3639Y6480
X4139Y6480
X4639Y6480
X5239Y5880
X6039Y6480
X6839Y5680
X7639Y5480
X7639Y4980
X9339Y5980
X9639Y6180
X10639Y5880
X11039Y5580
X10639Y5380
X11539Y5280
X11639Y5880
X11839Y6180
X12239Y6080
X13839Y6180
X13939Y5180
X14339Y5180
X14739Y5180
X15139Y5180
X14939Y4780
X15339Y4780
X14539Y4780
X14139Y4780
X13739Y4780
X13339Y4580
X13039Y4380
X13339Y4080
X12939Y3980
X12539Y3880
X12939Y3580
X13339Y3680
X13339Y3280
X12939Y3180
X12439Y3180
X11139Y3680
X10739Y3180
X10239Y3180
X9839Y3180
X9439Y3180
X9339Y3880
X9539Y4180
X10239Y3980
X9539Y4780
X9539Y5180
X7539Y6380
X8039Y7280
X9639Y8280
X10539Y8280
X13539Y8280
X13739Y8580
X15339Y8580
X12139Y4280
X8939Y1880
X7839Y2380
X7539Y2980
X7139Y2980
X7639Y3580
X6839Y3780
X6239Y3380
X5239Y3280
X4639Y3380
X5239Y4280
X5239Y4680
X2339Y2780
X4539Y2380
X5939Y2480
X12939Y1380
X13339Y1380
X13339Y980
X12939Y980
X12939Y580
X13339Y580
X4539Y8280
T02
X2489Y5556
X2489Y3804
T03
X1139Y680
X2139Y680
X3139Y680
X4139Y680
X5139Y680
X6139Y680
X7139Y680
X8139Y680
X9139Y680
X10139Y680
X11139Y680
X12139Y680
X12139Y8680
X11139Y8680
X10139Y8680
X9139Y8680
X8139Y8680
X7139Y8680
X6139Y8680
X5139Y8680
X4139Y8680
X3139Y8680
X2139Y8680
X1139Y8680
X13139Y8680
T04
X1436Y6324
X1436Y3036
M30
