G75*
%MOIN*%
%OFA0B0*%
%FSLAX24Y24*%
%IPPOS*%
%LPD*%
%AMOC8*
5,1,8,0,0,1.08239X$1,22.5*
%
%ADD10R,0.0415X0.1261*%
%ADD11R,0.1261X0.0415*%
%ADD12C,0.0074*%
%ADD13R,0.1182X0.0371*%
%ADD14R,0.0434X0.0474*%
%ADD15R,0.0749X0.0395*%
%ADD16R,0.0474X0.0513*%
%ADD17R,0.0552X0.0552*%
%ADD18R,0.0513X0.0474*%
%ADD19R,0.0395X0.0552*%
%ADD20R,0.0297X0.0552*%
%ADD21R,0.0611X0.0237*%
%ADD22OC8,0.0474*%
%ADD23R,0.0671X0.0671*%
%ADD24R,0.0768X0.0768*%
%ADD25OC8,0.0780*%
D10*
X009343Y002318D03*
X009835Y002318D03*
X010327Y002318D03*
X010819Y002318D03*
X011311Y002318D03*
X011803Y002318D03*
X012295Y002318D03*
X012787Y002318D03*
X013280Y002318D03*
X013280Y007062D03*
X013772Y007062D03*
X014264Y007062D03*
X014756Y007062D03*
X015248Y007062D03*
X012787Y007062D03*
X012295Y007062D03*
X011803Y007062D03*
X011311Y007062D03*
X010819Y007062D03*
X010327Y007062D03*
X009835Y007062D03*
X009343Y007062D03*
D11*
X008476Y006412D03*
X008476Y005920D03*
X008476Y005428D03*
X008476Y004936D03*
X008476Y004444D03*
X008476Y003952D03*
X008476Y003460D03*
X008476Y002967D03*
D12*
X006593Y003928D02*
X005485Y003928D01*
X006593Y003928D02*
X006593Y003632D01*
X005485Y003632D01*
X005485Y003928D01*
X005485Y003705D02*
X006593Y003705D01*
X006593Y003778D02*
X005485Y003778D01*
X005485Y003851D02*
X006593Y003851D01*
X006593Y003924D02*
X005485Y003924D01*
D13*
X006039Y004280D03*
X006039Y004780D03*
X006039Y005280D03*
X006039Y005780D03*
X004440Y005780D03*
X004440Y005280D03*
X004440Y004780D03*
X004440Y004280D03*
X004440Y003780D03*
D14*
X003682Y002695D03*
X003682Y002065D03*
X005297Y002065D03*
X005297Y002695D03*
D15*
X004489Y002852D03*
D16*
X003339Y003845D03*
X003339Y004515D03*
X003339Y005145D03*
X003339Y005815D03*
X003574Y007280D03*
X002905Y007280D03*
X006905Y007280D03*
X007574Y007280D03*
X007239Y005715D03*
X007239Y005045D03*
X007239Y004415D03*
X007239Y003745D03*
X014139Y008045D03*
X014939Y008045D03*
X014939Y008715D03*
X014139Y008715D03*
D17*
X006353Y007280D03*
X005526Y007280D03*
X004953Y007280D03*
X004126Y007280D03*
D18*
X001774Y007280D03*
X001105Y007280D03*
X005905Y002880D03*
X006574Y002880D03*
X006574Y002080D03*
X005905Y002080D03*
D19*
X001694Y002280D03*
X000985Y002280D03*
D20*
X002365Y002068D03*
X003113Y002068D03*
X002739Y003092D03*
D21*
X002489Y004168D03*
X002489Y004424D03*
X002489Y004680D03*
X002489Y004936D03*
X002489Y005192D03*
D22*
X002489Y005556D03*
X002489Y003804D03*
D23*
X001436Y004188D03*
X001436Y005172D03*
D24*
X001436Y006324D03*
X001436Y003036D03*
D25*
X001139Y000680D03*
X002139Y000680D03*
X003139Y000680D03*
X004139Y000680D03*
X005139Y000680D03*
X006139Y000680D03*
X007139Y000680D03*
X008139Y000680D03*
X009139Y000680D03*
X010139Y000680D03*
X011139Y000680D03*
X012139Y000680D03*
X012139Y008680D03*
X011139Y008680D03*
X010139Y008680D03*
X009139Y008680D03*
X008139Y008680D03*
X007139Y008680D03*
X006139Y008680D03*
X005139Y008680D03*
X004139Y008680D03*
X003139Y008680D03*
X002139Y008680D03*
X001139Y008680D03*
X013139Y008680D03*
M02*
