G75*
%MOIN*%
%OFA0B0*%
%FSLAX24Y24*%
%IPPOS*%
%LPD*%
%AMOC8*
5,1,8,0,0,1.08239X$1,22.5*
%
%ADD10R,0.0460X0.0630*%
%ADD11OC8,0.0394*%
%ADD12R,0.0650X0.0650*%
%ADD13OC8,0.0700*%
%ADD14C,0.0100*%
%ADD15C,0.0270*%
%ADD16C,0.0160*%
%ADD17C,0.0060*%
D10*
X001339Y002080D03*
X001939Y002080D03*
X002939Y007280D03*
X003539Y007280D03*
X004939Y007280D03*
X005539Y007280D03*
X006939Y007280D03*
X007539Y007280D03*
D11*
X002489Y005556D03*
X002489Y003804D03*
D12*
X001436Y003036D03*
X001436Y006324D03*
D13*
X001139Y000680D03*
X002139Y000680D03*
X003139Y000680D03*
X004139Y000680D03*
X005139Y000680D03*
X006139Y000680D03*
X007139Y000680D03*
X008139Y000680D03*
X009139Y000680D03*
X010139Y000680D03*
X011139Y000680D03*
X012139Y000680D03*
X012139Y008680D03*
X011139Y008680D03*
X010139Y008680D03*
X009139Y008680D03*
X008139Y008680D03*
X007139Y008680D03*
X006139Y008680D03*
X005139Y008680D03*
X004139Y008680D03*
X003139Y008680D03*
X002139Y008680D03*
X001139Y008680D03*
X013139Y008680D03*
D14*
X013739Y008580D02*
X015339Y008580D01*
X007939Y005180D02*
X007939Y004880D01*
X006839Y003780D01*
X006639Y003380D02*
X006239Y003380D01*
X006639Y003380D02*
X006739Y003280D01*
X007339Y003280D01*
X007639Y003580D01*
X005939Y002480D02*
X005539Y002480D01*
X004639Y003380D01*
X004039Y003580D02*
X004039Y004080D01*
X005339Y005380D01*
X007739Y005380D01*
X007939Y005180D01*
X007739Y005380D02*
X007639Y005480D01*
X005539Y006180D02*
X005239Y005880D01*
X005539Y006180D02*
X005539Y007280D01*
X004939Y007280D02*
X004939Y005280D01*
X003839Y004180D01*
X003839Y003780D01*
X003439Y003380D01*
X003539Y003080D02*
X003139Y003080D01*
X003539Y003080D02*
X004039Y003580D01*
X003239Y003780D02*
X002839Y003380D01*
X002139Y003380D01*
X002139Y002980D01*
X002339Y002780D01*
X001939Y002080D02*
X001739Y001880D01*
X001739Y001080D01*
X001339Y000880D02*
X001139Y000680D01*
X001339Y000880D02*
X001339Y002080D01*
X003239Y003780D02*
X003239Y005280D01*
X004139Y006180D01*
X004139Y006480D01*
X003539Y007280D02*
X004939Y007280D01*
X002939Y007280D02*
X002939Y006680D01*
X008939Y001880D02*
X010539Y001880D01*
X012539Y003880D01*
X012939Y003180D02*
X012939Y002480D01*
X011139Y000680D01*
D15*
X012939Y000580D03*
X013339Y000580D03*
X013339Y000980D03*
X012939Y000980D03*
X012939Y001380D03*
X013339Y001380D03*
X012939Y003180D03*
X013339Y003280D03*
X012939Y003580D03*
X013339Y003680D03*
X012939Y003980D03*
X013339Y004080D03*
X013039Y004380D03*
X013339Y004580D03*
X013739Y004780D03*
X014139Y004780D03*
X014539Y004780D03*
X014939Y004780D03*
X015339Y004780D03*
X015139Y005180D03*
X014739Y005180D03*
X014339Y005180D03*
X013939Y005180D03*
X013839Y006180D03*
X012239Y006080D03*
X011839Y006180D03*
X011639Y005880D03*
X011039Y005580D03*
X010639Y005380D03*
X010639Y005880D03*
X009639Y006180D03*
X009339Y005980D03*
X009539Y005180D03*
X009539Y004780D03*
X009539Y004180D03*
X009339Y003880D03*
X010239Y003980D03*
X011139Y003680D03*
X010739Y003180D03*
X010239Y003180D03*
X009839Y003180D03*
X009439Y003180D03*
X007839Y002380D03*
X007539Y002980D03*
X007139Y002980D03*
X007639Y003580D03*
X006839Y003780D03*
X006239Y003380D03*
X005239Y003280D03*
X004639Y003380D03*
X003439Y003380D03*
X003139Y003080D03*
X003139Y002680D03*
X002339Y002780D03*
X002139Y003380D03*
X001839Y003680D03*
X001439Y003680D03*
X001939Y004480D03*
X002939Y003880D03*
X004539Y002380D03*
X005939Y002480D03*
X005239Y004280D03*
X005239Y004680D03*
X006839Y005680D03*
X007639Y005480D03*
X007639Y004980D03*
X007539Y006380D03*
X008039Y007280D03*
X009639Y008280D03*
X010539Y008280D03*
X013539Y008280D03*
X013739Y008580D03*
X015339Y008580D03*
X011539Y005280D03*
X012139Y004280D03*
X012539Y003880D03*
X012439Y003180D03*
X008939Y001880D03*
X005239Y005880D03*
X004639Y006480D03*
X004139Y006480D03*
X003639Y006480D03*
X002939Y006680D03*
X002139Y006380D03*
X002039Y005680D03*
X001639Y005680D03*
X001239Y005680D03*
X004539Y008280D03*
X006039Y006480D03*
X001739Y001080D03*
D16*
X001929Y001279D02*
X001929Y001625D01*
X002227Y001625D01*
X002309Y001707D01*
X002309Y002210D01*
X003310Y002210D01*
X003409Y002310D01*
X004382Y003282D01*
X004406Y003224D01*
X004484Y003147D01*
X004585Y003105D01*
X004646Y003105D01*
X005349Y002401D01*
X005461Y002290D01*
X005741Y002290D01*
X005784Y002247D01*
X005885Y002205D01*
X005994Y002205D01*
X006095Y002247D01*
X006173Y002324D01*
X006214Y002425D01*
X006214Y002535D01*
X006173Y002636D01*
X006095Y002713D01*
X005994Y002755D01*
X005885Y002755D01*
X005784Y002713D01*
X005741Y002670D01*
X005618Y002670D01*
X004914Y003374D01*
X004914Y003435D01*
X004873Y003536D01*
X004795Y003613D01*
X004694Y003655D01*
X004585Y003655D01*
X004484Y003613D01*
X004409Y003539D01*
X004409Y004010D01*
X004982Y004582D01*
X005006Y004524D01*
X005051Y004480D01*
X005006Y004436D01*
X004964Y004335D01*
X004964Y004225D01*
X005006Y004124D01*
X005069Y004061D01*
X005069Y003910D01*
X006369Y002610D01*
X006469Y002510D01*
X008329Y002510D01*
X007969Y002150D01*
X004369Y002150D01*
X003366Y001147D01*
X003342Y001170D01*
X002936Y001170D01*
X002649Y000883D01*
X002649Y000477D01*
X002716Y000410D01*
X002562Y000410D01*
X002629Y000477D01*
X002629Y000883D01*
X002342Y001170D01*
X002000Y001170D01*
X001973Y001236D01*
X001929Y001279D01*
X001929Y001290D02*
X003509Y001290D01*
X003667Y001448D02*
X001929Y001448D01*
X001929Y001607D02*
X003826Y001607D01*
X003984Y001765D02*
X002309Y001765D01*
X002309Y001924D02*
X004143Y001924D01*
X004301Y002082D02*
X002309Y002082D01*
X002410Y002550D02*
X002309Y002650D01*
X002210Y002750D01*
X001901Y002750D01*
X001901Y003419D01*
X001819Y003501D01*
X001053Y003501D01*
X001009Y003457D01*
X001009Y005521D01*
X001069Y005461D01*
X001069Y005110D01*
X001664Y004515D01*
X001664Y004425D01*
X001706Y004324D01*
X001784Y004247D01*
X001885Y004205D01*
X001994Y004205D01*
X002095Y004247D01*
X002173Y004324D01*
X002214Y004425D01*
X002214Y004535D01*
X002173Y004636D01*
X002095Y004713D01*
X001994Y004755D01*
X001905Y004755D01*
X001409Y005250D01*
X001409Y005461D01*
X001473Y005524D01*
X001514Y005625D01*
X001514Y005735D01*
X001473Y005836D01*
X001449Y005859D01*
X001819Y005859D01*
X001901Y005941D01*
X001901Y006237D01*
X001906Y006224D01*
X001984Y006147D01*
X002085Y006105D01*
X002194Y006105D01*
X002295Y006147D01*
X002373Y006224D01*
X002414Y006325D01*
X002414Y006435D01*
X002373Y006536D01*
X002309Y006599D01*
X002309Y006670D01*
X002769Y006210D01*
X002769Y005752D01*
X002629Y005893D01*
X002350Y005893D01*
X002153Y005696D01*
X002153Y005416D01*
X002350Y005219D01*
X002629Y005219D01*
X002769Y005360D01*
X002769Y004099D01*
X002720Y004050D01*
X002629Y004141D01*
X002350Y004141D01*
X002153Y003944D01*
X002153Y003664D01*
X002350Y003467D01*
X002629Y003467D01*
X002801Y003640D01*
X002885Y003605D01*
X002994Y003605D01*
X003045Y003626D01*
X002669Y003250D01*
X002669Y002910D01*
X002769Y002810D01*
X002864Y002715D01*
X002864Y002625D01*
X002896Y002550D01*
X002410Y002550D01*
X002402Y002558D02*
X002893Y002558D01*
X002863Y002716D02*
X002244Y002716D01*
X001901Y002875D02*
X002704Y002875D01*
X002669Y003033D02*
X001901Y003033D01*
X001901Y003192D02*
X002669Y003192D01*
X002769Y003350D02*
X001901Y003350D01*
X002153Y003667D02*
X001009Y003667D01*
X001009Y003509D02*
X002309Y003509D01*
X002670Y003509D02*
X002928Y003509D01*
X003193Y003774D02*
X003214Y003825D01*
X003214Y003935D01*
X003173Y004036D01*
X003109Y004099D01*
X003109Y006350D01*
X003037Y006423D01*
X003095Y006447D01*
X003173Y006524D01*
X003214Y006625D01*
X003214Y006735D01*
X003177Y006825D01*
X003227Y006825D01*
X003239Y006837D01*
X003251Y006825D01*
X003827Y006825D01*
X003909Y006907D01*
X003909Y007090D01*
X004569Y007090D01*
X004569Y006907D01*
X004651Y006825D01*
X004749Y006825D01*
X004749Y006732D01*
X004694Y006755D01*
X004585Y006755D01*
X004484Y006713D01*
X004406Y006636D01*
X004364Y006535D01*
X004364Y006445D01*
X003469Y005550D01*
X003469Y004050D01*
X003193Y003774D01*
X003214Y003826D02*
X003245Y003826D01*
X003194Y003984D02*
X003403Y003984D01*
X003469Y004143D02*
X003109Y004143D01*
X003109Y004301D02*
X003469Y004301D01*
X003469Y004460D02*
X003109Y004460D01*
X003109Y004618D02*
X003469Y004618D01*
X003469Y004777D02*
X003109Y004777D01*
X003109Y004935D02*
X003469Y004935D01*
X003469Y005094D02*
X003109Y005094D01*
X003109Y005252D02*
X003469Y005252D01*
X003469Y005411D02*
X003109Y005411D01*
X003109Y005569D02*
X003488Y005569D01*
X003647Y005728D02*
X003109Y005728D01*
X003109Y005886D02*
X003805Y005886D01*
X003964Y006045D02*
X003109Y006045D01*
X003109Y006203D02*
X004122Y006203D01*
X004281Y006362D02*
X003098Y006362D01*
X003168Y006520D02*
X004364Y006520D01*
X004449Y006679D02*
X003214Y006679D01*
X003839Y006837D02*
X004639Y006837D01*
X004569Y006996D02*
X003909Y006996D01*
X002769Y006203D02*
X002351Y006203D01*
X002414Y006362D02*
X002617Y006362D01*
X002459Y006520D02*
X002379Y006520D01*
X001928Y006203D02*
X001901Y006203D01*
X001901Y006045D02*
X002769Y006045D01*
X002769Y005886D02*
X002636Y005886D01*
X002343Y005886D02*
X001846Y005886D01*
X001514Y005728D02*
X002185Y005728D01*
X002153Y005569D02*
X001491Y005569D01*
X001409Y005411D02*
X002159Y005411D01*
X002317Y005252D02*
X001409Y005252D01*
X001566Y005094D02*
X002769Y005094D01*
X002769Y004935D02*
X001725Y004935D01*
X001883Y004777D02*
X002769Y004777D01*
X002769Y004618D02*
X002180Y004618D01*
X002214Y004460D02*
X002769Y004460D01*
X002769Y004301D02*
X002149Y004301D01*
X001730Y004301D02*
X001009Y004301D01*
X001009Y004460D02*
X001664Y004460D01*
X001561Y004618D02*
X001009Y004618D01*
X001009Y004777D02*
X001402Y004777D01*
X001244Y004935D02*
X001009Y004935D01*
X001009Y005094D02*
X001085Y005094D01*
X001069Y005252D02*
X001009Y005252D01*
X001009Y005411D02*
X001069Y005411D01*
X002662Y005252D02*
X002769Y005252D01*
X002769Y004143D02*
X001009Y004143D01*
X001009Y003984D02*
X002193Y003984D01*
X002153Y003826D02*
X001009Y003826D01*
X003499Y002399D02*
X005352Y002399D01*
X005349Y002401D02*
X005349Y002401D01*
X005193Y002558D02*
X003657Y002558D01*
X003816Y002716D02*
X005035Y002716D01*
X004876Y002875D02*
X003974Y002875D01*
X004133Y003033D02*
X004718Y003033D01*
X004439Y003192D02*
X004291Y003192D01*
X004884Y003509D02*
X005470Y003509D01*
X005312Y003667D02*
X004409Y003667D01*
X004409Y003826D02*
X005153Y003826D01*
X005069Y003984D02*
X004409Y003984D01*
X004542Y004143D02*
X004999Y004143D01*
X004964Y004301D02*
X004701Y004301D01*
X004859Y004460D02*
X005030Y004460D01*
X004938Y003350D02*
X005629Y003350D01*
X005787Y003192D02*
X005097Y003192D01*
X005255Y003033D02*
X005946Y003033D01*
X006104Y002875D02*
X005414Y002875D01*
X005572Y002716D02*
X005791Y002716D01*
X006088Y002716D02*
X006263Y002716D01*
X006205Y002558D02*
X006421Y002558D01*
X006204Y002399D02*
X008218Y002399D01*
X008060Y002241D02*
X006080Y002241D01*
X005799Y002241D02*
X003340Y002241D01*
X002897Y001131D02*
X002381Y001131D01*
X002540Y000973D02*
X002739Y000973D01*
X002649Y000814D02*
X002629Y000814D01*
X002629Y000656D02*
X002649Y000656D01*
X002649Y000497D02*
X002629Y000497D01*
X006562Y000410D02*
X006629Y000477D01*
X006629Y000883D01*
X006606Y000906D01*
X006910Y001210D01*
X008110Y001210D01*
X008209Y001310D01*
X008910Y002010D01*
X009810Y002010D01*
X009909Y002110D01*
X010705Y002905D01*
X010794Y002905D01*
X010895Y002947D01*
X010973Y003024D01*
X011014Y003125D01*
X011014Y003210D01*
X011310Y003210D01*
X012105Y004005D01*
X012194Y004005D01*
X012295Y004047D01*
X012373Y004124D01*
X012414Y004225D01*
X012414Y004315D01*
X013709Y005610D01*
X013709Y008061D01*
X013773Y008124D01*
X013814Y008225D01*
X013814Y008335D01*
X013773Y008436D01*
X013695Y008513D01*
X013629Y008540D01*
X013629Y008883D01*
X013562Y008950D01*
X015409Y008950D01*
X015409Y004710D01*
X013456Y004710D01*
X013409Y004663D01*
X013409Y000410D01*
X012619Y000410D01*
X012669Y000460D01*
X012669Y000660D01*
X012159Y000660D01*
X012159Y000700D01*
X012119Y000700D01*
X012119Y001210D01*
X011938Y001210D01*
X013018Y002290D01*
X013129Y002401D01*
X013129Y002981D01*
X013173Y003024D01*
X013214Y003125D01*
X013214Y003235D01*
X013173Y003336D01*
X013095Y003413D01*
X012994Y003455D01*
X012885Y003455D01*
X012784Y003413D01*
X012706Y003336D01*
X012689Y003295D01*
X012673Y003336D01*
X012595Y003413D01*
X012494Y003455D01*
X012385Y003455D01*
X012284Y003413D01*
X012206Y003336D01*
X012164Y003235D01*
X012164Y003132D01*
X010351Y001161D01*
X010342Y001170D01*
X009936Y001170D01*
X009649Y000883D01*
X009649Y000477D01*
X009716Y000410D01*
X009562Y000410D01*
X009629Y000477D01*
X009629Y000883D01*
X009342Y001170D01*
X008936Y001170D01*
X008649Y000883D01*
X008649Y000477D01*
X008716Y000410D01*
X008562Y000410D01*
X008629Y000477D01*
X008629Y000883D01*
X008342Y001170D01*
X007936Y001170D01*
X007649Y000883D01*
X007649Y000477D01*
X007716Y000410D01*
X007562Y000410D01*
X007629Y000477D01*
X007629Y000883D01*
X007342Y001170D01*
X006936Y001170D01*
X006649Y000883D01*
X006649Y000477D01*
X006716Y000410D01*
X006562Y000410D01*
X006629Y000497D02*
X006649Y000497D01*
X006649Y000656D02*
X006629Y000656D01*
X006629Y000814D02*
X006649Y000814D01*
X006672Y000973D02*
X006739Y000973D01*
X006831Y001131D02*
X006897Y001131D01*
X007381Y001131D02*
X007897Y001131D01*
X007739Y000973D02*
X007540Y000973D01*
X007629Y000814D02*
X007649Y000814D01*
X007649Y000656D02*
X007629Y000656D01*
X007629Y000497D02*
X007649Y000497D01*
X008629Y000497D02*
X008649Y000497D01*
X008649Y000656D02*
X008629Y000656D01*
X008629Y000814D02*
X008649Y000814D01*
X008739Y000973D02*
X008540Y000973D01*
X008381Y001131D02*
X008897Y001131D01*
X009381Y001131D02*
X009897Y001131D01*
X009739Y000973D02*
X009540Y000973D01*
X009629Y000814D02*
X009649Y000814D01*
X009649Y000656D02*
X009629Y000656D01*
X009629Y000497D02*
X009649Y000497D01*
X010469Y001290D02*
X008189Y001290D01*
X008348Y001448D02*
X010615Y001448D01*
X010761Y001607D02*
X008506Y001607D01*
X008665Y001765D02*
X010907Y001765D01*
X011052Y001924D02*
X008823Y001924D01*
X009882Y002082D02*
X011198Y002082D01*
X011344Y002241D02*
X010040Y002241D01*
X010199Y002399D02*
X011490Y002399D01*
X011636Y002558D02*
X010357Y002558D01*
X010516Y002716D02*
X011782Y002716D01*
X011927Y002875D02*
X010674Y002875D01*
X010976Y003033D02*
X012073Y003033D01*
X012164Y003192D02*
X011014Y003192D01*
X011450Y003350D02*
X012221Y003350D01*
X012658Y003350D02*
X012721Y003350D01*
X013158Y003350D02*
X013409Y003350D01*
X013409Y003192D02*
X013214Y003192D01*
X013176Y003033D02*
X013409Y003033D01*
X013409Y002875D02*
X013129Y002875D01*
X013129Y002716D02*
X013409Y002716D01*
X013409Y002558D02*
X013129Y002558D01*
X013127Y002399D02*
X013409Y002399D01*
X013409Y002241D02*
X012969Y002241D01*
X012810Y002082D02*
X013409Y002082D01*
X013409Y001924D02*
X012652Y001924D01*
X012493Y001765D02*
X013409Y001765D01*
X013409Y001607D02*
X012335Y001607D01*
X012176Y001448D02*
X013409Y001448D01*
X013409Y001290D02*
X012018Y001290D01*
X012159Y001210D02*
X012159Y000700D01*
X012669Y000700D01*
X012669Y000900D01*
X012359Y001210D01*
X012159Y001210D01*
X012159Y001131D02*
X012119Y001131D01*
X012438Y001131D02*
X013409Y001131D01*
X013409Y000973D02*
X012596Y000973D01*
X012669Y000814D02*
X013409Y000814D01*
X013409Y000656D02*
X012669Y000656D01*
X012669Y000497D02*
X013409Y000497D01*
X012159Y000814D02*
X012119Y000814D01*
X012119Y000973D02*
X012159Y000973D01*
X011608Y003509D02*
X013409Y003509D01*
X013409Y003667D02*
X011767Y003667D01*
X011925Y003826D02*
X013409Y003826D01*
X013409Y003984D02*
X012084Y003984D01*
X012380Y004143D02*
X013409Y004143D01*
X013409Y004301D02*
X012414Y004301D01*
X012559Y004460D02*
X013409Y004460D01*
X013409Y004618D02*
X012718Y004618D01*
X012876Y004777D02*
X015409Y004777D01*
X015409Y004935D02*
X013035Y004935D01*
X013193Y005094D02*
X015409Y005094D01*
X015409Y005252D02*
X013352Y005252D01*
X013510Y005411D02*
X015409Y005411D01*
X015409Y005569D02*
X013669Y005569D01*
X013709Y005728D02*
X015409Y005728D01*
X015409Y005886D02*
X013709Y005886D01*
X013709Y006045D02*
X015409Y006045D01*
X015409Y006203D02*
X013709Y006203D01*
X013709Y006362D02*
X015409Y006362D01*
X015409Y006520D02*
X013709Y006520D01*
X013709Y006679D02*
X015409Y006679D01*
X015409Y006837D02*
X013709Y006837D01*
X013709Y006996D02*
X015409Y006996D01*
X015409Y007154D02*
X013709Y007154D01*
X013709Y007313D02*
X015409Y007313D01*
X015409Y007471D02*
X013709Y007471D01*
X013709Y007630D02*
X015409Y007630D01*
X015409Y007788D02*
X013709Y007788D01*
X013709Y007947D02*
X015409Y007947D01*
X015409Y008105D02*
X013753Y008105D01*
X013814Y008264D02*
X015409Y008264D01*
X015409Y008422D02*
X013778Y008422D01*
X013629Y008581D02*
X015409Y008581D01*
X015409Y008739D02*
X013629Y008739D01*
X013615Y008898D02*
X015409Y008898D01*
X013369Y008061D02*
X013369Y005750D01*
X012174Y004555D01*
X012085Y004555D01*
X011984Y004513D01*
X011906Y004436D01*
X011864Y004335D01*
X011864Y004245D01*
X011397Y003778D01*
X011373Y003836D01*
X011309Y003899D01*
X011309Y004050D01*
X011210Y004150D01*
X009710Y005650D01*
X009510Y005650D01*
X009437Y005723D01*
X009495Y005747D01*
X009573Y005824D01*
X009606Y005905D01*
X009694Y005905D01*
X009795Y005947D01*
X009873Y006024D01*
X009914Y006125D01*
X009914Y006235D01*
X009873Y006336D01*
X009795Y006413D01*
X009732Y006439D01*
X009709Y006508D01*
X009709Y006550D01*
X009688Y006572D01*
X009678Y006601D01*
X009640Y006620D01*
X008070Y008190D01*
X008342Y008190D01*
X008470Y008317D01*
X011011Y005855D01*
X010985Y005855D01*
X010884Y005813D01*
X010806Y005736D01*
X010764Y005635D01*
X010764Y005626D01*
X010694Y005655D01*
X010585Y005655D01*
X010484Y005613D01*
X010406Y005536D01*
X010364Y005435D01*
X010364Y005325D01*
X010406Y005224D01*
X010484Y005147D01*
X010585Y005105D01*
X010674Y005105D01*
X010969Y004810D01*
X011810Y004810D01*
X011909Y004910D01*
X013309Y006310D01*
X013309Y008121D01*
X013369Y008061D01*
X013325Y008105D02*
X013309Y008105D01*
X013309Y007947D02*
X013369Y007947D01*
X013369Y007788D02*
X013309Y007788D01*
X013309Y007630D02*
X013369Y007630D01*
X013369Y007471D02*
X013309Y007471D01*
X013309Y007313D02*
X013369Y007313D01*
X013369Y007154D02*
X013309Y007154D01*
X013309Y006996D02*
X013369Y006996D01*
X013369Y006837D02*
X013309Y006837D01*
X013309Y006679D02*
X013369Y006679D01*
X013369Y006520D02*
X013309Y006520D01*
X013309Y006362D02*
X013369Y006362D01*
X013369Y006203D02*
X013203Y006203D01*
X013044Y006045D02*
X013369Y006045D01*
X013369Y005886D02*
X012886Y005886D01*
X012727Y005728D02*
X013347Y005728D01*
X013188Y005569D02*
X012569Y005569D01*
X012410Y005411D02*
X013030Y005411D01*
X012871Y005252D02*
X012252Y005252D01*
X012093Y005094D02*
X012713Y005094D01*
X012554Y004935D02*
X011935Y004935D01*
X012237Y004618D02*
X010742Y004618D01*
X010583Y004777D02*
X012396Y004777D01*
X011930Y004460D02*
X010900Y004460D01*
X011059Y004301D02*
X011864Y004301D01*
X011762Y004143D02*
X011217Y004143D01*
X011309Y003984D02*
X011603Y003984D01*
X011445Y003826D02*
X011377Y003826D01*
X010844Y004935D02*
X010425Y004935D01*
X010266Y005094D02*
X010685Y005094D01*
X010395Y005252D02*
X010108Y005252D01*
X009949Y005411D02*
X010364Y005411D01*
X010440Y005569D02*
X009791Y005569D01*
X009448Y005728D02*
X010803Y005728D01*
X010979Y005886D02*
X009598Y005886D01*
X009881Y006045D02*
X010816Y006045D01*
X010652Y006203D02*
X009914Y006203D01*
X009847Y006362D02*
X010488Y006362D01*
X010325Y006520D02*
X009709Y006520D01*
X009581Y006679D02*
X010161Y006679D01*
X009998Y006837D02*
X009423Y006837D01*
X009264Y006996D02*
X009834Y006996D01*
X009670Y007154D02*
X009106Y007154D01*
X008947Y007313D02*
X009507Y007313D01*
X009343Y007471D02*
X008789Y007471D01*
X008630Y007630D02*
X009179Y007630D01*
X009016Y007788D02*
X008472Y007788D01*
X008313Y007947D02*
X008852Y007947D01*
X008689Y008105D02*
X008155Y008105D01*
X008416Y008264D02*
X008525Y008264D01*
X006561Y003190D02*
X006438Y003190D01*
X006395Y003147D01*
X006337Y003123D01*
X006610Y002850D01*
X007296Y002850D01*
X007264Y002925D01*
X007264Y003035D01*
X007287Y003090D01*
X006661Y003090D01*
X006561Y003190D01*
X006427Y003033D02*
X007264Y003033D01*
X007285Y002875D02*
X006585Y002875D01*
D17*
X006539Y002680D02*
X008539Y002680D01*
X009339Y003480D01*
X010939Y003480D01*
X011039Y003380D01*
X011239Y003380D01*
X012139Y004280D01*
X013539Y005680D01*
X013539Y008280D01*
X013139Y008680D02*
X013139Y006380D01*
X011739Y004980D01*
X011039Y004980D01*
X010639Y005380D01*
X011039Y005580D02*
X011239Y005580D01*
X011539Y005280D01*
X011939Y005380D01*
X012939Y006480D01*
X010939Y007580D01*
X010139Y008280D01*
X010139Y008680D01*
X010539Y008280D02*
X010839Y007980D01*
X011439Y007980D01*
X012139Y008680D01*
X011839Y006180D02*
X009639Y008280D01*
X009139Y008380D02*
X009139Y008680D01*
X009139Y008380D02*
X011639Y005880D01*
X011539Y005580D02*
X008339Y008680D01*
X008139Y008680D01*
X007839Y008180D02*
X004639Y008180D01*
X004539Y008280D01*
X004439Y007980D02*
X004139Y008280D01*
X004139Y008680D01*
X004239Y007980D02*
X004439Y007780D01*
X005739Y007780D01*
X007539Y005980D01*
X008339Y005980D01*
X009539Y004780D01*
X009839Y004480D02*
X009139Y004480D01*
X007739Y005780D01*
X006739Y005780D01*
X006039Y006480D01*
X006939Y007080D02*
X007339Y006680D01*
X008239Y006680D01*
X009439Y005480D01*
X009639Y005480D01*
X011139Y003980D01*
X011139Y003680D01*
X010739Y003180D02*
X009739Y002180D01*
X008839Y002180D01*
X008039Y001380D01*
X006839Y001380D01*
X006139Y000680D01*
X006039Y001580D02*
X005139Y000680D01*
X004139Y000680D02*
X005239Y001780D01*
X008039Y001780D01*
X008839Y002580D01*
X009239Y002580D01*
X009839Y003180D01*
X010239Y003180D02*
X009439Y002380D01*
X008839Y002380D01*
X008039Y001580D01*
X006039Y001580D01*
X004439Y001980D02*
X003139Y000680D01*
X004439Y001980D02*
X008039Y001980D01*
X008839Y002780D01*
X009039Y002780D01*
X009439Y003180D01*
X009339Y003880D02*
X008439Y002980D01*
X007539Y002980D01*
X007139Y003480D02*
X006739Y003480D01*
X005539Y004680D01*
X005239Y004680D01*
X005139Y004980D02*
X004239Y004080D01*
X004239Y003380D01*
X003239Y002380D01*
X002339Y002380D01*
X002139Y002580D01*
X001039Y002580D01*
X000839Y002780D01*
X000839Y007380D01*
X002139Y008680D01*
X002639Y007980D02*
X004239Y007980D01*
X004439Y007980D02*
X007839Y007980D01*
X009239Y006580D01*
X009339Y005980D01*
X009639Y006180D02*
X009539Y006480D01*
X007839Y008180D01*
X008039Y007280D02*
X007539Y007280D01*
X007439Y007280D02*
X007039Y007280D01*
X006939Y007280D02*
X006939Y007080D01*
X007539Y006380D02*
X008339Y006380D01*
X009539Y005180D01*
X009839Y004480D02*
X010239Y003980D01*
X009539Y004180D02*
X007839Y004180D01*
X007139Y003480D01*
X006539Y002680D02*
X005239Y003980D01*
X005239Y004280D01*
X005139Y004980D02*
X007639Y004980D01*
X006839Y005680D02*
X006739Y005780D01*
X004639Y006480D02*
X003639Y005480D01*
X003639Y003980D01*
X002839Y003180D01*
X002839Y002980D01*
X003139Y002680D01*
X001839Y002080D02*
X001439Y002080D01*
X002939Y003880D02*
X002939Y006280D01*
X002339Y006880D01*
X002339Y007680D01*
X002639Y007980D01*
X002139Y007680D02*
X003139Y008680D01*
X002139Y007680D02*
X002139Y006380D01*
X001239Y005680D02*
X001239Y005180D01*
X001939Y004480D01*
X003039Y007280D02*
X003439Y007280D01*
X005039Y007280D02*
X005439Y007280D01*
X011539Y005580D02*
X011939Y005580D01*
X012239Y006080D01*
X012439Y003180D02*
X010139Y000680D01*
M02*
