G75*
%MOIN*%
%OFA0B0*%
%FSLAX24Y24*%
%IPPOS*%
%LPD*%
%AMOC8*
5,1,8,0,0,1.08239X$1,22.5*
%
%ADD10R,0.0335X0.1181*%
%ADD11R,0.1181X0.0335*%
%ADD12C,0.0058*%
%ADD13R,0.1102X0.0291*%
%ADD14R,0.0354X0.0394*%
%ADD15R,0.0669X0.0315*%
%ADD16R,0.0394X0.0433*%
%ADD17R,0.0472X0.0472*%
%ADD18R,0.0433X0.0394*%
%ADD19R,0.0315X0.0472*%
%ADD20R,0.0217X0.0472*%
%ADD21R,0.0531X0.0157*%
%ADD22OC8,0.0394*%
%ADD23R,0.0591X0.0591*%
%ADD24R,0.0650X0.0650*%
%ADD25OC8,0.0700*%
%ADD26C,0.0100*%
%ADD27C,0.0270*%
%ADD28C,0.0160*%
%ADD29C,0.0060*%
D10*
X009343Y002318D03*
X009835Y002318D03*
X010327Y002318D03*
X010819Y002318D03*
X011311Y002318D03*
X011803Y002318D03*
X012295Y002318D03*
X012787Y002318D03*
X013280Y002318D03*
X013280Y007062D03*
X013772Y007062D03*
X014264Y007062D03*
X014756Y007062D03*
X015248Y007062D03*
X012787Y007062D03*
X012295Y007062D03*
X011803Y007062D03*
X011311Y007062D03*
X010819Y007062D03*
X010327Y007062D03*
X009835Y007062D03*
X009343Y007062D03*
D11*
X008476Y006412D03*
X008476Y005920D03*
X008476Y005428D03*
X008476Y004936D03*
X008476Y004444D03*
X008476Y003952D03*
X008476Y003460D03*
X008476Y002967D03*
D12*
X006561Y003896D02*
X005517Y003896D01*
X006561Y003896D02*
X006561Y003664D01*
X005517Y003664D01*
X005517Y003896D01*
X005517Y003721D02*
X006561Y003721D01*
X006561Y003778D02*
X005517Y003778D01*
X005517Y003835D02*
X006561Y003835D01*
X006561Y003892D02*
X005517Y003892D01*
D13*
X006039Y004280D03*
X006039Y004780D03*
X006039Y005280D03*
X006039Y005780D03*
X004440Y005780D03*
X004440Y005280D03*
X004440Y004780D03*
X004440Y004280D03*
X004440Y003780D03*
D14*
X003682Y002695D03*
X003682Y002065D03*
X005297Y002065D03*
X005297Y002695D03*
D15*
X004489Y002852D03*
D16*
X003339Y003845D03*
X003339Y004515D03*
X003339Y005145D03*
X003339Y005815D03*
X003574Y007280D03*
X002905Y007280D03*
X006905Y007280D03*
X007574Y007280D03*
X007239Y005715D03*
X007239Y005045D03*
X007239Y004415D03*
X007239Y003745D03*
X014139Y008045D03*
X014939Y008045D03*
X014939Y008715D03*
X014139Y008715D03*
D17*
X006353Y007280D03*
X005526Y007280D03*
X004953Y007280D03*
X004126Y007280D03*
D18*
X001774Y007280D03*
X001105Y007280D03*
X005905Y002880D03*
X006574Y002880D03*
X006574Y002080D03*
X005905Y002080D03*
D19*
X001694Y002280D03*
X000985Y002280D03*
D20*
X002365Y002068D03*
X003113Y002068D03*
X002739Y003092D03*
D21*
X002489Y004168D03*
X002489Y004424D03*
X002489Y004680D03*
X002489Y004936D03*
X002489Y005192D03*
D22*
X002489Y005556D03*
X002489Y003804D03*
D23*
X001436Y004188D03*
X001436Y005172D03*
D24*
X001436Y006324D03*
X001436Y003036D03*
D25*
X001139Y000680D03*
X002139Y000680D03*
X003139Y000680D03*
X004139Y000680D03*
X005139Y000680D03*
X006139Y000680D03*
X007139Y000680D03*
X008139Y000680D03*
X009139Y000680D03*
X010139Y000680D03*
X011139Y000680D03*
X012139Y000680D03*
X012139Y008680D03*
X011139Y008680D03*
X010139Y008680D03*
X009139Y008680D03*
X008139Y008680D03*
X007139Y008680D03*
X006139Y008680D03*
X005139Y008680D03*
X004139Y008680D03*
X003139Y008680D03*
X002139Y008680D03*
X001139Y008680D03*
X013139Y008680D03*
D26*
X013739Y008580D02*
X013739Y008480D01*
X014139Y008080D01*
X014139Y008045D01*
X014139Y007980D01*
X011339Y007980D01*
X010839Y007680D01*
X010839Y007080D01*
X010819Y007062D01*
X011311Y007062D02*
X011339Y006980D01*
X011339Y005480D01*
X010939Y005080D01*
X012139Y003880D01*
X014239Y005980D01*
X014239Y006980D01*
X014264Y007062D01*
X014339Y007080D01*
X014539Y007280D01*
X014739Y007080D01*
X014756Y007062D01*
X014539Y007280D02*
X014539Y008780D01*
X014139Y008780D01*
X014139Y008715D01*
X014539Y008780D02*
X014939Y008780D01*
X014939Y008715D01*
X015339Y008580D02*
X015339Y007080D01*
X015248Y007062D01*
X015239Y006980D01*
X015239Y006480D01*
X013339Y004580D01*
X013339Y003880D01*
X012539Y003880D01*
X012139Y003880D02*
X012939Y003180D01*
X013339Y003880D02*
X013339Y002380D01*
X013280Y002318D01*
X013239Y002280D01*
X013239Y001780D01*
X012139Y000680D01*
X008939Y001880D02*
X008539Y002280D01*
X008539Y002880D01*
X008476Y002967D01*
X008439Y002980D01*
X007939Y002980D01*
X007639Y003280D01*
X007239Y003280D01*
X006639Y002680D01*
X006639Y002080D01*
X006574Y002080D01*
X005939Y002080D02*
X005939Y002480D01*
X005939Y002880D01*
X005905Y002880D01*
X005939Y002880D02*
X005939Y003080D01*
X006239Y003380D01*
X006039Y003780D02*
X005439Y003780D01*
X004539Y002880D01*
X004489Y002852D01*
X004439Y002780D01*
X004439Y002580D01*
X003939Y002080D01*
X003439Y001580D01*
X003039Y001580D01*
X002639Y001980D01*
X002439Y001980D01*
X002365Y002068D01*
X002339Y002080D01*
X002339Y002780D01*
X002039Y002780D02*
X002039Y002880D01*
X002239Y003080D01*
X002739Y003080D01*
X002739Y003092D01*
X002739Y003080D02*
X003139Y003080D01*
X003439Y003380D02*
X003539Y003280D01*
X004039Y003280D01*
X004039Y002480D01*
X003939Y002380D01*
X003439Y002380D01*
X003139Y002080D01*
X003113Y002068D01*
X003682Y002065D02*
X003739Y002080D01*
X003939Y002080D01*
X002439Y002080D02*
X002365Y002068D01*
X001739Y002280D02*
X001739Y002480D01*
X002039Y002780D01*
X001739Y002280D02*
X001694Y002280D01*
X001039Y002280D02*
X000985Y002280D01*
X000939Y002280D01*
X000839Y002380D01*
X000839Y004380D01*
X001139Y004680D01*
X001739Y004680D01*
X001939Y004880D01*
X001939Y004980D01*
X002139Y005180D01*
X002439Y005180D01*
X002489Y005192D01*
X002439Y004180D02*
X002489Y004168D01*
X002439Y004180D02*
X002339Y004180D01*
X002139Y003980D01*
X002139Y003380D01*
X001039Y002280D02*
X001039Y001780D01*
X001739Y001080D01*
X004039Y003280D02*
X004039Y003380D01*
X004339Y003680D01*
X004440Y003780D01*
X004439Y003780D01*
X004339Y003680D01*
X004639Y003380D01*
X006039Y003780D02*
X006539Y003880D01*
X006539Y002880D01*
X006574Y002880D01*
X006639Y002880D01*
X006639Y002680D01*
X005939Y002080D02*
X005905Y002080D01*
X007639Y003580D02*
X007939Y003480D01*
X008439Y003480D01*
X008476Y003460D01*
X008539Y003480D01*
X009339Y003480D01*
X010939Y005080D01*
X007639Y005480D02*
X007439Y005680D01*
X007239Y005680D01*
X007239Y005715D01*
X007239Y005045D02*
X007239Y004415D01*
X007239Y004380D01*
X007039Y004380D01*
X006539Y003880D01*
X006439Y003780D01*
X006039Y003780D01*
X006839Y003780D02*
X007239Y003780D01*
X007239Y003745D01*
X006039Y005780D02*
X005339Y005780D01*
X005239Y005880D01*
X004139Y006480D02*
X004939Y007280D01*
X004953Y007280D01*
X005526Y007280D01*
X002939Y007280D02*
X002939Y006680D01*
X002939Y007280D02*
X002905Y007280D01*
X014939Y007880D02*
X015239Y007580D01*
X015239Y007080D01*
X015248Y007062D01*
X014939Y007880D02*
X014939Y008045D01*
D27*
X015339Y008580D03*
X013739Y008580D03*
X013539Y008280D03*
X010539Y008280D03*
X009639Y008280D03*
X008039Y007280D03*
X007539Y006380D03*
X006839Y005680D03*
X007639Y005480D03*
X007639Y004980D03*
X009339Y005980D03*
X009639Y006180D03*
X010639Y005880D03*
X011039Y005580D03*
X010639Y005380D03*
X011539Y005280D03*
X011639Y005880D03*
X011839Y006180D03*
X012239Y006080D03*
X013839Y006180D03*
X013939Y005180D03*
X014339Y005180D03*
X014739Y005180D03*
X015139Y005180D03*
X014939Y004780D03*
X015339Y004780D03*
X014539Y004780D03*
X014139Y004780D03*
X013739Y004780D03*
X013339Y004580D03*
X013039Y004380D03*
X013339Y004080D03*
X012939Y003980D03*
X012539Y003880D03*
X012939Y003580D03*
X013339Y003680D03*
X013339Y003280D03*
X012939Y003180D03*
X012439Y003180D03*
X011139Y003680D03*
X010739Y003180D03*
X010239Y003180D03*
X009839Y003180D03*
X009439Y003180D03*
X009339Y003880D03*
X009539Y004180D03*
X010239Y003980D03*
X009539Y004780D03*
X009539Y005180D03*
X007639Y003580D03*
X007539Y002980D03*
X007139Y002980D03*
X006239Y003380D03*
X006839Y003780D03*
X005239Y003280D03*
X004639Y003380D03*
X003439Y003380D03*
X003139Y003080D03*
X003139Y002680D03*
X002339Y002780D03*
X002139Y003380D03*
X001839Y003680D03*
X001439Y003680D03*
X001939Y004480D03*
X002939Y003880D03*
X004539Y002380D03*
X005939Y002480D03*
X007839Y002380D03*
X008939Y001880D03*
X012139Y004280D03*
X012939Y001380D03*
X013339Y001380D03*
X013339Y000980D03*
X012939Y000980D03*
X012939Y000580D03*
X013339Y000580D03*
X005239Y004280D03*
X005239Y004680D03*
X005239Y005880D03*
X004639Y006480D03*
X004139Y006480D03*
X003639Y006480D03*
X002939Y006680D03*
X002139Y006380D03*
X002039Y005680D03*
X001639Y005680D03*
X001239Y005680D03*
X004539Y008280D03*
X006039Y006480D03*
X001739Y001080D03*
D28*
X002000Y001170D02*
X001973Y001236D01*
X001895Y001313D01*
X001794Y001355D01*
X001733Y001355D01*
X001229Y001859D01*
X001229Y001933D01*
X001283Y001986D01*
X001283Y002571D01*
X001396Y002571D01*
X001396Y001986D01*
X001478Y001904D01*
X001909Y001904D01*
X001991Y001986D01*
X001991Y002463D01*
X002118Y002590D01*
X002229Y002701D01*
X002229Y002801D01*
X002318Y002890D01*
X002491Y002890D01*
X002491Y002798D01*
X002573Y002716D01*
X002229Y002716D01*
X002086Y002558D02*
X002893Y002558D01*
X002906Y002524D02*
X002864Y002625D01*
X002864Y002716D01*
X002573Y002716D01*
X002491Y002875D02*
X002303Y002875D01*
X002049Y003159D02*
X001901Y003010D01*
X001901Y003419D01*
X001819Y003501D01*
X001053Y003501D01*
X001029Y003477D01*
X001029Y003806D01*
X001083Y003753D01*
X001790Y003753D01*
X001872Y003835D01*
X001872Y004210D01*
X001885Y004205D01*
X001994Y004205D01*
X002044Y004226D01*
X002044Y004168D01*
X002044Y004066D01*
X002056Y004020D01*
X002080Y003979D01*
X002113Y003945D01*
X002153Y003923D01*
X002153Y003664D01*
X002350Y003467D01*
X002572Y003467D01*
X002491Y003386D01*
X002491Y003270D01*
X002161Y003270D01*
X002049Y003159D01*
X002082Y003192D02*
X001901Y003192D01*
X001901Y003350D02*
X002491Y003350D01*
X002309Y003509D02*
X001029Y003509D01*
X001029Y003667D02*
X002153Y003667D01*
X002153Y003826D02*
X001862Y003826D01*
X001872Y003984D02*
X002077Y003984D01*
X002044Y004143D02*
X001872Y004143D01*
X002044Y004168D02*
X002489Y004168D01*
X002489Y004168D01*
X002044Y004168D01*
X002489Y004168D02*
X002935Y004168D01*
X002489Y004168D01*
X002489Y004168D01*
X002935Y004168D02*
X002935Y004271D01*
X002923Y004316D01*
X002899Y004357D01*
X002895Y004361D01*
X002895Y004410D01*
X003003Y004410D01*
X003003Y004240D01*
X003063Y004180D01*
X003025Y004142D01*
X002994Y004155D01*
X002935Y004155D01*
X002935Y004168D01*
X003024Y004143D02*
X003025Y004143D01*
X003003Y004301D02*
X002927Y004301D01*
X001872Y005181D02*
X001872Y005525D01*
X001790Y005607D01*
X001507Y005607D01*
X001514Y005625D01*
X001514Y005735D01*
X001473Y005836D01*
X001449Y005859D01*
X001819Y005859D01*
X001901Y005941D01*
X001901Y006237D01*
X001906Y006224D01*
X001984Y006147D01*
X002085Y006105D01*
X002174Y006105D01*
X002386Y005893D01*
X002350Y005893D01*
X002153Y005696D01*
X002153Y005416D01*
X002162Y005407D01*
X002125Y005370D01*
X002061Y005370D01*
X001872Y005181D01*
X001872Y005252D02*
X001943Y005252D01*
X001872Y005411D02*
X002159Y005411D01*
X002153Y005569D02*
X001828Y005569D01*
X001514Y005728D02*
X002185Y005728D01*
X002343Y005886D02*
X001846Y005886D01*
X001901Y006045D02*
X002234Y006045D01*
X001928Y006203D02*
X001901Y006203D01*
X003509Y006203D02*
X003722Y006203D01*
X003771Y006252D02*
X003642Y006123D01*
X003594Y006171D01*
X003509Y006171D01*
X003509Y006923D01*
X003812Y006923D01*
X003832Y006904D01*
X004420Y006904D01*
X004502Y006986D01*
X004502Y007574D01*
X004420Y007656D01*
X003832Y007656D01*
X003812Y007637D01*
X003536Y007637D01*
X003610Y007710D01*
X005469Y007710D01*
X005483Y007696D01*
X005266Y007696D01*
X005239Y007689D01*
X005213Y007696D01*
X004991Y007696D01*
X004991Y007318D01*
X005488Y007318D01*
X005488Y007242D01*
X005110Y007242D01*
X004991Y007242D01*
X004991Y007318D01*
X004915Y007318D01*
X004915Y007696D01*
X004693Y007696D01*
X004647Y007684D01*
X004606Y007660D01*
X004573Y007627D01*
X004549Y007586D01*
X004537Y007540D01*
X004537Y007318D01*
X004915Y007318D01*
X004915Y007242D01*
X004991Y007242D01*
X004991Y006864D01*
X005213Y006864D01*
X005239Y006871D01*
X005266Y006864D01*
X005488Y006864D01*
X005488Y007242D01*
X005564Y007242D01*
X005564Y006864D01*
X005786Y006864D01*
X005832Y006876D01*
X005873Y006900D01*
X005876Y006903D01*
X006024Y006755D01*
X005985Y006755D01*
X005884Y006713D01*
X005821Y006650D01*
X004858Y006650D01*
X004795Y006713D01*
X004694Y006755D01*
X004585Y006755D01*
X004484Y006713D01*
X004406Y006636D01*
X004364Y006535D01*
X004364Y006425D01*
X004401Y006337D01*
X004012Y006348D01*
X004010Y006350D01*
X003942Y006350D01*
X003874Y006352D01*
X003872Y006350D01*
X003869Y006350D01*
X003821Y006302D01*
X003771Y006255D01*
X003771Y006252D01*
X003509Y006362D02*
X004391Y006362D01*
X004364Y006520D02*
X003509Y006520D01*
X003509Y006679D02*
X004449Y006679D01*
X004606Y006900D02*
X004573Y006933D01*
X004549Y006974D01*
X004537Y007020D01*
X004537Y007242D01*
X004915Y007242D01*
X004915Y006864D01*
X004693Y006864D01*
X004647Y006876D01*
X004606Y006900D01*
X004543Y006996D02*
X004502Y006996D01*
X004502Y007154D02*
X004537Y007154D01*
X004502Y007313D02*
X004915Y007313D01*
X004991Y007313D02*
X005488Y007313D01*
X005488Y007154D02*
X005564Y007154D01*
X005564Y006996D02*
X005488Y006996D01*
X005849Y006679D02*
X004830Y006679D01*
X004915Y006996D02*
X004991Y006996D01*
X004991Y007154D02*
X004915Y007154D01*
X004915Y007471D02*
X004991Y007471D01*
X004991Y007630D02*
X004915Y007630D01*
X004575Y007630D02*
X004447Y007630D01*
X004502Y007471D02*
X004537Y007471D01*
X003509Y006837D02*
X005942Y006837D01*
X006805Y005405D02*
X006894Y005405D01*
X006925Y005418D01*
X006935Y005408D01*
X006932Y005406D01*
X006899Y005372D01*
X006875Y005331D01*
X006863Y005286D01*
X006863Y005064D01*
X007221Y005064D01*
X007221Y005027D01*
X006863Y005027D01*
X006863Y004805D01*
X006875Y004759D01*
X006892Y004730D01*
X006875Y004701D01*
X006863Y004655D01*
X006863Y004433D01*
X007221Y004433D01*
X007221Y004396D01*
X007258Y004396D01*
X007258Y004102D01*
X007221Y004102D01*
X007221Y004396D01*
X006863Y004396D01*
X006863Y004174D01*
X006875Y004129D01*
X006899Y004088D01*
X006932Y004054D01*
X006935Y004052D01*
X006925Y004042D01*
X006894Y004055D01*
X006785Y004055D01*
X006723Y004030D01*
X006703Y004050D01*
X006730Y004076D01*
X006730Y004484D01*
X006683Y004530D01*
X006730Y004576D01*
X006730Y004984D01*
X006683Y005030D01*
X006730Y005076D01*
X006730Y005330D01*
X006805Y005405D01*
X006907Y005411D02*
X006932Y005411D01*
X006863Y005252D02*
X006730Y005252D01*
X006730Y005094D02*
X006863Y005094D01*
X006863Y004935D02*
X006730Y004935D01*
X006730Y004777D02*
X006870Y004777D01*
X006863Y004618D02*
X006730Y004618D01*
X006730Y004460D02*
X006863Y004460D01*
X006863Y004301D02*
X006730Y004301D01*
X006730Y004143D02*
X006871Y004143D01*
X007221Y004143D02*
X007258Y004143D01*
X007258Y004301D02*
X007221Y004301D01*
X007258Y004396D02*
X007258Y004433D01*
X007616Y004433D01*
X007616Y004655D01*
X007604Y004701D01*
X007601Y004705D01*
X007694Y004705D01*
X007746Y004726D01*
X007746Y004711D01*
X007767Y004690D01*
X007746Y004669D01*
X007746Y004218D01*
X007767Y004198D01*
X007746Y004177D01*
X007746Y003834D01*
X007694Y003855D01*
X007585Y003855D01*
X007576Y003851D01*
X007576Y004020D01*
X007544Y004052D01*
X007547Y004054D01*
X007580Y004088D01*
X007604Y004129D01*
X007616Y004174D01*
X007616Y004396D01*
X007258Y004396D01*
X007258Y004433D02*
X007221Y004433D01*
X007221Y004811D01*
X007221Y005027D01*
X007258Y005027D01*
X007258Y004433D01*
X007258Y004460D02*
X007221Y004460D01*
X007221Y004618D02*
X007258Y004618D01*
X007258Y004777D02*
X007221Y004777D01*
X007221Y004935D02*
X007258Y004935D01*
X007616Y004618D02*
X007746Y004618D01*
X007746Y004460D02*
X007616Y004460D01*
X007616Y004301D02*
X007746Y004301D01*
X007746Y004143D02*
X007608Y004143D01*
X007576Y003984D02*
X007746Y003984D01*
X007442Y003389D02*
X006985Y003389D01*
X006903Y003471D01*
X006903Y003509D01*
X006894Y003505D01*
X006785Y003505D01*
X006723Y003530D01*
X006689Y003496D01*
X006641Y003469D01*
X006588Y003454D01*
X006506Y003454D01*
X006514Y003435D01*
X006514Y003325D01*
X006486Y003257D01*
X006556Y003257D01*
X006556Y002898D01*
X006556Y002862D01*
X006261Y002862D01*
X006261Y002898D01*
X006556Y002898D01*
X006592Y002898D01*
X006592Y003257D01*
X006814Y003257D01*
X006860Y003245D01*
X006901Y003221D01*
X006935Y003187D01*
X006958Y003146D01*
X006971Y003101D01*
X006971Y002898D01*
X006592Y002898D01*
X006592Y002862D01*
X006592Y002503D01*
X006814Y002503D01*
X006860Y002515D01*
X006901Y002539D01*
X006935Y002573D01*
X006958Y002614D01*
X006971Y002659D01*
X006971Y002862D01*
X006592Y002862D01*
X006556Y002862D01*
X006556Y002503D01*
X006334Y002503D01*
X006288Y002515D01*
X006247Y002539D01*
X006213Y002573D01*
X006212Y002576D01*
X006202Y002566D01*
X006214Y002535D01*
X006214Y002425D01*
X006202Y002394D01*
X006212Y002384D01*
X006213Y002387D01*
X006247Y002421D01*
X006288Y002445D01*
X006334Y002457D01*
X006556Y002457D01*
X006556Y002098D01*
X006592Y002098D01*
X006917Y002098D01*
X006881Y002062D01*
X006592Y002062D01*
X006592Y002098D01*
X006592Y002457D01*
X006814Y002457D01*
X006860Y002445D01*
X006901Y002421D01*
X006935Y002387D01*
X006958Y002346D01*
X006971Y002301D01*
X006971Y002152D01*
X007369Y002550D01*
X007369Y002761D01*
X007306Y002824D01*
X007264Y002925D01*
X007264Y003035D01*
X007306Y003136D01*
X007384Y003213D01*
X007485Y003255D01*
X007594Y003255D01*
X007695Y003213D01*
X007715Y003193D01*
X007718Y003204D01*
X007742Y003245D01*
X007746Y003249D01*
X007746Y003326D01*
X007694Y003305D01*
X007585Y003305D01*
X007484Y003347D01*
X007442Y003389D01*
X007481Y003350D02*
X006514Y003350D01*
X006556Y003192D02*
X006592Y003192D01*
X006592Y003033D02*
X006556Y003033D01*
X006556Y002875D02*
X006261Y002875D01*
X006592Y002875D02*
X007285Y002875D01*
X007264Y003033D02*
X006971Y003033D01*
X006931Y003192D02*
X007362Y003192D01*
X006776Y003509D02*
X006701Y003509D01*
X006564Y003780D02*
X006039Y003780D01*
X006564Y003780D01*
X006564Y003780D01*
X006039Y003780D02*
X006039Y003780D01*
X005307Y003780D01*
X005307Y003636D01*
X005322Y003583D01*
X005349Y003535D01*
X005388Y003496D01*
X005436Y003469D01*
X005489Y003454D01*
X005973Y003454D01*
X005964Y003435D01*
X005964Y003374D01*
X005808Y003217D01*
X005630Y003217D01*
X005548Y003135D01*
X005548Y003015D01*
X005532Y003032D01*
X005061Y003032D01*
X005004Y002975D01*
X005004Y003034D01*
X004992Y003079D01*
X004968Y003120D01*
X004935Y003154D01*
X004894Y003178D01*
X004848Y003190D01*
X004838Y003190D01*
X004873Y003224D01*
X004914Y003325D01*
X004914Y003435D01*
X004890Y003494D01*
X005049Y003494D01*
X005131Y003576D01*
X005131Y003984D01*
X005326Y003984D01*
X005322Y003977D02*
X005307Y003924D01*
X005307Y003780D01*
X006039Y003780D01*
X006039Y003780D01*
X005941Y003350D02*
X004914Y003350D01*
X004840Y003192D02*
X005605Y003192D01*
X005548Y003033D02*
X005004Y003033D01*
X004489Y002852D02*
X004489Y002515D01*
X004489Y002852D01*
X004489Y002852D01*
X004489Y002716D02*
X004489Y002716D01*
X004489Y002558D02*
X004489Y002558D01*
X004489Y002515D02*
X004848Y002515D01*
X004894Y002527D01*
X004935Y002551D01*
X004968Y002584D01*
X004979Y002604D01*
X004979Y002440D01*
X005039Y002380D01*
X004979Y002320D01*
X004979Y001810D01*
X005061Y001728D01*
X005532Y001728D01*
X005588Y001785D01*
X005630Y001743D01*
X006179Y001743D01*
X006212Y001776D01*
X006213Y001773D01*
X006247Y001739D01*
X006288Y001715D01*
X006334Y001703D01*
X006522Y001703D01*
X006369Y001550D01*
X002769Y001550D01*
X002366Y001147D01*
X002342Y001170D01*
X002000Y001170D01*
X001919Y001290D02*
X002509Y001290D01*
X002667Y001448D02*
X001640Y001448D01*
X001482Y001607D02*
X006426Y001607D01*
X006221Y001765D02*
X006201Y001765D01*
X006592Y002082D02*
X006901Y002082D01*
X006971Y002241D02*
X007060Y002241D01*
X006923Y002399D02*
X007218Y002399D01*
X007369Y002558D02*
X006920Y002558D01*
X006971Y002716D02*
X007369Y002716D01*
X007709Y002716D02*
X007727Y002716D01*
X007718Y002731D02*
X007710Y002762D01*
X007709Y002761D01*
X007709Y002410D01*
X006609Y001310D01*
X006510Y001210D01*
X002910Y001210D01*
X002606Y000906D01*
X002629Y000883D01*
X002629Y000477D01*
X002562Y000410D01*
X002716Y000410D01*
X002649Y000477D01*
X002649Y000883D01*
X002936Y001170D01*
X003342Y001170D01*
X003629Y000883D01*
X003629Y000477D01*
X003562Y000410D01*
X003716Y000410D01*
X003649Y000477D01*
X003649Y000883D01*
X003936Y001170D01*
X004342Y001170D01*
X004629Y000883D01*
X004629Y000477D01*
X004562Y000410D01*
X004716Y000410D01*
X004649Y000477D01*
X004649Y000883D01*
X004936Y001170D01*
X005342Y001170D01*
X005629Y000883D01*
X005629Y000477D01*
X005562Y000410D01*
X005716Y000410D01*
X005649Y000477D01*
X005649Y000883D01*
X005936Y001170D01*
X006342Y001170D01*
X006629Y000883D01*
X006629Y000477D01*
X006562Y000410D01*
X006716Y000410D01*
X006649Y000477D01*
X006649Y000883D01*
X006936Y001170D01*
X007342Y001170D01*
X007366Y001147D01*
X007969Y001750D01*
X009035Y001750D01*
X009035Y002620D01*
X008480Y002620D01*
X008480Y002964D01*
X008473Y002964D01*
X008473Y002620D01*
X007862Y002620D01*
X007816Y002632D01*
X007775Y002656D01*
X007742Y002690D01*
X007718Y002731D01*
X007709Y002558D02*
X009035Y002558D01*
X009035Y002399D02*
X007699Y002399D01*
X007540Y002241D02*
X009035Y002241D01*
X009035Y002082D02*
X007382Y002082D01*
X007223Y001924D02*
X009035Y001924D01*
X009035Y001765D02*
X007065Y001765D01*
X006906Y001607D02*
X007826Y001607D01*
X007667Y001448D02*
X006748Y001448D01*
X006589Y001290D02*
X007509Y001290D01*
X006897Y001131D02*
X006381Y001131D01*
X006540Y000973D02*
X006739Y000973D01*
X006649Y000814D02*
X006629Y000814D01*
X006629Y000656D02*
X006649Y000656D01*
X006649Y000497D02*
X006629Y000497D01*
X005739Y000973D02*
X005540Y000973D01*
X005629Y000814D02*
X005649Y000814D01*
X005649Y000656D02*
X005629Y000656D01*
X005629Y000497D02*
X005649Y000497D01*
X004649Y000497D02*
X004629Y000497D01*
X004629Y000656D02*
X004649Y000656D01*
X004649Y000814D02*
X004629Y000814D01*
X004540Y000973D02*
X004739Y000973D01*
X004897Y001131D02*
X004381Y001131D01*
X003897Y001131D02*
X003381Y001131D01*
X003540Y000973D02*
X003739Y000973D01*
X003649Y000814D02*
X003629Y000814D01*
X003629Y000656D02*
X003649Y000656D01*
X003649Y000497D02*
X003629Y000497D01*
X002649Y000497D02*
X002629Y000497D01*
X002629Y000656D02*
X002649Y000656D01*
X002649Y000814D02*
X002629Y000814D01*
X002672Y000973D02*
X002739Y000973D01*
X002831Y001131D02*
X002897Y001131D01*
X002947Y001692D02*
X003280Y001692D01*
X003355Y001768D01*
X003361Y001758D01*
X003395Y001724D01*
X003436Y001700D01*
X003481Y001688D01*
X003674Y001688D01*
X003674Y002056D01*
X003691Y002056D01*
X003691Y001688D01*
X003883Y001688D01*
X003929Y001700D01*
X003970Y001724D01*
X004004Y001758D01*
X004027Y001799D01*
X004039Y001844D01*
X004039Y002056D01*
X003691Y002056D01*
X003691Y002074D01*
X004039Y002074D01*
X004039Y002211D01*
X004118Y002290D01*
X004229Y002401D01*
X004229Y002515D01*
X004489Y002515D01*
X004227Y002399D02*
X005020Y002399D01*
X004979Y002241D02*
X004069Y002241D01*
X004039Y002082D02*
X004979Y002082D01*
X004979Y001924D02*
X004039Y001924D01*
X004008Y001765D02*
X005025Y001765D01*
X005568Y001765D02*
X005608Y001765D01*
X005381Y001131D02*
X005897Y001131D01*
X006556Y002241D02*
X006592Y002241D01*
X006592Y002399D02*
X006556Y002399D01*
X006556Y002558D02*
X006592Y002558D01*
X006592Y002716D02*
X006556Y002716D01*
X006229Y002558D02*
X006205Y002558D01*
X006204Y002399D02*
X006225Y002399D01*
X004979Y002558D02*
X004941Y002558D01*
X003691Y001924D02*
X003674Y001924D01*
X003674Y001765D02*
X003691Y001765D01*
X003357Y001765D02*
X003353Y001765D01*
X002947Y001692D02*
X002865Y001774D01*
X002865Y002362D01*
X002947Y002444D01*
X002990Y002444D01*
X002984Y002447D01*
X002906Y002524D01*
X002902Y002399D02*
X002627Y002399D01*
X002618Y002415D02*
X002641Y002374D01*
X002654Y002328D01*
X002654Y002068D01*
X002365Y002068D01*
X002077Y002068D01*
X002077Y001808D01*
X002089Y001762D01*
X002113Y001721D01*
X002147Y001688D01*
X002188Y001664D01*
X002233Y001652D01*
X002365Y001652D01*
X002365Y002068D01*
X002365Y002068D01*
X002365Y002068D01*
X002077Y002068D01*
X002077Y002328D01*
X002089Y002374D01*
X002113Y002415D01*
X002147Y002448D01*
X002188Y002472D01*
X002233Y002484D01*
X002365Y002484D01*
X002365Y002068D01*
X002365Y002068D01*
X002365Y001652D01*
X002497Y001652D01*
X002543Y001664D01*
X002584Y001688D01*
X002618Y001721D01*
X002641Y001762D01*
X002654Y001808D01*
X002654Y002068D01*
X002365Y002068D01*
X002365Y002068D01*
X002365Y002484D01*
X002497Y002484D01*
X002543Y002472D01*
X002584Y002448D01*
X002618Y002415D01*
X002365Y002399D02*
X002365Y002399D01*
X002365Y002241D02*
X002365Y002241D01*
X002365Y002082D02*
X002365Y002082D01*
X002365Y001924D02*
X002365Y001924D01*
X002365Y001765D02*
X002365Y001765D01*
X002089Y001765D02*
X001323Y001765D01*
X001229Y001924D02*
X001459Y001924D01*
X001396Y002082D02*
X001283Y002082D01*
X001283Y002241D02*
X001396Y002241D01*
X001396Y002399D02*
X001283Y002399D01*
X001283Y002558D02*
X001396Y002558D01*
X001991Y002399D02*
X002104Y002399D01*
X002077Y002241D02*
X001991Y002241D01*
X001991Y002082D02*
X002077Y002082D01*
X002077Y001924D02*
X001929Y001924D01*
X002654Y001924D02*
X002865Y001924D01*
X002874Y001765D02*
X002642Y001765D01*
X002654Y002082D02*
X002865Y002082D01*
X002865Y002241D02*
X002654Y002241D01*
X001924Y003033D02*
X001901Y003033D01*
X005064Y003509D02*
X005376Y003509D01*
X005307Y003667D02*
X005131Y003667D01*
X005131Y003826D02*
X005307Y003826D01*
X005322Y003977D02*
X005349Y004025D01*
X005354Y004030D01*
X005294Y004005D01*
X005185Y004005D01*
X005097Y004042D01*
X005085Y004030D01*
X005131Y003984D01*
X008473Y002875D02*
X008480Y002875D01*
X008473Y002716D02*
X008480Y002716D01*
X011502Y001010D02*
X011611Y000901D01*
X011920Y001210D01*
X012119Y001210D01*
X012119Y000700D01*
X012159Y000700D01*
X012159Y001210D01*
X012359Y001210D01*
X012669Y000900D01*
X012669Y000700D01*
X012159Y000700D01*
X012159Y000660D01*
X012669Y000660D01*
X012669Y000460D01*
X012619Y000410D01*
X013409Y000410D01*
X013409Y001547D01*
X013283Y001547D01*
X013283Y002314D01*
X013276Y002314D01*
X013276Y001547D01*
X013089Y001547D01*
X013043Y001560D01*
X013002Y001583D01*
X012998Y001587D01*
X012562Y001587D01*
X012541Y001608D01*
X012521Y001587D01*
X012287Y001587D01*
X011710Y001010D01*
X011502Y001010D01*
X011540Y000973D02*
X011682Y000973D01*
X011831Y001131D02*
X011841Y001131D01*
X011989Y001290D02*
X013409Y001290D01*
X013409Y001131D02*
X012438Y001131D01*
X012159Y001131D02*
X012119Y001131D01*
X012119Y000973D02*
X012159Y000973D01*
X012159Y000814D02*
X012119Y000814D01*
X012596Y000973D02*
X013409Y000973D01*
X013409Y000814D02*
X012669Y000814D01*
X012669Y000656D02*
X013409Y000656D01*
X013409Y000497D02*
X012669Y000497D01*
X012148Y001448D02*
X013409Y001448D01*
X013283Y001607D02*
X013276Y001607D01*
X013276Y001765D02*
X013283Y001765D01*
X013276Y001924D02*
X013283Y001924D01*
X013276Y002082D02*
X013283Y002082D01*
X013276Y002241D02*
X013283Y002241D01*
X013283Y002321D02*
X013276Y002321D01*
X013276Y003088D01*
X013199Y003088D01*
X013214Y003125D01*
X013214Y003235D01*
X013173Y003336D01*
X013095Y003413D01*
X012994Y003455D01*
X012914Y003455D01*
X012417Y003889D01*
X014429Y005901D01*
X014429Y006059D01*
X014429Y006331D01*
X014489Y006331D01*
X014510Y006352D01*
X014531Y006331D01*
X014966Y006331D01*
X014970Y006327D01*
X015011Y006304D01*
X015057Y006291D01*
X015244Y006291D01*
X015244Y007058D01*
X015252Y007058D01*
X015252Y006291D01*
X015409Y006291D01*
X015409Y004710D01*
X013456Y004710D01*
X013409Y004663D01*
X013409Y003088D01*
X013283Y003088D01*
X013283Y002321D01*
X013276Y002399D02*
X013283Y002399D01*
X013276Y002558D02*
X013283Y002558D01*
X013276Y002716D02*
X013283Y002716D01*
X013276Y002875D02*
X013283Y002875D01*
X013276Y003033D02*
X013283Y003033D01*
X013214Y003192D02*
X013409Y003192D01*
X013409Y003350D02*
X013158Y003350D01*
X013409Y003509D02*
X012853Y003509D01*
X012671Y003667D02*
X013409Y003667D01*
X013409Y003826D02*
X012490Y003826D01*
X012512Y003984D02*
X013409Y003984D01*
X013409Y004143D02*
X012671Y004143D01*
X012829Y004301D02*
X013409Y004301D01*
X013409Y004460D02*
X012988Y004460D01*
X013146Y004618D02*
X013409Y004618D01*
X013305Y004777D02*
X015409Y004777D01*
X015409Y004935D02*
X013463Y004935D01*
X013622Y005094D02*
X015409Y005094D01*
X015409Y005252D02*
X013780Y005252D01*
X013939Y005411D02*
X015409Y005411D01*
X015409Y005569D02*
X014097Y005569D01*
X014256Y005728D02*
X015409Y005728D01*
X015409Y005886D02*
X014414Y005886D01*
X014429Y006045D02*
X015409Y006045D01*
X015409Y006203D02*
X014429Y006203D01*
X014049Y006203D02*
X013603Y006203D01*
X013731Y006331D02*
X013997Y006331D01*
X014018Y006352D01*
X014039Y006331D01*
X014049Y006331D01*
X014049Y006059D01*
X012388Y004398D01*
X012373Y004436D01*
X012309Y004499D01*
X012309Y004910D01*
X013731Y006331D01*
X013444Y006045D02*
X014035Y006045D01*
X013877Y005886D02*
X013286Y005886D01*
X013127Y005728D02*
X013718Y005728D01*
X013560Y005569D02*
X012969Y005569D01*
X012810Y005411D02*
X013401Y005411D01*
X013243Y005252D02*
X012652Y005252D01*
X012493Y005094D02*
X013084Y005094D01*
X012926Y004935D02*
X012335Y004935D01*
X012309Y004777D02*
X012767Y004777D01*
X012609Y004618D02*
X012309Y004618D01*
X012349Y004460D02*
X012450Y004460D01*
X010764Y005626D02*
X010694Y005655D01*
X010585Y005655D01*
X010484Y005613D01*
X010421Y005550D01*
X010409Y005550D01*
X010409Y006331D01*
X010537Y006331D01*
X010541Y006327D01*
X010582Y006304D01*
X010628Y006291D01*
X010815Y006291D01*
X010815Y007058D01*
X010823Y007058D01*
X010823Y006291D01*
X011010Y006291D01*
X011056Y006304D01*
X011097Y006327D01*
X011101Y006331D01*
X011149Y006331D01*
X011149Y005832D01*
X011094Y005855D01*
X010985Y005855D01*
X010884Y005813D01*
X010806Y005736D01*
X010764Y005635D01*
X010764Y005626D01*
X010803Y005728D02*
X010409Y005728D01*
X010409Y005569D02*
X010440Y005569D01*
X010409Y005886D02*
X011149Y005886D01*
X011149Y006045D02*
X010409Y006045D01*
X010409Y006203D02*
X011149Y006203D01*
X010823Y006362D02*
X010815Y006362D01*
X010815Y006520D02*
X010823Y006520D01*
X010815Y006679D02*
X010823Y006679D01*
X010815Y006837D02*
X010823Y006837D01*
X010815Y006996D02*
X010823Y006996D01*
X010823Y007066D02*
X010815Y007066D01*
X010815Y007832D01*
X010628Y007832D01*
X010582Y007820D01*
X010541Y007796D01*
X010537Y007792D01*
X010292Y007792D01*
X010505Y008005D01*
X010594Y008005D01*
X010695Y008047D01*
X010773Y008124D01*
X010814Y008225D01*
X010814Y008312D01*
X010936Y008190D01*
X011342Y008190D01*
X011366Y008213D01*
X011469Y008110D01*
X011569Y008010D01*
X013473Y008010D01*
X013485Y008005D01*
X013594Y008005D01*
X013695Y008047D01*
X013763Y008114D01*
X013763Y008064D01*
X014121Y008064D01*
X014121Y008358D01*
X014158Y008358D01*
X014158Y008064D01*
X014121Y008064D01*
X014121Y008027D01*
X013763Y008027D01*
X013763Y007805D01*
X013766Y007792D01*
X013546Y007792D01*
X013526Y007772D01*
X013505Y007792D01*
X013054Y007792D01*
X013034Y007772D01*
X013013Y007792D01*
X012562Y007792D01*
X012541Y007772D01*
X012521Y007792D01*
X012070Y007792D01*
X012049Y007772D01*
X012029Y007792D01*
X011578Y007792D01*
X011557Y007772D01*
X011536Y007792D01*
X011101Y007792D01*
X011097Y007796D01*
X011056Y007820D01*
X011010Y007832D01*
X010823Y007832D01*
X010823Y007066D01*
X010815Y007154D02*
X010823Y007154D01*
X010815Y007313D02*
X010823Y007313D01*
X010815Y007471D02*
X010823Y007471D01*
X010815Y007630D02*
X010823Y007630D01*
X010815Y007788D02*
X010823Y007788D01*
X010753Y008105D02*
X011474Y008105D01*
X011541Y007788D02*
X011573Y007788D01*
X012033Y007788D02*
X012066Y007788D01*
X012525Y007788D02*
X012558Y007788D01*
X013017Y007788D02*
X013050Y007788D01*
X013509Y007788D02*
X013542Y007788D01*
X013763Y007947D02*
X010446Y007947D01*
X010814Y008264D02*
X010863Y008264D01*
X013562Y008950D02*
X013803Y008950D01*
X013803Y008440D01*
X013835Y008408D01*
X013832Y008406D01*
X013799Y008373D01*
X013773Y008436D01*
X013695Y008513D01*
X013629Y008540D01*
X013629Y008883D01*
X013562Y008950D01*
X013615Y008898D02*
X013803Y008898D01*
X013803Y008739D02*
X013629Y008739D01*
X013629Y008581D02*
X013803Y008581D01*
X013778Y008422D02*
X013821Y008422D01*
X014121Y008264D02*
X014158Y008264D01*
X014158Y008105D02*
X014121Y008105D01*
X014121Y008027D02*
X014158Y008027D01*
X014158Y007792D01*
X014121Y007792D01*
X014121Y008027D01*
X014121Y007947D02*
X014158Y007947D01*
X013763Y008105D02*
X013753Y008105D01*
X014921Y008027D02*
X014921Y007792D01*
X014958Y007792D01*
X014958Y008027D01*
X014958Y008064D01*
X015316Y008064D01*
X015316Y008286D01*
X015304Y008331D01*
X015280Y008372D01*
X015247Y008406D01*
X015244Y008408D01*
X015276Y008440D01*
X015276Y008950D01*
X015409Y008950D01*
X015409Y007832D01*
X015316Y007832D01*
X015316Y008027D01*
X014958Y008027D01*
X014921Y008027D01*
X014921Y007947D02*
X014958Y007947D01*
X015316Y007947D02*
X015409Y007947D01*
X015409Y008105D02*
X015316Y008105D01*
X015316Y008264D02*
X015409Y008264D01*
X015409Y008422D02*
X015258Y008422D01*
X015276Y008581D02*
X015409Y008581D01*
X015409Y008739D02*
X015276Y008739D01*
X015276Y008898D02*
X015409Y008898D01*
X015252Y006996D02*
X015244Y006996D01*
X015244Y006837D02*
X015252Y006837D01*
X015244Y006679D02*
X015252Y006679D01*
X015244Y006520D02*
X015252Y006520D01*
X015244Y006362D02*
X015252Y006362D01*
X012543Y001607D02*
X012540Y001607D01*
D29*
X012339Y001880D02*
X012239Y002280D01*
X012295Y002318D01*
X012239Y002380D01*
X012239Y002680D01*
X012139Y003080D01*
X011739Y003080D01*
X011139Y003680D01*
X011239Y003980D02*
X010239Y003980D01*
X009539Y004180D02*
X010839Y005180D01*
X011039Y005380D01*
X011039Y005580D01*
X010639Y005380D02*
X010139Y005380D01*
X009539Y004780D01*
X009239Y004580D02*
X009339Y005580D01*
X009739Y005880D01*
X009639Y006180D01*
X009339Y005980D02*
X008539Y005980D01*
X008476Y005920D01*
X008439Y005480D02*
X008476Y005428D01*
X008439Y005480D02*
X008039Y005380D01*
X007439Y006080D01*
X003939Y006180D01*
X003639Y005880D01*
X003639Y005480D01*
X003039Y005480D01*
X002139Y006380D01*
X003239Y006980D02*
X003239Y007580D01*
X003539Y007880D01*
X005539Y007880D01*
X005939Y007480D01*
X005939Y007080D01*
X006639Y006380D01*
X007539Y006380D01*
X007939Y006480D02*
X007539Y006880D01*
X007339Y006880D01*
X007239Y006980D01*
X007239Y007580D01*
X006839Y007980D01*
X005839Y007980D01*
X005139Y008680D01*
X004539Y008280D02*
X004339Y008080D01*
X002839Y008080D01*
X002039Y007280D01*
X001774Y007280D01*
X001739Y007280D01*
X001739Y008080D01*
X001139Y008680D01*
X001105Y007280D02*
X001039Y007280D01*
X001039Y006780D01*
X000939Y006680D01*
X000939Y005980D01*
X001239Y005680D01*
X002489Y004936D02*
X002539Y004880D01*
X002739Y004880D01*
X002939Y005080D01*
X003339Y005080D01*
X003339Y005145D01*
X002839Y004580D02*
X002739Y004680D01*
X002489Y004680D01*
X002139Y004680D01*
X001939Y004480D01*
X002839Y004580D02*
X003339Y004580D01*
X003339Y004515D01*
X003339Y003880D02*
X002939Y003880D01*
X003339Y003880D02*
X003339Y003845D01*
X004440Y004280D02*
X004839Y004280D01*
X005239Y004680D01*
X005239Y004280D02*
X006039Y004280D01*
X006039Y005280D02*
X006439Y005280D01*
X006839Y005680D01*
X007639Y004980D02*
X008439Y004980D01*
X008476Y004936D01*
X008539Y004480D02*
X008476Y004444D01*
X008539Y004480D02*
X008839Y004480D01*
X009239Y004580D01*
X009539Y005180D02*
X009739Y005480D01*
X010039Y005780D01*
X009839Y006980D01*
X009835Y007062D01*
X009839Y007080D01*
X009839Y007580D01*
X010539Y008280D01*
X011139Y008680D02*
X011639Y008180D01*
X013439Y008180D01*
X013539Y008280D01*
X013772Y007062D02*
X013739Y006980D01*
X013739Y006580D01*
X012139Y004980D01*
X012139Y004280D01*
X011239Y003980D02*
X012439Y003180D01*
X012739Y002880D01*
X012739Y002380D01*
X012787Y002318D01*
X012339Y001880D02*
X011639Y001180D01*
X009639Y001180D01*
X009139Y000680D01*
X008839Y001380D02*
X008139Y000680D01*
X008039Y001580D02*
X007139Y000680D01*
X006439Y001380D02*
X002839Y001380D01*
X002139Y000680D01*
X003139Y002680D02*
X003639Y002680D01*
X003682Y002695D01*
X006439Y001380D02*
X007539Y002480D01*
X007539Y002980D01*
X008539Y003880D02*
X008476Y003952D01*
X008539Y003880D02*
X009339Y003880D01*
X009439Y003180D02*
X009439Y002380D01*
X009343Y002318D01*
X009835Y002318D02*
X009839Y002380D01*
X009839Y003180D01*
X010239Y003180D02*
X010239Y002380D01*
X010327Y002318D01*
X010739Y002380D02*
X010819Y002318D01*
X010739Y002380D02*
X010739Y003180D01*
X011239Y002280D02*
X011311Y002318D01*
X011239Y002280D02*
X011339Y001880D01*
X011039Y001580D01*
X008039Y001580D01*
X008839Y001380D02*
X011339Y001380D01*
X011839Y001880D01*
X011739Y002280D01*
X011803Y002318D01*
X012039Y005280D02*
X011539Y005280D01*
X012039Y005280D02*
X013239Y006480D01*
X013239Y006980D01*
X013280Y007062D01*
X012787Y007062D02*
X012739Y006980D01*
X012739Y006180D01*
X012239Y005780D01*
X012039Y005680D01*
X011639Y005880D01*
X011839Y006180D02*
X011739Y006980D01*
X011803Y007062D01*
X012239Y006980D02*
X012295Y007062D01*
X012239Y006980D02*
X012339Y006280D01*
X012239Y006080D01*
X010327Y007062D02*
X010239Y006980D01*
X010239Y005480D01*
X010139Y005380D01*
X008476Y006412D02*
X008439Y006480D01*
X007939Y006480D01*
X008639Y007080D02*
X007939Y007780D01*
X007239Y007780D01*
X006339Y008680D01*
X006139Y008680D01*
X007139Y008680D02*
X007839Y007980D01*
X009339Y007980D01*
X009639Y008280D01*
X008039Y007280D02*
X007574Y007280D01*
X006905Y007280D02*
X006353Y007280D01*
X006039Y006480D02*
X004639Y006480D01*
X004126Y007280D02*
X003574Y007280D01*
X003239Y006980D02*
X003339Y006880D01*
X003339Y005815D01*
X008639Y007080D02*
X009339Y007080D01*
X009343Y007062D01*
M02*
