G75*
%MOIN*%
%OFA0B0*%
%FSLAX24Y24*%
%IPPOS*%
%LPD*%
%AMOC8*
5,1,8,0,0,1.08239X$1,22.5*
%
%ADD10C,0.0080*%
%ADD11C,0.0000*%
D10*
X001050Y004500D02*
X001050Y014500D01*
X010050Y014500D01*
X010050Y004500D01*
X001050Y004500D01*
D11*
X001400Y005500D02*
X001402Y005550D01*
X001408Y005600D01*
X001418Y005650D01*
X001431Y005698D01*
X001448Y005746D01*
X001469Y005792D01*
X001493Y005836D01*
X001521Y005878D01*
X001552Y005918D01*
X001586Y005955D01*
X001623Y005990D01*
X001662Y006021D01*
X001703Y006050D01*
X001747Y006075D01*
X001793Y006097D01*
X001840Y006115D01*
X001888Y006129D01*
X001937Y006140D01*
X001987Y006147D01*
X002037Y006150D01*
X002088Y006149D01*
X002138Y006144D01*
X002188Y006135D01*
X002236Y006123D01*
X002284Y006106D01*
X002330Y006086D01*
X002375Y006063D01*
X002418Y006036D01*
X002458Y006006D01*
X002496Y005973D01*
X002531Y005937D01*
X002564Y005898D01*
X002593Y005857D01*
X002619Y005814D01*
X002642Y005769D01*
X002661Y005722D01*
X002676Y005674D01*
X002688Y005625D01*
X002696Y005575D01*
X002700Y005525D01*
X002700Y005475D01*
X002696Y005425D01*
X002688Y005375D01*
X002676Y005326D01*
X002661Y005278D01*
X002642Y005231D01*
X002619Y005186D01*
X002593Y005143D01*
X002564Y005102D01*
X002531Y005063D01*
X002496Y005027D01*
X002458Y004994D01*
X002418Y004964D01*
X002375Y004937D01*
X002330Y004914D01*
X002284Y004894D01*
X002236Y004877D01*
X002188Y004865D01*
X002138Y004856D01*
X002088Y004851D01*
X002037Y004850D01*
X001987Y004853D01*
X001937Y004860D01*
X001888Y004871D01*
X001840Y004885D01*
X001793Y004903D01*
X001747Y004925D01*
X001703Y004950D01*
X001662Y004979D01*
X001623Y005010D01*
X001586Y005045D01*
X001552Y005082D01*
X001521Y005122D01*
X001493Y005164D01*
X001469Y005208D01*
X001448Y005254D01*
X001431Y005302D01*
X001418Y005350D01*
X001408Y005400D01*
X001402Y005450D01*
X001400Y005500D01*
X008400Y005500D02*
X008402Y005550D01*
X008408Y005600D01*
X008418Y005650D01*
X008431Y005698D01*
X008448Y005746D01*
X008469Y005792D01*
X008493Y005836D01*
X008521Y005878D01*
X008552Y005918D01*
X008586Y005955D01*
X008623Y005990D01*
X008662Y006021D01*
X008703Y006050D01*
X008747Y006075D01*
X008793Y006097D01*
X008840Y006115D01*
X008888Y006129D01*
X008937Y006140D01*
X008987Y006147D01*
X009037Y006150D01*
X009088Y006149D01*
X009138Y006144D01*
X009188Y006135D01*
X009236Y006123D01*
X009284Y006106D01*
X009330Y006086D01*
X009375Y006063D01*
X009418Y006036D01*
X009458Y006006D01*
X009496Y005973D01*
X009531Y005937D01*
X009564Y005898D01*
X009593Y005857D01*
X009619Y005814D01*
X009642Y005769D01*
X009661Y005722D01*
X009676Y005674D01*
X009688Y005625D01*
X009696Y005575D01*
X009700Y005525D01*
X009700Y005475D01*
X009696Y005425D01*
X009688Y005375D01*
X009676Y005326D01*
X009661Y005278D01*
X009642Y005231D01*
X009619Y005186D01*
X009593Y005143D01*
X009564Y005102D01*
X009531Y005063D01*
X009496Y005027D01*
X009458Y004994D01*
X009418Y004964D01*
X009375Y004937D01*
X009330Y004914D01*
X009284Y004894D01*
X009236Y004877D01*
X009188Y004865D01*
X009138Y004856D01*
X009088Y004851D01*
X009037Y004850D01*
X008987Y004853D01*
X008937Y004860D01*
X008888Y004871D01*
X008840Y004885D01*
X008793Y004903D01*
X008747Y004925D01*
X008703Y004950D01*
X008662Y004979D01*
X008623Y005010D01*
X008586Y005045D01*
X008552Y005082D01*
X008521Y005122D01*
X008493Y005164D01*
X008469Y005208D01*
X008448Y005254D01*
X008431Y005302D01*
X008418Y005350D01*
X008408Y005400D01*
X008402Y005450D01*
X008400Y005500D01*
X008400Y013500D02*
X008402Y013550D01*
X008408Y013600D01*
X008418Y013650D01*
X008431Y013698D01*
X008448Y013746D01*
X008469Y013792D01*
X008493Y013836D01*
X008521Y013878D01*
X008552Y013918D01*
X008586Y013955D01*
X008623Y013990D01*
X008662Y014021D01*
X008703Y014050D01*
X008747Y014075D01*
X008793Y014097D01*
X008840Y014115D01*
X008888Y014129D01*
X008937Y014140D01*
X008987Y014147D01*
X009037Y014150D01*
X009088Y014149D01*
X009138Y014144D01*
X009188Y014135D01*
X009236Y014123D01*
X009284Y014106D01*
X009330Y014086D01*
X009375Y014063D01*
X009418Y014036D01*
X009458Y014006D01*
X009496Y013973D01*
X009531Y013937D01*
X009564Y013898D01*
X009593Y013857D01*
X009619Y013814D01*
X009642Y013769D01*
X009661Y013722D01*
X009676Y013674D01*
X009688Y013625D01*
X009696Y013575D01*
X009700Y013525D01*
X009700Y013475D01*
X009696Y013425D01*
X009688Y013375D01*
X009676Y013326D01*
X009661Y013278D01*
X009642Y013231D01*
X009619Y013186D01*
X009593Y013143D01*
X009564Y013102D01*
X009531Y013063D01*
X009496Y013027D01*
X009458Y012994D01*
X009418Y012964D01*
X009375Y012937D01*
X009330Y012914D01*
X009284Y012894D01*
X009236Y012877D01*
X009188Y012865D01*
X009138Y012856D01*
X009088Y012851D01*
X009037Y012850D01*
X008987Y012853D01*
X008937Y012860D01*
X008888Y012871D01*
X008840Y012885D01*
X008793Y012903D01*
X008747Y012925D01*
X008703Y012950D01*
X008662Y012979D01*
X008623Y013010D01*
X008586Y013045D01*
X008552Y013082D01*
X008521Y013122D01*
X008493Y013164D01*
X008469Y013208D01*
X008448Y013254D01*
X008431Y013302D01*
X008418Y013350D01*
X008408Y013400D01*
X008402Y013450D01*
X008400Y013500D01*
X001400Y013500D02*
X001402Y013550D01*
X001408Y013600D01*
X001418Y013650D01*
X001431Y013698D01*
X001448Y013746D01*
X001469Y013792D01*
X001493Y013836D01*
X001521Y013878D01*
X001552Y013918D01*
X001586Y013955D01*
X001623Y013990D01*
X001662Y014021D01*
X001703Y014050D01*
X001747Y014075D01*
X001793Y014097D01*
X001840Y014115D01*
X001888Y014129D01*
X001937Y014140D01*
X001987Y014147D01*
X002037Y014150D01*
X002088Y014149D01*
X002138Y014144D01*
X002188Y014135D01*
X002236Y014123D01*
X002284Y014106D01*
X002330Y014086D01*
X002375Y014063D01*
X002418Y014036D01*
X002458Y014006D01*
X002496Y013973D01*
X002531Y013937D01*
X002564Y013898D01*
X002593Y013857D01*
X002619Y013814D01*
X002642Y013769D01*
X002661Y013722D01*
X002676Y013674D01*
X002688Y013625D01*
X002696Y013575D01*
X002700Y013525D01*
X002700Y013475D01*
X002696Y013425D01*
X002688Y013375D01*
X002676Y013326D01*
X002661Y013278D01*
X002642Y013231D01*
X002619Y013186D01*
X002593Y013143D01*
X002564Y013102D01*
X002531Y013063D01*
X002496Y013027D01*
X002458Y012994D01*
X002418Y012964D01*
X002375Y012937D01*
X002330Y012914D01*
X002284Y012894D01*
X002236Y012877D01*
X002188Y012865D01*
X002138Y012856D01*
X002088Y012851D01*
X002037Y012850D01*
X001987Y012853D01*
X001937Y012860D01*
X001888Y012871D01*
X001840Y012885D01*
X001793Y012903D01*
X001747Y012925D01*
X001703Y012950D01*
X001662Y012979D01*
X001623Y013010D01*
X001586Y013045D01*
X001552Y013082D01*
X001521Y013122D01*
X001493Y013164D01*
X001469Y013208D01*
X001448Y013254D01*
X001431Y013302D01*
X001418Y013350D01*
X001408Y013400D01*
X001402Y013450D01*
X001400Y013500D01*
M02*
