%
M48
M72
T01C0.0150
T02C0.0200
T03C0.0400
T04C0.1300
%
T01
X3950Y7550
X4550Y8050
X2850Y8500
X4900Y9000
X4350Y9550
X6280Y12130
T02
X6800Y12010
X7550Y12000
X6330Y10990
X5400Y10500
X5050Y10500
X4700Y10500
X2900Y11100
X5090Y11800
X1550Y10000
X5650Y9470
X6400Y8600
X8550Y9500
X6250Y7000
X5500Y6900
X4050Y6250
X2500Y7570
X7800Y6500
T03
X5050Y5000
X6050Y5000
X7050Y9000
X7050Y10000
X7050Y14000
X6050Y14000
X5050Y14000
X4050Y14000
T04
X2050Y13500
X9050Y13500
X9050Y5500
X2050Y5500
M30
