G75*
%MOIN*%
%OFA0B0*%
%FSLAX24Y24*%
%IPPOS*%
%LPD*%
%AMOC8*
5,1,8,0,0,1.08239X$1,22.5*
%
%ADD10C,0.0090*%
%ADD11C,0.0740*%
%ADD12R,0.0500X0.0250*%
%ADD13C,0.0400*%
%ADD14C,0.0080*%
%ADD15C,0.0350*%
%ADD16C,0.0280*%
%ADD17C,0.0100*%
%ADD18C,0.0240*%
D10*
X009305Y008919D02*
X009373Y008851D01*
X009441Y008851D01*
X009510Y008919D01*
X009578Y008851D01*
X009647Y008851D01*
X009715Y008919D01*
X009715Y009056D01*
X009647Y009124D01*
X009510Y008987D02*
X009510Y008919D01*
X009305Y008919D02*
X009305Y009056D01*
X009373Y009124D01*
X009715Y009311D02*
X009715Y009585D01*
X009715Y009448D02*
X009305Y009448D01*
X009441Y009585D01*
X009441Y009771D02*
X009715Y009908D01*
X009441Y010045D01*
D11*
X007050Y010000D03*
X007050Y009000D03*
X006050Y005000D03*
X005050Y005000D03*
X005050Y014000D03*
X004050Y014000D03*
X006050Y014000D03*
X007050Y014000D03*
D12*
X004550Y007677D03*
X004550Y007323D03*
D13*
X005500Y006900D03*
X006250Y007000D03*
X007800Y006500D03*
X004050Y006250D03*
X002500Y007570D03*
X006400Y008600D03*
X005650Y009470D03*
X005400Y010500D03*
X005050Y010500D03*
X004700Y010500D03*
X006330Y010990D03*
X005090Y011800D03*
X006800Y012010D03*
X007550Y012000D03*
X002900Y011100D03*
X001550Y010000D03*
X008550Y009500D03*
D14*
X005600Y006040D02*
X005600Y004700D01*
X008557Y004700D01*
X008327Y004893D01*
X008327Y004893D01*
X008163Y005177D01*
X008163Y005177D01*
X008106Y005500D01*
X008106Y005500D01*
X008163Y005823D01*
X008163Y005823D01*
X008327Y006107D01*
X008327Y006107D01*
X008578Y006318D01*
X008578Y006318D01*
X008886Y006430D01*
X009214Y006430D01*
X009522Y006318D01*
X009522Y006318D01*
X009773Y006107D01*
X009773Y006107D01*
X009850Y005974D01*
X009850Y008764D01*
X009733Y008647D01*
X009732Y008646D01*
X009732Y008646D01*
X009647Y008646D01*
X009562Y008646D01*
X009562Y008646D01*
X009288Y008646D01*
X009168Y008766D01*
X009100Y008834D01*
X009100Y008971D01*
X009100Y008971D01*
X009100Y009055D01*
X009100Y009141D01*
X009211Y009252D01*
X009100Y009363D01*
X009100Y009533D01*
X009220Y009653D01*
X009220Y009653D01*
X009254Y009687D01*
X009220Y009756D01*
X009271Y009908D01*
X009220Y010061D01*
X009296Y010213D01*
X009457Y010266D01*
X009794Y010098D01*
X009850Y010079D01*
X009850Y013026D01*
X009773Y012893D01*
X009773Y012893D01*
X009522Y012682D01*
X009522Y012682D01*
X009214Y012570D01*
X008886Y012570D01*
X008578Y012682D01*
X008578Y012682D01*
X008327Y012893D01*
X008327Y012893D01*
X008163Y013177D01*
X008163Y013177D01*
X008106Y013500D01*
X008106Y013500D01*
X008163Y013823D01*
X008163Y013823D01*
X008327Y014107D01*
X008327Y014107D01*
X008557Y014300D01*
X007499Y014300D01*
X007580Y014105D01*
X007580Y013895D01*
X007499Y013700D01*
X007400Y013600D01*
X007400Y012328D01*
X007478Y012360D01*
X007622Y012360D01*
X007754Y012305D01*
X007855Y012204D01*
X007910Y012072D01*
X007910Y011928D01*
X007855Y011796D01*
X007760Y011701D01*
X007760Y011283D01*
X006010Y009533D01*
X006010Y009398D01*
X005955Y009266D01*
X005854Y009165D01*
X005722Y009110D01*
X005578Y009110D01*
X005446Y009165D01*
X005345Y009266D01*
X005290Y009398D01*
X005290Y009542D01*
X005335Y009650D01*
X004733Y009650D01*
X004685Y009602D01*
X004685Y009483D01*
X004634Y009360D01*
X004540Y009266D01*
X004417Y009215D01*
X004283Y009215D01*
X004160Y009266D01*
X004066Y009360D01*
X004015Y009483D01*
X004015Y009617D01*
X004066Y009740D01*
X004160Y009834D01*
X004283Y009885D01*
X004402Y009885D01*
X004567Y010050D01*
X005617Y010050D01*
X007000Y011433D01*
X007000Y011703D01*
X006872Y011650D01*
X006737Y011650D01*
X006677Y011590D01*
X005389Y011590D01*
X005294Y011495D01*
X005162Y011440D01*
X005018Y011440D01*
X004886Y011495D01*
X004785Y011596D01*
X004730Y011728D01*
X004730Y011872D01*
X004785Y012004D01*
X004886Y012105D01*
X005018Y012160D01*
X005162Y012160D01*
X005294Y012105D01*
X005389Y012010D01*
X006440Y012010D01*
X006440Y012082D01*
X006495Y012214D01*
X006596Y012315D01*
X006728Y012370D01*
X006872Y012370D01*
X007000Y012317D01*
X007000Y013470D01*
X006945Y013470D01*
X006750Y013551D01*
X006601Y013700D01*
X006520Y013895D01*
X006520Y014105D01*
X006601Y014300D01*
X005499Y014300D01*
X005580Y014105D01*
X005580Y013895D01*
X005499Y013700D01*
X005350Y013551D01*
X005155Y013470D01*
X004945Y013470D01*
X004750Y013551D01*
X004601Y013700D01*
X004550Y013822D01*
X004499Y013700D01*
X004350Y013551D01*
X004155Y013470D01*
X003945Y013470D01*
X003844Y013512D01*
X003650Y013317D01*
X003650Y009200D01*
X004626Y009200D01*
X004710Y009284D01*
X004833Y009335D01*
X004967Y009335D01*
X005090Y009284D01*
X005184Y009190D01*
X005235Y009067D01*
X005235Y008933D01*
X005184Y008810D01*
X005154Y008780D01*
X006085Y008780D01*
X006095Y008804D01*
X006196Y008905D01*
X006328Y008960D01*
X006472Y008960D01*
X006520Y008940D01*
X006520Y009105D01*
X006601Y009300D01*
X006750Y009449D01*
X006945Y009530D01*
X007155Y009530D01*
X007350Y009449D01*
X007499Y009300D01*
X007580Y009105D01*
X007580Y008895D01*
X007499Y008700D01*
X007350Y008551D01*
X007155Y008470D01*
X006945Y008470D01*
X006760Y008546D01*
X006760Y008528D01*
X006705Y008396D01*
X006604Y008295D01*
X006472Y008240D01*
X006404Y008240D01*
X006356Y008220D01*
X004842Y008220D01*
X004885Y008117D01*
X004885Y007983D01*
X004873Y007955D01*
X004960Y007868D01*
X004960Y007132D01*
X004866Y007038D01*
X004234Y007038D01*
X004159Y007113D01*
X004090Y007113D01*
X003988Y007215D01*
X003883Y007215D01*
X003760Y007266D01*
X003666Y007360D01*
X003615Y007483D01*
X002328Y007483D01*
X002250Y007550D02*
X002250Y008054D01*
X002463Y007841D01*
X002541Y007763D01*
X002644Y007720D01*
X003606Y007720D01*
X003675Y007749D01*
X003666Y007740D01*
X003615Y007617D01*
X003615Y007483D01*
X003615Y007562D02*
X002250Y007562D01*
X002250Y007550D02*
X003350Y006600D01*
X003954Y006600D01*
X003978Y006610D01*
X004122Y006610D01*
X004146Y006600D01*
X005600Y006600D01*
X005600Y006460D01*
X005913Y006460D01*
X006040Y006587D01*
X006040Y006701D01*
X005945Y006796D01*
X005890Y006928D01*
X005890Y007072D01*
X005945Y007204D01*
X006046Y007305D01*
X006178Y007360D01*
X006322Y007360D01*
X006454Y007305D01*
X006555Y007204D01*
X006610Y007072D01*
X006610Y006928D01*
X006555Y006796D01*
X006460Y006701D01*
X006460Y006413D01*
X006210Y006163D01*
X006087Y006040D01*
X005600Y006040D01*
X005600Y005992D02*
X008260Y005992D01*
X008305Y006070D02*
X006117Y006070D01*
X006195Y006149D02*
X008376Y006149D01*
X008327Y006107D02*
X008327Y006107D01*
X008470Y006227D02*
X006274Y006227D01*
X006352Y006306D02*
X008563Y006306D01*
X008760Y006384D02*
X006431Y006384D01*
X006460Y006463D02*
X009850Y006463D01*
X009850Y006541D02*
X006460Y006541D01*
X006460Y006620D02*
X009850Y006620D01*
X009850Y006698D02*
X006460Y006698D01*
X006536Y006777D02*
X009850Y006777D01*
X009850Y006855D02*
X006580Y006855D01*
X006610Y006934D02*
X009850Y006934D01*
X009850Y007012D02*
X006610Y007012D01*
X006602Y007091D02*
X009850Y007091D01*
X009850Y007169D02*
X006570Y007169D01*
X006512Y007248D02*
X009850Y007248D01*
X009850Y007326D02*
X006404Y007326D01*
X006096Y007326D02*
X004960Y007326D01*
X004960Y007248D02*
X005988Y007248D01*
X005930Y007169D02*
X004960Y007169D01*
X004919Y007091D02*
X005898Y007091D01*
X005890Y007012D02*
X002873Y007012D01*
X002964Y006934D02*
X005890Y006934D01*
X005920Y006855D02*
X003055Y006855D01*
X003146Y006777D02*
X005964Y006777D01*
X006040Y006698D02*
X003237Y006698D01*
X003327Y006620D02*
X006040Y006620D01*
X005994Y006541D02*
X005600Y006541D01*
X005600Y006463D02*
X005916Y006463D01*
X005600Y005913D02*
X008215Y005913D01*
X008169Y005835D02*
X005600Y005835D01*
X005600Y005756D02*
X008151Y005756D01*
X008137Y005678D02*
X005600Y005678D01*
X005600Y005599D02*
X008123Y005599D01*
X008109Y005521D02*
X005600Y005521D01*
X005600Y005442D02*
X008116Y005442D01*
X008130Y005364D02*
X005600Y005364D01*
X005600Y005285D02*
X008144Y005285D01*
X008157Y005207D02*
X005600Y005207D01*
X005600Y005128D02*
X008191Y005128D01*
X008236Y005050D02*
X005600Y005050D01*
X005600Y004971D02*
X008282Y004971D01*
X008327Y004893D02*
X005600Y004893D01*
X005600Y004814D02*
X008421Y004814D01*
X008514Y004736D02*
X005600Y004736D01*
X009340Y006384D02*
X009850Y006384D01*
X009850Y006306D02*
X009537Y006306D01*
X009630Y006227D02*
X009850Y006227D01*
X009850Y006149D02*
X009724Y006149D01*
X009795Y006070D02*
X009850Y006070D01*
X009840Y005992D02*
X009850Y005992D01*
X009850Y007405D02*
X004960Y007405D01*
X004960Y007483D02*
X009850Y007483D01*
X009850Y007562D02*
X004960Y007562D01*
X004960Y007640D02*
X009850Y007640D01*
X009850Y007719D02*
X004960Y007719D01*
X004960Y007797D02*
X009850Y007797D01*
X009850Y007876D02*
X004953Y007876D01*
X004874Y007954D02*
X009850Y007954D01*
X009850Y008033D02*
X004885Y008033D01*
X004885Y008111D02*
X009850Y008111D01*
X009850Y008190D02*
X004855Y008190D01*
X005187Y008818D02*
X006108Y008818D01*
X006187Y008896D02*
X005220Y008896D01*
X005235Y008975D02*
X006520Y008975D01*
X006520Y009053D02*
X005235Y009053D01*
X005208Y009132D02*
X005526Y009132D01*
X005401Y009210D02*
X005164Y009210D01*
X005079Y009289D02*
X005336Y009289D01*
X005303Y009367D02*
X004637Y009367D01*
X004669Y009446D02*
X005290Y009446D01*
X005290Y009524D02*
X004685Y009524D01*
X004685Y009603D02*
X005315Y009603D01*
X005700Y009850D02*
X004650Y009850D01*
X004350Y009550D01*
X004042Y009681D02*
X003650Y009681D01*
X003650Y009603D02*
X004015Y009603D01*
X004015Y009524D02*
X003650Y009524D01*
X003650Y009446D02*
X004031Y009446D01*
X004063Y009367D02*
X003650Y009367D01*
X003650Y009289D02*
X004138Y009289D01*
X004562Y009289D02*
X004721Y009289D01*
X004636Y009210D02*
X003650Y009210D01*
X003450Y009000D02*
X003350Y009000D01*
X002850Y008500D01*
X002350Y007954D02*
X002250Y007954D01*
X002250Y007876D02*
X002429Y007876D01*
X002463Y007841D02*
X002463Y007841D01*
X002507Y007797D02*
X002250Y007797D01*
X002250Y007719D02*
X003657Y007719D01*
X003625Y007640D02*
X002250Y007640D01*
X002418Y007405D02*
X003648Y007405D01*
X003700Y007326D02*
X002509Y007326D01*
X002600Y007248D02*
X003805Y007248D01*
X004034Y007169D02*
X002691Y007169D01*
X002782Y007091D02*
X004181Y007091D01*
X002272Y008033D02*
X002250Y008033D01*
X003450Y009000D02*
X003450Y013400D01*
X004050Y014000D01*
X004526Y013763D02*
X004574Y013763D01*
X004616Y013685D02*
X004484Y013685D01*
X004406Y013606D02*
X004694Y013606D01*
X004806Y013528D02*
X004294Y013528D01*
X003782Y013449D02*
X007000Y013449D01*
X007000Y013371D02*
X003703Y013371D01*
X003650Y013292D02*
X007000Y013292D01*
X007000Y013214D02*
X003650Y013214D01*
X003650Y013135D02*
X007000Y013135D01*
X007000Y013057D02*
X003650Y013057D01*
X003650Y012978D02*
X007000Y012978D01*
X007000Y012900D02*
X003650Y012900D01*
X003650Y012821D02*
X007000Y012821D01*
X007000Y012743D02*
X003650Y012743D01*
X003650Y012664D02*
X007000Y012664D01*
X007000Y012586D02*
X003650Y012586D01*
X003650Y012507D02*
X007000Y012507D01*
X007000Y012429D02*
X003650Y012429D01*
X003650Y012350D02*
X006680Y012350D01*
X006552Y012272D02*
X003650Y012272D01*
X003650Y012193D02*
X006486Y012193D01*
X006454Y012115D02*
X005271Y012115D01*
X005363Y012036D02*
X006440Y012036D01*
X006731Y011644D02*
X007000Y011644D01*
X007000Y011565D02*
X005364Y011565D01*
X005274Y011487D02*
X007000Y011487D01*
X006975Y011408D02*
X003650Y011408D01*
X003650Y011330D02*
X006897Y011330D01*
X006818Y011251D02*
X003650Y011251D01*
X003650Y011173D02*
X006740Y011173D01*
X006661Y011094D02*
X003650Y011094D01*
X003650Y011016D02*
X006583Y011016D01*
X006504Y010937D02*
X003650Y010937D01*
X003650Y010859D02*
X006426Y010859D01*
X006347Y010780D02*
X003650Y010780D01*
X003650Y010702D02*
X006269Y010702D01*
X006190Y010623D02*
X003650Y010623D01*
X003650Y010545D02*
X006112Y010545D01*
X006033Y010466D02*
X003650Y010466D01*
X003650Y010388D02*
X005955Y010388D01*
X005876Y010309D02*
X003650Y010309D01*
X003650Y010231D02*
X005798Y010231D01*
X005719Y010152D02*
X003650Y010152D01*
X003650Y010074D02*
X005641Y010074D01*
X005700Y009850D02*
X007200Y011350D01*
X007200Y013400D01*
X007200Y013850D01*
X007050Y014000D01*
X006520Y013999D02*
X005580Y013999D01*
X005580Y014077D02*
X006520Y014077D01*
X006541Y014156D02*
X005559Y014156D01*
X005527Y014234D02*
X006573Y014234D01*
X006520Y013920D02*
X005580Y013920D01*
X005558Y013842D02*
X006542Y013842D01*
X006574Y013763D02*
X005526Y013763D01*
X005484Y013685D02*
X006616Y013685D01*
X006694Y013606D02*
X005406Y013606D01*
X005294Y013528D02*
X006806Y013528D01*
X007400Y013528D02*
X008111Y013528D01*
X008115Y013449D02*
X007400Y013449D01*
X007400Y013371D02*
X008128Y013371D01*
X008142Y013292D02*
X007400Y013292D01*
X007400Y013214D02*
X008156Y013214D01*
X008187Y013135D02*
X007400Y013135D01*
X007400Y013057D02*
X008232Y013057D01*
X008277Y012978D02*
X007400Y012978D01*
X007400Y012900D02*
X008323Y012900D01*
X008412Y012821D02*
X007400Y012821D01*
X007400Y012743D02*
X008506Y012743D01*
X008628Y012664D02*
X007400Y012664D01*
X007400Y012586D02*
X008843Y012586D01*
X009257Y012586D02*
X009850Y012586D01*
X009850Y012664D02*
X009472Y012664D01*
X009594Y012743D02*
X009850Y012743D01*
X009850Y012821D02*
X009688Y012821D01*
X009773Y012893D02*
X009773Y012893D01*
X009777Y012900D02*
X009850Y012900D01*
X009850Y012978D02*
X009823Y012978D01*
X009850Y012507D02*
X007400Y012507D01*
X007400Y012429D02*
X009850Y012429D01*
X009850Y012350D02*
X007646Y012350D01*
X007788Y012272D02*
X009850Y012272D01*
X009850Y012193D02*
X007860Y012193D01*
X007892Y012115D02*
X009850Y012115D01*
X009850Y012036D02*
X007910Y012036D01*
X007910Y011958D02*
X009850Y011958D01*
X009850Y011879D02*
X007890Y011879D01*
X007857Y011801D02*
X009850Y011801D01*
X009850Y011722D02*
X007781Y011722D01*
X007760Y011644D02*
X009850Y011644D01*
X009850Y011565D02*
X007760Y011565D01*
X007760Y011487D02*
X009850Y011487D01*
X009850Y011408D02*
X007760Y011408D01*
X007760Y011330D02*
X009850Y011330D01*
X009850Y011251D02*
X007728Y011251D01*
X007650Y011173D02*
X009850Y011173D01*
X009850Y011094D02*
X007571Y011094D01*
X007493Y011016D02*
X009850Y011016D01*
X009850Y010937D02*
X007414Y010937D01*
X007336Y010859D02*
X009850Y010859D01*
X009850Y010780D02*
X007257Y010780D01*
X007179Y010702D02*
X009850Y010702D01*
X009850Y010623D02*
X007100Y010623D01*
X007022Y010545D02*
X009850Y010545D01*
X009850Y010466D02*
X006943Y010466D01*
X006865Y010388D02*
X009850Y010388D01*
X009850Y010309D02*
X006786Y010309D01*
X006708Y010231D02*
X009350Y010231D01*
X009266Y010152D02*
X006629Y010152D01*
X006551Y010074D02*
X009226Y010074D01*
X009242Y009995D02*
X006472Y009995D01*
X006394Y009917D02*
X009268Y009917D01*
X009248Y009838D02*
X006315Y009838D01*
X006237Y009760D02*
X009221Y009760D01*
X009248Y009681D02*
X006158Y009681D01*
X006080Y009603D02*
X009169Y009603D01*
X009100Y009524D02*
X007170Y009524D01*
X007354Y009446D02*
X009100Y009446D01*
X009100Y009367D02*
X007433Y009367D01*
X007504Y009289D02*
X009174Y009289D01*
X009169Y009210D02*
X007537Y009210D01*
X007569Y009132D02*
X009100Y009132D01*
X009100Y009053D02*
X007580Y009053D01*
X007580Y008975D02*
X009100Y008975D01*
X009100Y008896D02*
X007580Y008896D01*
X007548Y008818D02*
X009116Y008818D01*
X009195Y008739D02*
X007516Y008739D01*
X007460Y008661D02*
X009273Y008661D01*
X009746Y008661D02*
X009850Y008661D01*
X009850Y008739D02*
X009825Y008739D01*
X009850Y008582D02*
X007382Y008582D01*
X007236Y008504D02*
X009850Y008504D01*
X009850Y008425D02*
X006717Y008425D01*
X006750Y008504D02*
X006864Y008504D01*
X006656Y008347D02*
X009850Y008347D01*
X009850Y008268D02*
X006539Y008268D01*
X006531Y009132D02*
X005774Y009132D01*
X005899Y009210D02*
X006563Y009210D01*
X006596Y009289D02*
X005964Y009289D01*
X005997Y009367D02*
X006667Y009367D01*
X006746Y009446D02*
X006010Y009446D01*
X006010Y009524D02*
X006930Y009524D01*
X004900Y009000D02*
X003450Y009000D01*
X003650Y009760D02*
X004086Y009760D01*
X004170Y009838D02*
X003650Y009838D01*
X003650Y009917D02*
X004434Y009917D01*
X004512Y009995D02*
X003650Y009995D01*
X003650Y011487D02*
X004906Y011487D01*
X004816Y011565D02*
X003650Y011565D01*
X003650Y011644D02*
X004765Y011644D01*
X004733Y011722D02*
X003650Y011722D01*
X003650Y011801D02*
X004730Y011801D01*
X004733Y011879D02*
X003650Y011879D01*
X003650Y011958D02*
X004766Y011958D01*
X004817Y012036D02*
X003650Y012036D01*
X003650Y012115D02*
X004909Y012115D01*
X006920Y012350D02*
X007000Y012350D01*
X007400Y012350D02*
X007454Y012350D01*
X007406Y013606D02*
X008124Y013606D01*
X008138Y013685D02*
X007484Y013685D01*
X007526Y013763D02*
X008152Y013763D01*
X008173Y013842D02*
X007558Y013842D01*
X007580Y013920D02*
X008219Y013920D01*
X008264Y013999D02*
X007580Y013999D01*
X007580Y014077D02*
X008309Y014077D01*
X008327Y014107D02*
X008327Y014107D01*
X008384Y014156D02*
X007559Y014156D01*
X007527Y014234D02*
X008478Y014234D01*
X009529Y010231D02*
X009850Y010231D01*
X009850Y010152D02*
X009686Y010152D01*
D15*
X006280Y012130D03*
X004350Y009550D03*
X004900Y009000D03*
X002850Y008500D03*
X004550Y008050D03*
X003950Y007550D03*
D16*
X002800Y006250D02*
X001550Y007500D01*
X001550Y010000D01*
X002800Y006250D02*
X004050Y006250D01*
D17*
X006000Y006250D01*
X006250Y006500D01*
X006250Y007000D01*
X004550Y007323D02*
X004177Y007323D01*
X003950Y007550D01*
X004550Y007677D02*
X004550Y008050D01*
X005650Y009470D02*
X007550Y011370D01*
X007550Y012000D01*
X006800Y012010D02*
X006590Y011800D01*
X005090Y011800D01*
D18*
X002900Y011100D02*
X002900Y009650D01*
X002900Y009300D01*
X002400Y008800D01*
X002400Y008300D01*
X002700Y008000D01*
X003550Y008000D01*
X004050Y008500D01*
X006300Y008500D01*
X006400Y008600D01*
M02*
