G75*
%MOIN*%
%OFA0B0*%
%FSLAX24Y24*%
%IPPOS*%
%LPD*%
%AMOC8*
5,1,8,0,0,1.08239X$1,22.5*
%
%ADD10C,0.0080*%
%ADD11C,0.0100*%
%ADD12C,0.0110*%
%ADD13C,0.0070*%
%ADD14C,0.0090*%
%ADD15C,0.0060*%
%ADD16C,0.0010*%
%ADD17R,0.0191X0.0195*%
%ADD18C,0.0000*%
%ADD19C,0.0050*%
%ADD20C,0.0059*%
D10*
X001050Y004500D02*
X001050Y014500D01*
X010050Y014500D01*
X010050Y004500D01*
X001050Y004500D01*
X004156Y007185D02*
X004156Y007815D01*
X004157Y007815D02*
X004163Y007833D01*
X004172Y007851D01*
X004184Y007866D01*
X004200Y007878D01*
X004217Y007887D01*
X004236Y007893D01*
X004255Y007895D01*
X004275Y007893D01*
X004825Y007893D02*
X004843Y007895D01*
X004860Y007894D01*
X004877Y007890D01*
X004893Y007883D01*
X004908Y007873D01*
X004920Y007861D01*
X004930Y007847D01*
X004938Y007831D01*
X004943Y007815D01*
X004944Y007815D02*
X004944Y007185D01*
X004943Y007185D02*
X004938Y007169D01*
X004930Y007153D01*
X004920Y007139D01*
X004908Y007127D01*
X004893Y007117D01*
X004877Y007110D01*
X004860Y007106D01*
X004843Y007105D01*
X004825Y007107D01*
X004275Y007107D02*
X004255Y007105D01*
X004236Y007107D01*
X004217Y007113D01*
X004200Y007122D01*
X004184Y007134D01*
X004172Y007149D01*
X004163Y007167D01*
X004157Y007185D01*
X006550Y008750D02*
X006800Y008500D01*
X007300Y008500D01*
X007550Y008750D01*
X007550Y009250D01*
X007300Y009500D01*
X007550Y009750D01*
X007550Y010250D01*
X007300Y010500D01*
X006800Y010500D01*
X006550Y010250D01*
X006550Y009750D01*
X006800Y009500D01*
X006550Y009250D01*
X006550Y008750D01*
D11*
X006710Y005850D02*
X006890Y005850D01*
X006890Y005500D01*
X004450Y005840D02*
X004270Y005840D01*
X004270Y005490D01*
D12*
X007682Y007417D02*
X008172Y007417D01*
X008172Y007336D02*
X008172Y007499D01*
X008172Y007704D02*
X008172Y007867D01*
X008172Y007786D02*
X007682Y007786D01*
X007682Y007867D01*
X007927Y008093D02*
X008008Y008093D01*
X008008Y008420D01*
X007927Y008420D02*
X007845Y008338D01*
X007845Y008175D01*
X007927Y008093D01*
X008172Y008175D02*
X008172Y008338D01*
X008090Y008420D01*
X007927Y008420D01*
X008090Y008645D02*
X008172Y008727D01*
X008172Y008891D01*
X008090Y008972D01*
X007763Y008972D01*
X007682Y008891D01*
X007682Y008727D01*
X007763Y008645D01*
X007845Y009188D02*
X007845Y009269D01*
X008008Y009433D01*
X007845Y009433D02*
X008172Y009433D01*
X008008Y009658D02*
X008008Y009985D01*
X007927Y009985D02*
X007845Y009903D01*
X007845Y009740D01*
X007927Y009658D01*
X008008Y009658D01*
X008172Y009740D02*
X008172Y009903D01*
X008090Y009985D01*
X007927Y009985D01*
X007845Y010211D02*
X008090Y010211D01*
X008172Y010292D01*
X008090Y010374D01*
X008172Y010456D01*
X008090Y010538D01*
X007845Y010538D01*
X007927Y010763D02*
X007845Y010845D01*
X007845Y011008D01*
X007927Y011090D01*
X008090Y011090D01*
X008172Y011008D01*
X008172Y010845D01*
X008090Y010763D01*
X007927Y010763D01*
X007927Y011316D02*
X007763Y011316D01*
X007682Y011397D01*
X007682Y011643D01*
X008172Y011643D01*
X008008Y011643D02*
X008008Y011397D01*
X007927Y011316D01*
X007682Y007499D02*
X007682Y007417D01*
D13*
X006217Y006075D02*
X006217Y005745D01*
X006365Y005745D02*
X006530Y005745D01*
X006585Y005800D01*
X006585Y005910D01*
X006530Y005965D01*
X006365Y005965D01*
X006217Y005910D02*
X006162Y005965D01*
X006052Y005965D01*
X005996Y005910D01*
X005996Y005745D01*
X005848Y005800D02*
X005793Y005855D01*
X005628Y005855D01*
X005628Y005910D02*
X005628Y005745D01*
X005793Y005745D01*
X005848Y005800D01*
X005793Y005965D02*
X005683Y005965D01*
X005628Y005910D01*
X005480Y005855D02*
X005370Y005965D01*
X005315Y005965D01*
X005173Y005910D02*
X005173Y005800D01*
X005118Y005745D01*
X004953Y005745D01*
X004953Y005690D02*
X004953Y005965D01*
X005118Y005965D01*
X005173Y005910D01*
X005480Y005965D02*
X005480Y005745D01*
X005063Y005635D02*
X005008Y005635D01*
X004953Y005690D01*
X004805Y005800D02*
X004750Y005745D01*
X004640Y005745D01*
X004585Y005855D02*
X004805Y005855D01*
X004805Y005800D02*
X004805Y005910D01*
X004750Y005965D01*
X004640Y005965D01*
X004585Y005910D01*
X004585Y005855D01*
X005990Y012385D02*
X005935Y012440D01*
X005935Y012550D01*
X005990Y012605D01*
X006100Y012605D01*
X006100Y012495D01*
X006210Y012385D02*
X005990Y012385D01*
X006210Y012385D02*
X006265Y012440D01*
X006265Y012550D01*
X006210Y012605D01*
X006265Y012753D02*
X005935Y012753D01*
X005935Y012974D02*
X006265Y012974D01*
X006265Y013122D02*
X005935Y013122D01*
X005935Y013287D01*
X005990Y013342D01*
X006210Y013342D01*
X006265Y013287D01*
X006265Y013122D01*
X005935Y012974D02*
X006265Y012753D01*
X005215Y012818D02*
X005160Y012763D01*
X004940Y012763D01*
X004885Y012818D01*
X004885Y012928D01*
X004940Y012984D01*
X004940Y013132D02*
X004885Y013187D01*
X004885Y013297D01*
X004940Y013352D01*
X005160Y013352D02*
X005215Y013297D01*
X005215Y013187D01*
X005160Y013132D01*
X004940Y013132D01*
X005160Y012984D02*
X005215Y012928D01*
X005215Y012818D01*
X005215Y012615D02*
X004995Y012615D01*
X004885Y012505D01*
X004995Y012395D01*
X005215Y012395D01*
X003355Y013835D02*
X003355Y014165D01*
X003190Y014165D01*
X003135Y014110D01*
X003135Y014000D01*
X003190Y013945D01*
X003355Y013945D01*
X002987Y013890D02*
X002932Y013835D01*
X002822Y013835D01*
X002766Y013890D01*
X002766Y013945D01*
X002822Y014000D01*
X002932Y014000D01*
X002987Y014055D01*
X002987Y014110D01*
X002932Y014165D01*
X002822Y014165D01*
X002766Y014110D01*
X007713Y014165D02*
X007713Y013835D01*
X007933Y014165D01*
X007933Y013835D01*
X008081Y013835D02*
X008302Y013835D01*
X008302Y014165D01*
X008081Y014165D01*
X008192Y014000D02*
X008302Y014000D01*
D14*
X006250Y010158D02*
X006250Y009885D01*
X006218Y009087D02*
X006218Y008813D01*
X006355Y008950D02*
X006081Y008950D01*
X006829Y005255D02*
X006761Y005187D01*
X006761Y004913D01*
X006829Y004845D01*
X007034Y004845D01*
X007034Y005255D01*
X006829Y005255D01*
X007221Y005255D02*
X007221Y004845D01*
X007495Y005255D01*
X007495Y004845D01*
X007681Y004913D02*
X007681Y005050D01*
X007818Y005050D01*
X007681Y004913D02*
X007750Y004845D01*
X007887Y004845D01*
X007955Y004913D01*
X007955Y005187D01*
X007887Y005255D01*
X007750Y005255D01*
X007681Y005187D01*
X004355Y005205D02*
X004355Y005000D01*
X004218Y005069D01*
X004150Y005069D01*
X004081Y005000D01*
X004081Y004863D01*
X004150Y004795D01*
X004287Y004795D01*
X004355Y004863D01*
X003895Y004932D02*
X003758Y004795D01*
X003621Y004932D01*
X003621Y005205D01*
X003895Y005205D02*
X003895Y004932D01*
X004081Y005205D02*
X004355Y005205D01*
D15*
X005640Y006875D02*
X005683Y006875D01*
X005683Y007049D01*
X005640Y007049D02*
X005597Y007005D01*
X005597Y006918D01*
X005640Y006875D01*
X005770Y006918D02*
X005770Y007005D01*
X005727Y007049D01*
X005640Y007049D01*
X005770Y007158D02*
X005770Y007245D01*
X005770Y007202D02*
X005510Y007202D01*
X005510Y007245D01*
X005370Y007256D02*
X005370Y007343D01*
X005327Y007386D01*
X005153Y007386D01*
X005110Y007343D01*
X005110Y007256D01*
X005153Y007213D01*
X005327Y007213D01*
X005370Y007256D01*
X005597Y007409D02*
X005597Y007540D01*
X005510Y007540D02*
X005770Y007540D01*
X005770Y007409D01*
X005727Y007366D01*
X005640Y007366D01*
X005597Y007409D01*
X005370Y007507D02*
X005370Y007681D01*
X005110Y007681D01*
X005110Y007802D02*
X005283Y007802D01*
X005370Y007889D01*
X005283Y007975D01*
X005110Y007975D01*
X005110Y008097D02*
X005327Y008097D01*
X005370Y008140D01*
X005370Y008227D01*
X005327Y008270D01*
X005110Y008270D01*
X005466Y008282D02*
X005510Y008282D01*
X005597Y008282D02*
X005770Y008282D01*
X005770Y008325D02*
X005770Y008239D01*
X005770Y008129D02*
X005770Y007999D01*
X005727Y007955D01*
X005683Y007999D01*
X005683Y008086D01*
X005640Y008129D01*
X005597Y008086D01*
X005597Y007955D01*
X005597Y007791D02*
X005597Y007704D01*
X005640Y007661D01*
X005770Y007661D01*
X005770Y007791D01*
X005727Y007834D01*
X005683Y007791D01*
X005683Y007661D01*
X005597Y008282D02*
X005597Y008325D01*
X005597Y008447D02*
X005597Y008577D01*
X005640Y008620D01*
X005727Y008620D01*
X005770Y008577D01*
X005770Y008447D01*
X005510Y008447D01*
D16*
X004045Y007790D02*
X004045Y007740D01*
X004020Y007715D01*
X004045Y007668D02*
X004045Y007618D01*
X004045Y007643D02*
X003920Y007643D01*
X003895Y007618D01*
X003895Y007593D01*
X003920Y007568D01*
X003920Y007521D02*
X003895Y007496D01*
X003895Y007446D01*
X003920Y007421D01*
X003970Y007446D02*
X003995Y007421D01*
X004020Y007421D01*
X004045Y007446D01*
X004045Y007496D01*
X004020Y007521D01*
X003970Y007496D02*
X003945Y007521D01*
X003920Y007521D01*
X003970Y007496D02*
X003970Y007446D01*
X003895Y007715D02*
X003995Y007815D01*
X004020Y007815D01*
X004045Y007790D01*
X003895Y007815D02*
X003895Y007715D01*
X003696Y007730D02*
X003569Y007730D01*
X003558Y007708D01*
X003544Y007690D01*
X003526Y007675D01*
X003502Y007662D01*
X003476Y007653D01*
X003449Y007649D01*
X003449Y007489D01*
X003451Y007489D01*
X003470Y007490D01*
X003488Y007494D01*
X003543Y007515D01*
X003592Y007547D01*
X003634Y007589D01*
X003666Y007638D01*
X003684Y007681D01*
X003695Y007726D01*
X003699Y007773D01*
X003695Y007835D01*
X003684Y007897D01*
X003670Y007939D01*
X003649Y007978D01*
X003622Y008014D01*
X003590Y008044D01*
X003550Y008071D01*
X003506Y008091D01*
X003460Y008104D01*
X003412Y008110D01*
X003314Y008107D01*
X003255Y008095D01*
X003200Y008073D01*
X003150Y008040D01*
X003107Y007998D01*
X003073Y007949D01*
X003049Y007894D01*
X003036Y007835D01*
X003035Y007774D01*
X003042Y007718D01*
X003055Y007662D01*
X003073Y007616D01*
X003100Y007576D01*
X003136Y007542D01*
X003178Y007517D01*
X003223Y007500D01*
X003271Y007491D01*
X003271Y007656D01*
X003270Y007656D01*
X003246Y007659D01*
X003224Y007667D01*
X003204Y007680D01*
X003187Y007697D01*
X003175Y007717D01*
X003164Y007749D01*
X003161Y007783D01*
X003164Y007817D01*
X003171Y007850D01*
X003179Y007867D01*
X003191Y007882D01*
X003228Y007910D01*
X003269Y007930D01*
X003313Y007942D01*
X003359Y007946D01*
X003421Y007941D01*
X003482Y007927D01*
X003511Y007914D01*
X003537Y007895D01*
X003557Y007870D01*
X003570Y007841D01*
X003577Y007809D01*
X003579Y007777D01*
X003576Y007753D01*
X003569Y007730D01*
X003572Y007739D02*
X003696Y007739D01*
X003697Y007747D02*
X003574Y007747D01*
X003576Y007756D02*
X003698Y007756D01*
X003698Y007764D02*
X003577Y007764D01*
X003578Y007773D02*
X003699Y007773D01*
X003699Y007781D02*
X003579Y007781D01*
X003578Y007790D02*
X003698Y007790D01*
X003697Y007798D02*
X003578Y007798D01*
X003577Y007807D02*
X003697Y007807D01*
X003696Y007815D02*
X003576Y007815D01*
X003574Y007824D02*
X003696Y007824D01*
X003695Y007832D02*
X003572Y007832D01*
X003570Y007841D02*
X003694Y007841D01*
X003693Y007849D02*
X003566Y007849D01*
X003562Y007858D02*
X003691Y007858D01*
X003690Y007866D02*
X003558Y007866D01*
X003553Y007875D02*
X003688Y007875D01*
X003687Y007883D02*
X003546Y007883D01*
X003539Y007892D02*
X003685Y007892D01*
X003683Y007900D02*
X003530Y007900D01*
X003518Y007909D02*
X003680Y007909D01*
X003677Y007917D02*
X003505Y007917D01*
X003485Y007926D02*
X003675Y007926D01*
X003672Y007934D02*
X003451Y007934D01*
X003400Y007943D02*
X003668Y007943D01*
X003664Y007951D02*
X003075Y007951D01*
X003070Y007943D02*
X003318Y007943D01*
X003284Y007934D02*
X003067Y007934D01*
X003063Y007926D02*
X003260Y007926D01*
X003243Y007917D02*
X003059Y007917D01*
X003055Y007909D02*
X003226Y007909D01*
X003215Y007900D02*
X003052Y007900D01*
X003048Y007892D02*
X003204Y007892D01*
X003192Y007883D02*
X003047Y007883D01*
X003045Y007875D02*
X003185Y007875D01*
X003178Y007866D02*
X003043Y007866D01*
X003041Y007858D02*
X003174Y007858D01*
X003171Y007849D02*
X003039Y007849D01*
X003037Y007841D02*
X003169Y007841D01*
X003167Y007832D02*
X003036Y007832D01*
X003036Y007824D02*
X003165Y007824D01*
X003164Y007815D02*
X003036Y007815D01*
X003036Y007807D02*
X003163Y007807D01*
X003162Y007798D02*
X003035Y007798D01*
X003035Y007790D02*
X003162Y007790D01*
X003161Y007781D02*
X003035Y007781D01*
X003035Y007773D02*
X003162Y007773D01*
X003163Y007764D02*
X003036Y007764D01*
X003037Y007756D02*
X003164Y007756D01*
X003165Y007747D02*
X003039Y007747D01*
X003040Y007739D02*
X003168Y007739D01*
X003171Y007730D02*
X003041Y007730D01*
X003042Y007722D02*
X003173Y007722D01*
X003177Y007713D02*
X003043Y007713D01*
X003045Y007705D02*
X003182Y007705D01*
X003188Y007696D02*
X003047Y007696D01*
X003049Y007688D02*
X003196Y007688D01*
X003205Y007679D02*
X003051Y007679D01*
X003053Y007671D02*
X003218Y007671D01*
X003237Y007662D02*
X003055Y007662D01*
X003058Y007654D02*
X003271Y007654D01*
X003271Y007645D02*
X003062Y007645D01*
X003065Y007637D02*
X003271Y007637D01*
X003271Y007628D02*
X003068Y007628D01*
X003072Y007620D02*
X003271Y007620D01*
X003271Y007611D02*
X003077Y007611D01*
X003082Y007603D02*
X003271Y007603D01*
X003271Y007594D02*
X003088Y007594D01*
X003094Y007586D02*
X003271Y007586D01*
X003271Y007577D02*
X003100Y007577D01*
X003108Y007569D02*
X003271Y007569D01*
X003271Y007560D02*
X003117Y007560D01*
X003126Y007552D02*
X003271Y007552D01*
X003271Y007543D02*
X003135Y007543D01*
X003149Y007535D02*
X003271Y007535D01*
X003271Y007526D02*
X003163Y007526D01*
X003177Y007518D02*
X003271Y007518D01*
X003271Y007509D02*
X003200Y007509D01*
X003223Y007501D02*
X003271Y007501D01*
X003271Y007492D02*
X003265Y007492D01*
X003297Y007424D02*
X003436Y007424D01*
X003382Y007433D02*
X003335Y007433D01*
X003354Y007437D02*
X003214Y007405D01*
X003107Y007321D01*
X003041Y007188D01*
X003034Y007130D01*
X003034Y007128D01*
X003036Y007123D01*
X003151Y007123D01*
X003157Y007167D01*
X003183Y007214D01*
X003227Y007246D01*
X003263Y007262D01*
X003322Y007273D01*
X003396Y007275D01*
X003446Y007268D01*
X003492Y007253D01*
X003534Y007231D01*
X003575Y007164D01*
X003584Y007093D01*
X003560Y007022D01*
X003520Y006978D01*
X003471Y006956D01*
X003409Y006941D01*
X003352Y006941D01*
X003275Y006951D01*
X003210Y006981D01*
X003177Y007015D01*
X003156Y007054D01*
X003152Y007102D01*
X003152Y007106D01*
X003035Y007104D01*
X003045Y007025D01*
X003067Y006961D01*
X003121Y006883D01*
X003171Y006840D01*
X003263Y006799D01*
X003349Y006788D01*
X003432Y006798D01*
X003529Y006825D01*
X003580Y006857D01*
X003625Y006904D01*
X003656Y006948D01*
X003681Y007021D01*
X003691Y007120D01*
X003675Y007238D01*
X003605Y007350D01*
X003507Y007413D01*
X003354Y007437D01*
X003284Y006957D02*
X003317Y006951D01*
X003350Y006947D01*
X003383Y006946D01*
X003443Y007432D02*
X003405Y007437D01*
X003367Y007438D01*
X003329Y007436D01*
X003292Y007431D01*
X003260Y007416D02*
X003490Y007416D01*
X003516Y007407D02*
X003223Y007407D01*
X003206Y007399D02*
X003529Y007399D01*
X003543Y007390D02*
X003195Y007390D01*
X003184Y007382D02*
X003556Y007382D01*
X003569Y007373D02*
X003173Y007373D01*
X003163Y007365D02*
X003582Y007365D01*
X003596Y007356D02*
X003152Y007356D01*
X003141Y007348D02*
X003607Y007348D01*
X003612Y007339D02*
X003130Y007339D01*
X003119Y007331D02*
X003617Y007331D01*
X003622Y007322D02*
X003108Y007322D01*
X003103Y007314D02*
X003628Y007314D01*
X003633Y007305D02*
X003099Y007305D01*
X003095Y007297D02*
X003638Y007297D01*
X003644Y007288D02*
X003091Y007288D01*
X003086Y007280D02*
X003649Y007280D01*
X003654Y007271D02*
X003424Y007271D01*
X003463Y007263D02*
X003660Y007263D01*
X003665Y007254D02*
X003489Y007254D01*
X003506Y007246D02*
X003670Y007246D01*
X003675Y007237D02*
X003522Y007237D01*
X003535Y007229D02*
X003676Y007229D01*
X003677Y007220D02*
X003541Y007220D01*
X003546Y007212D02*
X003679Y007212D01*
X003680Y007203D02*
X003551Y007203D01*
X003556Y007195D02*
X003681Y007195D01*
X003682Y007186D02*
X003561Y007186D01*
X003567Y007178D02*
X003683Y007178D01*
X003684Y007169D02*
X003572Y007169D01*
X003575Y007161D02*
X003685Y007161D01*
X003687Y007152D02*
X003577Y007152D01*
X003578Y007144D02*
X003688Y007144D01*
X003689Y007135D02*
X003579Y007135D01*
X003580Y007127D02*
X003690Y007127D01*
X003691Y007118D02*
X003581Y007118D01*
X003582Y007110D02*
X003690Y007110D01*
X003689Y007101D02*
X003583Y007101D01*
X003584Y007093D02*
X003688Y007093D01*
X003687Y007084D02*
X003581Y007084D01*
X003578Y007076D02*
X003686Y007076D01*
X003686Y007067D02*
X003575Y007067D01*
X003572Y007059D02*
X003685Y007059D01*
X003684Y007050D02*
X003569Y007050D01*
X003567Y007042D02*
X003683Y007042D01*
X003682Y007033D02*
X003564Y007033D01*
X003561Y007025D02*
X003681Y007025D01*
X003679Y007016D02*
X003555Y007016D01*
X003547Y007008D02*
X003676Y007008D01*
X003673Y006999D02*
X003539Y006999D01*
X003531Y006991D02*
X003671Y006991D01*
X003668Y006982D02*
X003524Y006982D01*
X003510Y006974D02*
X003665Y006974D01*
X003662Y006965D02*
X003491Y006965D01*
X003472Y006957D02*
X003659Y006957D01*
X003656Y006948D02*
X003438Y006948D01*
X003505Y007241D02*
X003484Y007251D01*
X003462Y007259D01*
X003439Y007265D01*
X003415Y007268D01*
X003505Y006977D02*
X003477Y006964D01*
X003446Y006954D01*
X003415Y006948D01*
X003383Y006946D01*
X003297Y006948D02*
X003076Y006948D01*
X003082Y006940D02*
X003650Y006940D01*
X003644Y006931D02*
X003088Y006931D01*
X003094Y006923D02*
X003638Y006923D01*
X003632Y006914D02*
X003099Y006914D01*
X003105Y006906D02*
X003626Y006906D01*
X003618Y006897D02*
X003111Y006897D01*
X003117Y006889D02*
X003610Y006889D01*
X003602Y006880D02*
X003124Y006880D01*
X003134Y006872D02*
X003594Y006872D01*
X003586Y006863D02*
X003144Y006863D01*
X003154Y006855D02*
X003576Y006855D01*
X003563Y006846D02*
X003164Y006846D01*
X003176Y006838D02*
X003549Y006838D01*
X003535Y006829D02*
X003196Y006829D01*
X003215Y006821D02*
X003513Y006821D01*
X003483Y006812D02*
X003234Y006812D01*
X003253Y006804D02*
X003452Y006804D01*
X003408Y006795D02*
X003294Y006795D01*
X003318Y007267D02*
X003351Y007269D01*
X003383Y007269D01*
X003415Y007266D01*
X003522Y006816D02*
X003488Y006804D01*
X003454Y006795D01*
X003419Y006788D01*
X003383Y006784D01*
X003348Y006782D01*
X003263Y006957D02*
X003070Y006957D01*
X003066Y006965D02*
X003244Y006965D01*
X003226Y006974D02*
X003063Y006974D01*
X003060Y006982D02*
X003209Y006982D01*
X003201Y006991D02*
X003057Y006991D01*
X003054Y006999D02*
X003192Y006999D01*
X003184Y007008D02*
X003051Y007008D01*
X003048Y007016D02*
X003176Y007016D01*
X003172Y007025D02*
X003045Y007025D01*
X003044Y007033D02*
X003167Y007033D01*
X003163Y007042D02*
X003043Y007042D01*
X003042Y007050D02*
X003158Y007050D01*
X003156Y007059D02*
X003041Y007059D01*
X003040Y007067D02*
X003155Y007067D01*
X003154Y007076D02*
X003039Y007076D01*
X003038Y007084D02*
X003153Y007084D01*
X003153Y007093D02*
X003036Y007093D01*
X003035Y007101D02*
X003152Y007101D01*
X003156Y007110D02*
X003031Y007110D01*
X003031Y007104D01*
X003031Y007118D02*
X003158Y007118D01*
X003158Y007127D01*
X003151Y007127D02*
X003035Y007127D01*
X003035Y007135D02*
X003153Y007135D01*
X003154Y007144D02*
X003036Y007144D01*
X003037Y007152D02*
X003155Y007152D01*
X003156Y007161D02*
X003038Y007161D01*
X003039Y007169D02*
X003158Y007169D01*
X003163Y007178D02*
X003040Y007178D01*
X003041Y007186D02*
X003168Y007186D01*
X003172Y007195D02*
X003044Y007195D01*
X003048Y007203D02*
X003177Y007203D01*
X003182Y007212D02*
X003053Y007212D01*
X003057Y007220D02*
X003191Y007220D01*
X003203Y007229D02*
X003061Y007229D01*
X003065Y007237D02*
X003215Y007237D01*
X003226Y007246D02*
X003070Y007246D01*
X003074Y007254D02*
X003245Y007254D01*
X003266Y007263D02*
X003078Y007263D01*
X003082Y007271D02*
X003312Y007271D01*
X003191Y007006D02*
X003212Y006989D01*
X003234Y006975D01*
X003258Y006964D01*
X003283Y006956D01*
X003206Y007225D02*
X003226Y007238D01*
X003248Y007250D01*
X003270Y007258D01*
X003294Y007264D01*
X003318Y007267D01*
X003292Y007431D02*
X003259Y007424D01*
X003228Y007413D01*
X003198Y007398D01*
X003169Y007381D01*
X003143Y007360D01*
X003119Y007337D01*
X003098Y007312D01*
X003079Y007284D01*
X003206Y007225D02*
X003192Y007212D01*
X003180Y007198D01*
X003171Y007182D01*
X003164Y007164D01*
X003159Y007146D01*
X003158Y007127D01*
X003676Y006979D02*
X003686Y007014D01*
X003693Y007049D01*
X003697Y007085D01*
X003698Y007121D01*
X003559Y007034D02*
X003549Y007017D01*
X003536Y007001D01*
X003521Y006988D01*
X003505Y006977D01*
X003522Y006816D02*
X003549Y006828D01*
X003574Y006843D01*
X003597Y006860D01*
X003618Y006880D01*
X003636Y006902D01*
X003653Y006926D01*
X003666Y006952D01*
X003677Y006979D01*
X003567Y007166D02*
X003559Y007184D01*
X003549Y007201D01*
X003536Y007216D01*
X003521Y007229D01*
X003505Y007240D01*
X003619Y007338D02*
X003601Y007357D01*
X003582Y007375D01*
X003560Y007389D01*
X003505Y007501D02*
X003449Y007501D01*
X003449Y007509D02*
X003527Y007509D01*
X003546Y007518D02*
X003449Y007518D01*
X003449Y007526D02*
X003559Y007526D01*
X003572Y007535D02*
X003449Y007535D01*
X003449Y007543D02*
X003585Y007543D01*
X003596Y007552D02*
X003449Y007552D01*
X003449Y007560D02*
X003605Y007560D01*
X003613Y007569D02*
X003449Y007569D01*
X003449Y007577D02*
X003622Y007577D01*
X003630Y007586D02*
X003449Y007586D01*
X003449Y007594D02*
X003637Y007594D01*
X003643Y007603D02*
X003449Y007603D01*
X003449Y007611D02*
X003648Y007611D01*
X003654Y007620D02*
X003449Y007620D01*
X003449Y007628D02*
X003659Y007628D01*
X003665Y007637D02*
X003449Y007637D01*
X003449Y007645D02*
X003669Y007645D01*
X003673Y007654D02*
X003477Y007654D01*
X003502Y007662D02*
X003676Y007662D01*
X003680Y007671D02*
X003518Y007671D01*
X003531Y007679D02*
X003683Y007679D01*
X003686Y007688D02*
X003541Y007688D01*
X003549Y007696D02*
X003688Y007696D01*
X003690Y007705D02*
X003555Y007705D01*
X003561Y007713D02*
X003692Y007713D01*
X003694Y007722D02*
X003565Y007722D01*
X003479Y007492D02*
X003449Y007492D01*
X003346Y008855D02*
X003320Y008855D01*
X003319Y008855D02*
X003688Y008855D01*
X003688Y009021D01*
X003069Y009021D01*
X003069Y008862D01*
X003156Y008862D01*
X003156Y008859D01*
X003155Y008855D01*
X003153Y008852D01*
X003147Y008847D01*
X003132Y008836D01*
X003113Y008820D01*
X003097Y008802D01*
X003075Y008767D01*
X003185Y008767D01*
X003193Y008788D01*
X003206Y008807D01*
X003229Y008828D01*
X003257Y008843D01*
X003287Y008852D01*
X003319Y008855D01*
X003346Y008855D02*
X003688Y008855D01*
X003688Y009021D01*
X003069Y009021D01*
X003069Y008862D01*
X003156Y008862D01*
X003156Y008859D01*
X003156Y008861D02*
X003688Y008861D01*
X003688Y008869D02*
X003069Y008869D01*
X003069Y008878D02*
X003688Y008878D01*
X003688Y008886D02*
X003069Y008886D01*
X003069Y008895D02*
X003688Y008895D01*
X003688Y008903D02*
X003069Y008903D01*
X003069Y008912D02*
X003688Y008912D01*
X003688Y008920D02*
X003069Y008920D01*
X003069Y008929D02*
X003688Y008929D01*
X003688Y008937D02*
X003069Y008937D01*
X003069Y008946D02*
X003688Y008946D01*
X003688Y008954D02*
X003069Y008954D01*
X003069Y008963D02*
X003688Y008963D01*
X003688Y008971D02*
X003069Y008971D01*
X003069Y008980D02*
X003688Y008980D01*
X003688Y008988D02*
X003069Y008988D01*
X003069Y008997D02*
X003688Y008997D01*
X003688Y009005D02*
X003069Y009005D01*
X003069Y009014D02*
X003688Y009014D01*
X003685Y009119D02*
X003070Y009119D01*
X003070Y009285D01*
X003397Y009285D01*
X003446Y009288D01*
X003494Y009297D01*
X003517Y009306D01*
X003537Y009319D01*
X003553Y009337D01*
X003565Y009358D01*
X003574Y009386D01*
X003576Y009416D01*
X003573Y009445D01*
X003564Y009473D01*
X003555Y009489D01*
X003542Y009504D01*
X003527Y009515D01*
X003496Y009529D01*
X003462Y009535D01*
X003068Y009535D01*
X003068Y009698D01*
X003493Y009698D01*
X003536Y009694D01*
X003578Y009682D01*
X003617Y009663D01*
X003652Y009637D01*
X003661Y009627D01*
X003682Y009592D01*
X003068Y009592D01*
X003068Y009600D02*
X003677Y009600D01*
X003682Y009592D02*
X003695Y009553D01*
X003701Y009512D01*
X003700Y009453D01*
X003691Y009395D01*
X003688Y009385D01*
X003683Y009375D01*
X003657Y009338D01*
X003626Y009306D01*
X003591Y009278D01*
X003591Y009277D01*
X003685Y009277D01*
X003685Y009119D01*
X003685Y009124D02*
X003070Y009124D01*
X003070Y009133D02*
X003685Y009133D01*
X003685Y009141D02*
X003070Y009141D01*
X003070Y009150D02*
X003685Y009150D01*
X003685Y009158D02*
X003070Y009158D01*
X003070Y009167D02*
X003685Y009167D01*
X003685Y009175D02*
X003070Y009175D01*
X003070Y009184D02*
X003685Y009184D01*
X003685Y009192D02*
X003070Y009192D01*
X003070Y009201D02*
X003685Y009201D01*
X003685Y009209D02*
X003070Y009209D01*
X003070Y009218D02*
X003685Y009218D01*
X003685Y009226D02*
X003070Y009226D01*
X003070Y009235D02*
X003685Y009235D01*
X003685Y009243D02*
X003070Y009243D01*
X003070Y009252D02*
X003685Y009252D01*
X003685Y009260D02*
X003070Y009260D01*
X003070Y009269D02*
X003685Y009269D01*
X003639Y009320D02*
X003537Y009320D01*
X003545Y009328D02*
X003647Y009328D01*
X003655Y009337D02*
X003553Y009337D01*
X003558Y009345D02*
X003662Y009345D01*
X003668Y009354D02*
X003563Y009354D01*
X003566Y009362D02*
X003674Y009362D01*
X003680Y009371D02*
X003569Y009371D01*
X003571Y009379D02*
X003685Y009379D01*
X003689Y009388D02*
X003574Y009388D01*
X003575Y009396D02*
X003691Y009396D01*
X003692Y009405D02*
X003575Y009405D01*
X003576Y009413D02*
X003694Y009413D01*
X003695Y009422D02*
X003576Y009422D01*
X003575Y009430D02*
X003696Y009430D01*
X003698Y009439D02*
X003574Y009439D01*
X003572Y009447D02*
X003699Y009447D01*
X003700Y009456D02*
X003570Y009456D01*
X003567Y009464D02*
X003700Y009464D01*
X003700Y009473D02*
X003564Y009473D01*
X003559Y009481D02*
X003700Y009481D01*
X003701Y009490D02*
X003554Y009490D01*
X003547Y009498D02*
X003701Y009498D01*
X003701Y009507D02*
X003538Y009507D01*
X003527Y009515D02*
X003701Y009515D01*
X003699Y009524D02*
X003508Y009524D01*
X003478Y009532D02*
X003698Y009532D01*
X003697Y009541D02*
X003068Y009541D01*
X003068Y009549D02*
X003696Y009549D01*
X003693Y009558D02*
X003068Y009558D01*
X003068Y009566D02*
X003691Y009566D01*
X003688Y009575D02*
X003068Y009575D01*
X003068Y009583D02*
X003685Y009583D01*
X003672Y009609D02*
X003068Y009609D01*
X003068Y009617D02*
X003667Y009617D01*
X003662Y009626D02*
X003068Y009626D01*
X003068Y009634D02*
X003655Y009634D01*
X003644Y009643D02*
X003068Y009643D01*
X003068Y009651D02*
X003633Y009651D01*
X003622Y009660D02*
X003068Y009660D01*
X003068Y009668D02*
X003607Y009668D01*
X003589Y009677D02*
X003068Y009677D01*
X003068Y009685D02*
X003568Y009685D01*
X003538Y009694D02*
X003068Y009694D01*
X003070Y009756D02*
X003175Y009756D01*
X003175Y009874D01*
X003688Y009874D01*
X003688Y010038D01*
X003176Y010038D01*
X003175Y010195D01*
X003070Y010090D01*
X003070Y010036D01*
X003052Y010036D01*
X002968Y010029D01*
X002946Y010023D01*
X002925Y010013D01*
X002906Y010000D01*
X002878Y009971D01*
X002856Y009937D01*
X002842Y009899D01*
X002835Y009859D01*
X002835Y009798D01*
X002838Y009746D01*
X002838Y009745D01*
X002957Y009745D01*
X002957Y009748D01*
X002956Y009759D01*
X002953Y009796D01*
X002835Y009796D01*
X002835Y009804D02*
X002953Y009804D01*
X002953Y009796D02*
X002956Y009832D01*
X002960Y009844D01*
X002968Y009855D01*
X002835Y009855D01*
X002835Y009847D02*
X002962Y009847D01*
X002958Y009838D02*
X002835Y009838D01*
X002835Y009830D02*
X002956Y009830D01*
X002955Y009821D02*
X002835Y009821D01*
X002835Y009813D02*
X002954Y009813D01*
X002953Y009787D02*
X002836Y009787D01*
X002836Y009779D02*
X002954Y009779D01*
X002955Y009770D02*
X002837Y009770D01*
X002837Y009762D02*
X002956Y009762D01*
X002957Y009753D02*
X002838Y009753D01*
X002836Y009864D02*
X002980Y009864D01*
X002978Y009863D02*
X002996Y009870D01*
X003015Y009873D01*
X003070Y009873D01*
X003070Y009756D01*
X003070Y009762D02*
X003175Y009762D01*
X003175Y009770D02*
X003070Y009770D01*
X003070Y009779D02*
X003175Y009779D01*
X003175Y009787D02*
X003070Y009787D01*
X003070Y009796D02*
X003175Y009796D01*
X003175Y009804D02*
X003070Y009804D01*
X003070Y009813D02*
X003175Y009813D01*
X003175Y009821D02*
X003070Y009821D01*
X003070Y009830D02*
X003175Y009830D01*
X003175Y009838D02*
X003070Y009838D01*
X003070Y009847D02*
X003175Y009847D01*
X003175Y009855D02*
X003070Y009855D01*
X003070Y009864D02*
X003175Y009864D01*
X003175Y009872D02*
X003070Y009872D01*
X003009Y009872D02*
X002837Y009872D01*
X002839Y009881D02*
X003688Y009881D01*
X003688Y009889D02*
X002840Y009889D01*
X002842Y009898D02*
X003688Y009898D01*
X003688Y009906D02*
X002845Y009906D01*
X002848Y009915D02*
X003688Y009915D01*
X003688Y009923D02*
X002851Y009923D01*
X002855Y009932D02*
X003688Y009932D01*
X003688Y009940D02*
X002859Y009940D01*
X002864Y009949D02*
X003688Y009949D01*
X003688Y009957D02*
X002869Y009957D01*
X002875Y009966D02*
X003688Y009966D01*
X003688Y009974D02*
X002881Y009974D01*
X002889Y009983D02*
X003688Y009983D01*
X003688Y009991D02*
X002898Y009991D01*
X002906Y010000D02*
X003688Y010000D01*
X003688Y010008D02*
X002917Y010008D01*
X002932Y010017D02*
X003688Y010017D01*
X003688Y010025D02*
X002953Y010025D01*
X003024Y010034D02*
X003688Y010034D01*
X003686Y010151D02*
X003685Y010351D01*
X003408Y010519D01*
X003405Y010521D01*
X003474Y010592D01*
X003689Y010592D01*
X003689Y010755D01*
X003687Y010757D01*
X002926Y010757D01*
X002833Y010594D01*
X003295Y010594D01*
X003071Y010370D01*
X003071Y010186D01*
X003293Y010413D01*
X003686Y010151D01*
X003686Y010153D02*
X003683Y010153D01*
X003686Y010161D02*
X003671Y010161D01*
X003658Y010170D02*
X003686Y010170D01*
X003686Y010178D02*
X003645Y010178D01*
X003632Y010187D02*
X003686Y010187D01*
X003686Y010195D02*
X003620Y010195D01*
X003607Y010204D02*
X003686Y010204D01*
X003686Y010212D02*
X003594Y010212D01*
X003581Y010221D02*
X003686Y010221D01*
X003686Y010229D02*
X003569Y010229D01*
X003556Y010238D02*
X003686Y010238D01*
X003686Y010246D02*
X003543Y010246D01*
X003530Y010255D02*
X003685Y010255D01*
X003685Y010263D02*
X003518Y010263D01*
X003505Y010272D02*
X003685Y010272D01*
X003685Y010280D02*
X003492Y010280D01*
X003479Y010289D02*
X003685Y010289D01*
X003685Y010297D02*
X003467Y010297D01*
X003454Y010306D02*
X003685Y010306D01*
X003685Y010314D02*
X003441Y010314D01*
X003428Y010323D02*
X003685Y010323D01*
X003685Y010331D02*
X003416Y010331D01*
X003403Y010340D02*
X003685Y010340D01*
X003685Y010348D02*
X003390Y010348D01*
X003377Y010357D02*
X003676Y010357D01*
X003662Y010365D02*
X003365Y010365D01*
X003352Y010374D02*
X003648Y010374D01*
X003634Y010382D02*
X003339Y010382D01*
X003326Y010391D02*
X003620Y010391D01*
X003606Y010399D02*
X003314Y010399D01*
X003301Y010408D02*
X003592Y010408D01*
X003578Y010416D02*
X003117Y010416D01*
X003109Y010408D02*
X003288Y010408D01*
X003279Y010399D02*
X003100Y010399D01*
X003092Y010391D02*
X003271Y010391D01*
X003263Y010382D02*
X003083Y010382D01*
X003075Y010374D02*
X003255Y010374D01*
X003246Y010365D02*
X003071Y010365D01*
X003071Y010357D02*
X003238Y010357D01*
X003230Y010348D02*
X003071Y010348D01*
X003071Y010340D02*
X003221Y010340D01*
X003213Y010331D02*
X003071Y010331D01*
X003071Y010323D02*
X003205Y010323D01*
X003196Y010314D02*
X003071Y010314D01*
X003071Y010306D02*
X003188Y010306D01*
X003180Y010297D02*
X003071Y010297D01*
X003071Y010289D02*
X003171Y010289D01*
X003163Y010280D02*
X003071Y010280D01*
X003071Y010272D02*
X003155Y010272D01*
X003146Y010263D02*
X003071Y010263D01*
X003071Y010255D02*
X003138Y010255D01*
X003130Y010246D02*
X003071Y010246D01*
X003071Y010238D02*
X003122Y010238D01*
X003113Y010229D02*
X003071Y010229D01*
X003071Y010221D02*
X003105Y010221D01*
X003097Y010212D02*
X003071Y010212D01*
X003071Y010204D02*
X003088Y010204D01*
X003080Y010195D02*
X003071Y010195D01*
X003071Y010187D02*
X003072Y010187D01*
X003116Y010136D02*
X003175Y010136D01*
X003175Y010144D02*
X003124Y010144D01*
X003133Y010153D02*
X003175Y010153D01*
X003175Y010161D02*
X003141Y010161D01*
X003150Y010170D02*
X003175Y010170D01*
X003175Y010178D02*
X003158Y010178D01*
X003167Y010187D02*
X003175Y010187D01*
X003175Y010127D02*
X003107Y010127D01*
X003099Y010119D02*
X003175Y010119D01*
X003176Y010110D02*
X003090Y010110D01*
X003082Y010102D02*
X003176Y010102D01*
X003176Y010093D02*
X003073Y010093D01*
X003070Y010085D02*
X003176Y010085D01*
X003176Y010076D02*
X003070Y010076D01*
X003070Y010068D02*
X003176Y010068D01*
X003176Y010059D02*
X003070Y010059D01*
X003070Y010051D02*
X003176Y010051D01*
X003176Y010042D02*
X003070Y010042D01*
X002978Y009863D02*
X002968Y009855D01*
X002637Y009949D02*
X002020Y009949D01*
X002023Y009947D02*
X002006Y009961D01*
X001987Y009973D01*
X001967Y009981D01*
X001954Y009984D01*
X001941Y009983D01*
X001919Y009976D01*
X001900Y009965D01*
X001885Y009948D01*
X001874Y009928D01*
X001868Y009908D01*
X001866Y009887D01*
X001866Y009863D01*
X001866Y009863D01*
X001865Y009864D01*
X001852Y009881D01*
X001843Y009901D01*
X001837Y009915D01*
X001833Y009924D01*
X001824Y009959D01*
X001821Y009994D01*
X001824Y010028D01*
X001833Y010061D01*
X001848Y010092D01*
X001870Y010123D01*
X001896Y010150D01*
X001920Y010167D01*
X001947Y010178D01*
X001976Y010181D01*
X002005Y010177D01*
X002032Y010166D01*
X002101Y010119D01*
X002162Y010062D01*
X002180Y010047D01*
X002201Y010037D01*
X002224Y010033D01*
X002247Y010034D01*
X002269Y010042D01*
X002288Y010055D01*
X002303Y010073D01*
X002315Y010095D01*
X002323Y010119D01*
X002327Y010144D01*
X002326Y010173D01*
X002317Y010201D01*
X002302Y010226D01*
X002288Y010239D01*
X002271Y010248D01*
X002253Y010252D01*
X002236Y010252D01*
X002218Y010248D01*
X002211Y010244D01*
X002206Y010239D01*
X002182Y010206D01*
X002179Y010200D01*
X002177Y010193D01*
X002178Y010186D01*
X002175Y010205D01*
X002172Y010242D01*
X002175Y010279D01*
X002182Y010307D01*
X002195Y010332D01*
X002212Y010355D01*
X002234Y010373D01*
X002263Y010389D01*
X002294Y010398D01*
X002327Y010401D01*
X002924Y010401D01*
X002708Y010209D01*
X002677Y010175D01*
X002653Y010135D01*
X002648Y010120D01*
X002645Y010105D01*
X002645Y010015D01*
X002640Y009961D01*
X002626Y009909D01*
X002602Y009861D01*
X002570Y009815D01*
X002532Y009775D01*
X002488Y009740D01*
X002422Y009703D01*
X002350Y009678D01*
X002275Y009667D01*
X002199Y009669D01*
X002158Y009677D01*
X002119Y009691D01*
X002082Y009711D01*
X002037Y009747D01*
X002001Y009791D01*
X002036Y009791D01*
X002042Y009792D01*
X002047Y009794D01*
X002061Y009806D01*
X002072Y009821D01*
X002075Y009829D01*
X002077Y009852D01*
X002073Y009874D01*
X002063Y009894D01*
X002037Y009930D01*
X002023Y009947D01*
X002028Y009940D02*
X002634Y009940D01*
X002632Y009932D02*
X002036Y009932D01*
X002042Y009923D02*
X002629Y009923D01*
X002627Y009915D02*
X002048Y009915D01*
X002054Y009906D02*
X002624Y009906D01*
X002620Y009898D02*
X002060Y009898D01*
X002065Y009889D02*
X002616Y009889D01*
X002612Y009881D02*
X002070Y009881D01*
X002074Y009872D02*
X002607Y009872D01*
X002603Y009864D02*
X002075Y009864D01*
X002077Y009855D02*
X002598Y009855D01*
X002592Y009847D02*
X002077Y009847D01*
X002076Y009838D02*
X002586Y009838D01*
X002580Y009830D02*
X002075Y009830D01*
X002072Y009821D02*
X002574Y009821D01*
X002567Y009813D02*
X002066Y009813D01*
X002060Y009804D02*
X002559Y009804D01*
X002551Y009796D02*
X002049Y009796D01*
X002018Y009770D02*
X002526Y009770D01*
X002535Y009779D02*
X002011Y009779D01*
X002004Y009787D02*
X002543Y009787D01*
X002515Y009762D02*
X002025Y009762D01*
X002032Y009753D02*
X002504Y009753D01*
X002494Y009745D02*
X002040Y009745D01*
X002050Y009736D02*
X002481Y009736D01*
X002466Y009728D02*
X002061Y009728D01*
X002072Y009719D02*
X002451Y009719D01*
X002436Y009711D02*
X002083Y009711D01*
X002098Y009702D02*
X002420Y009702D01*
X002395Y009694D02*
X002114Y009694D01*
X002136Y009685D02*
X002371Y009685D01*
X002341Y009677D02*
X002161Y009677D01*
X002227Y009668D02*
X002285Y009668D01*
X001866Y009864D02*
X001865Y009864D01*
X001866Y009872D02*
X001859Y009872D01*
X001852Y009881D02*
X001866Y009881D01*
X001866Y009889D02*
X001848Y009889D01*
X001844Y009898D02*
X001867Y009898D01*
X001868Y009906D02*
X001841Y009906D01*
X001837Y009915D02*
X001870Y009915D01*
X001873Y009923D02*
X001833Y009923D01*
X001831Y009932D02*
X001876Y009932D01*
X001880Y009940D02*
X001829Y009940D01*
X001827Y009949D02*
X001885Y009949D01*
X001893Y009957D02*
X001825Y009957D01*
X001824Y009966D02*
X001902Y009966D01*
X001916Y009974D02*
X001823Y009974D01*
X001822Y009983D02*
X001940Y009983D01*
X001959Y009983D02*
X002642Y009983D01*
X002643Y009991D02*
X001821Y009991D01*
X001821Y010000D02*
X002644Y010000D01*
X002644Y010008D02*
X001822Y010008D01*
X001823Y010017D02*
X002645Y010017D01*
X002645Y010025D02*
X001823Y010025D01*
X001825Y010034D02*
X002218Y010034D01*
X002236Y010034D02*
X002645Y010034D01*
X002645Y010042D02*
X002269Y010042D01*
X002281Y010051D02*
X002645Y010051D01*
X002645Y010059D02*
X002291Y010059D01*
X002298Y010068D02*
X002645Y010068D01*
X002645Y010076D02*
X002305Y010076D01*
X002309Y010085D02*
X002645Y010085D01*
X002645Y010093D02*
X002314Y010093D01*
X002317Y010102D02*
X002645Y010102D01*
X002646Y010110D02*
X002320Y010110D01*
X002323Y010119D02*
X002647Y010119D01*
X002650Y010127D02*
X002324Y010127D01*
X002326Y010136D02*
X002653Y010136D01*
X002658Y010144D02*
X002327Y010144D01*
X002327Y010153D02*
X002663Y010153D01*
X002669Y010161D02*
X002326Y010161D01*
X002326Y010170D02*
X002674Y010170D01*
X002680Y010178D02*
X002324Y010178D01*
X002321Y010187D02*
X002688Y010187D01*
X002695Y010195D02*
X002319Y010195D01*
X002315Y010204D02*
X002703Y010204D01*
X002712Y010212D02*
X002310Y010212D01*
X002305Y010221D02*
X002721Y010221D01*
X002731Y010229D02*
X002299Y010229D01*
X002290Y010238D02*
X002740Y010238D01*
X002750Y010246D02*
X002275Y010246D01*
X002215Y010246D02*
X002172Y010246D01*
X002172Y010238D02*
X002205Y010238D01*
X002199Y010229D02*
X002173Y010229D01*
X002174Y010221D02*
X002193Y010221D01*
X002186Y010212D02*
X002174Y010212D01*
X002175Y010204D02*
X002181Y010204D01*
X002177Y010195D02*
X002178Y010195D01*
X002178Y010187D02*
X002178Y010187D01*
X002173Y010255D02*
X002759Y010255D01*
X002769Y010263D02*
X002174Y010263D01*
X002174Y010272D02*
X002778Y010272D01*
X002788Y010280D02*
X002175Y010280D01*
X002178Y010289D02*
X002798Y010289D01*
X002807Y010297D02*
X002180Y010297D01*
X002182Y010306D02*
X002817Y010306D01*
X002826Y010314D02*
X002186Y010314D01*
X002190Y010323D02*
X002836Y010323D01*
X002845Y010331D02*
X002194Y010331D01*
X002201Y010340D02*
X002855Y010340D01*
X002865Y010348D02*
X002207Y010348D01*
X002215Y010357D02*
X002874Y010357D01*
X002884Y010365D02*
X002225Y010365D01*
X002235Y010374D02*
X002893Y010374D01*
X002903Y010382D02*
X002251Y010382D01*
X002269Y010391D02*
X002912Y010391D01*
X002922Y010399D02*
X002305Y010399D01*
X002102Y010119D02*
X001867Y010119D01*
X001861Y010110D02*
X002111Y010110D01*
X002120Y010102D02*
X001855Y010102D01*
X001849Y010093D02*
X002129Y010093D01*
X002138Y010085D02*
X001844Y010085D01*
X001840Y010076D02*
X002147Y010076D01*
X002156Y010068D02*
X001836Y010068D01*
X001832Y010059D02*
X002165Y010059D01*
X002175Y010051D02*
X001830Y010051D01*
X001827Y010042D02*
X002190Y010042D01*
X002090Y010127D02*
X001874Y010127D01*
X001882Y010136D02*
X002077Y010136D01*
X002064Y010144D02*
X001890Y010144D01*
X001900Y010153D02*
X002052Y010153D01*
X002039Y010161D02*
X001912Y010161D01*
X001927Y010170D02*
X002023Y010170D01*
X001996Y010178D02*
X001953Y010178D01*
X001983Y009974D02*
X002641Y009974D01*
X002641Y009966D02*
X001998Y009966D01*
X002010Y009957D02*
X002639Y009957D01*
X003126Y010425D02*
X003564Y010425D01*
X003550Y010433D02*
X003134Y010433D01*
X003143Y010442D02*
X003535Y010442D01*
X003521Y010450D02*
X003151Y010450D01*
X003160Y010459D02*
X003507Y010459D01*
X003493Y010467D02*
X003168Y010467D01*
X003177Y010476D02*
X003479Y010476D01*
X003465Y010484D02*
X003185Y010484D01*
X003194Y010493D02*
X003451Y010493D01*
X003437Y010501D02*
X003202Y010501D01*
X003211Y010510D02*
X003423Y010510D01*
X003409Y010518D02*
X003219Y010518D01*
X003228Y010527D02*
X003411Y010527D01*
X003419Y010535D02*
X003236Y010535D01*
X003245Y010544D02*
X003427Y010544D01*
X003435Y010552D02*
X003253Y010552D01*
X003262Y010561D02*
X003444Y010561D01*
X003452Y010569D02*
X003270Y010569D01*
X003279Y010578D02*
X003460Y010578D01*
X003468Y010586D02*
X003287Y010586D01*
X003210Y010831D02*
X003058Y010831D01*
X003055Y010885D01*
X003058Y010913D01*
X003067Y010939D01*
X003081Y010963D01*
X003104Y010998D01*
X003116Y011014D01*
X003131Y011026D01*
X003172Y011053D01*
X003184Y011061D01*
X003186Y011067D01*
X003184Y011071D01*
X003071Y011071D01*
X003098Y011223D01*
X003684Y011224D01*
X003684Y011060D01*
X003376Y011060D01*
X003342Y011057D01*
X003309Y011049D01*
X003277Y011034D01*
X003249Y011013D01*
X003226Y010986D01*
X003215Y010966D01*
X003208Y010945D01*
X003204Y010923D01*
X003204Y010862D01*
X003209Y010838D01*
X003210Y010832D01*
X003210Y010831D01*
X003210Y010833D02*
X003058Y010833D01*
X003057Y010841D02*
X003208Y010841D01*
X003207Y010850D02*
X003057Y010850D01*
X003056Y010858D02*
X003205Y010858D01*
X003204Y010867D02*
X003056Y010867D01*
X003056Y010875D02*
X003204Y010875D01*
X003204Y010884D02*
X003055Y010884D01*
X003056Y010892D02*
X003204Y010892D01*
X003204Y010901D02*
X003057Y010901D01*
X003058Y010909D02*
X003204Y010909D01*
X003204Y010918D02*
X003060Y010918D01*
X003063Y010926D02*
X003205Y010926D01*
X003206Y010935D02*
X003066Y010935D01*
X003070Y010943D02*
X003207Y010943D01*
X003210Y010952D02*
X003074Y010952D01*
X003079Y010960D02*
X003213Y010960D01*
X003216Y010969D02*
X003085Y010969D01*
X003090Y010977D02*
X003221Y010977D01*
X003226Y010986D02*
X003096Y010986D01*
X003102Y010994D02*
X003233Y010994D01*
X003240Y011003D02*
X003108Y011003D01*
X003114Y011011D02*
X003247Y011011D01*
X003257Y011020D02*
X003123Y011020D01*
X003134Y011028D02*
X003269Y011028D01*
X003282Y011037D02*
X003147Y011037D01*
X003160Y011045D02*
X003301Y011045D01*
X003328Y011054D02*
X003173Y011054D01*
X003184Y011062D02*
X003684Y011062D01*
X003684Y011071D02*
X003184Y011071D01*
X003074Y011088D02*
X003684Y011088D01*
X003684Y011096D02*
X003075Y011096D01*
X003077Y011105D02*
X003684Y011105D01*
X003684Y011113D02*
X003078Y011113D01*
X003080Y011122D02*
X003684Y011122D01*
X003684Y011130D02*
X003082Y011130D01*
X003083Y011139D02*
X003684Y011139D01*
X003684Y011147D02*
X003085Y011147D01*
X003086Y011156D02*
X003684Y011156D01*
X003684Y011164D02*
X003088Y011164D01*
X003089Y011173D02*
X003684Y011173D01*
X003684Y011181D02*
X003091Y011181D01*
X003092Y011190D02*
X003684Y011190D01*
X003684Y011198D02*
X003094Y011198D01*
X003095Y011207D02*
X003684Y011207D01*
X003684Y011215D02*
X003097Y011215D01*
X003072Y011079D02*
X003684Y011079D01*
X003684Y011224D02*
X003500Y011224D01*
X003571Y011331D02*
X003400Y011330D01*
X003400Y011491D01*
X003433Y011491D01*
X003476Y011494D01*
X003519Y011502D01*
X003526Y011504D01*
X003537Y011509D01*
X003546Y011515D01*
X003575Y011545D01*
X003583Y011557D01*
X003588Y011571D01*
X003594Y011613D01*
X003592Y011674D01*
X003588Y011693D01*
X003579Y011711D01*
X003567Y011726D01*
X003556Y011734D01*
X003544Y011740D01*
X003531Y011743D01*
X003507Y011743D01*
X003483Y011739D01*
X003461Y011730D01*
X003448Y011721D01*
X003438Y011710D01*
X003426Y011691D01*
X003418Y011669D01*
X003414Y011647D01*
X003408Y011590D01*
X003401Y011551D01*
X003390Y011513D01*
X003386Y011505D01*
X003380Y011498D01*
X003372Y011493D01*
X003372Y011491D01*
X003396Y011491D01*
X003396Y011331D01*
X003206Y011331D01*
X003177Y011335D01*
X003150Y011345D01*
X003126Y011362D01*
X003107Y011384D01*
X003080Y011435D01*
X003063Y011491D01*
X003054Y011559D01*
X003054Y011628D01*
X003062Y011697D01*
X003075Y011745D01*
X003096Y011791D01*
X003119Y011823D01*
X003147Y011850D01*
X003181Y011871D01*
X003218Y011884D01*
X003257Y011889D01*
X003256Y011890D01*
X003256Y011723D01*
X003254Y011723D01*
X003232Y011720D01*
X003212Y011713D01*
X003193Y011700D01*
X003063Y011700D01*
X003065Y011708D02*
X003205Y011708D01*
X003193Y011700D02*
X003179Y011684D01*
X003168Y011665D01*
X003161Y011642D01*
X003159Y011618D01*
X003161Y011564D01*
X003164Y011549D01*
X003169Y011534D01*
X003177Y011521D01*
X003187Y011510D01*
X003199Y011502D01*
X003212Y011496D01*
X003234Y011491D01*
X003256Y011491D01*
X003277Y011496D01*
X003282Y011498D01*
X003286Y011501D01*
X003297Y011513D01*
X003307Y011531D01*
X003314Y011550D01*
X003323Y011602D01*
X003332Y011689D01*
X003343Y011750D01*
X003362Y011808D01*
X003376Y011835D01*
X003396Y011859D01*
X003420Y011879D01*
X003454Y011896D01*
X003491Y011904D01*
X003533Y011904D01*
X003574Y011897D01*
X003613Y011882D01*
X003632Y011871D01*
X003649Y011856D01*
X003662Y011838D01*
X003686Y011788D01*
X003698Y011734D01*
X003699Y011670D01*
X003690Y011606D01*
X003676Y011565D01*
X003655Y011528D01*
X003627Y011495D01*
X003626Y011493D01*
X003625Y011490D01*
X003626Y011488D01*
X003628Y011486D01*
X003630Y011485D01*
X003671Y011476D01*
X003682Y011473D01*
X003683Y011472D01*
X003684Y011471D01*
X003684Y011469D01*
X003684Y011310D01*
X003676Y011313D01*
X003624Y011327D01*
X003571Y011331D01*
X003629Y011326D02*
X003684Y011326D01*
X003684Y011334D02*
X003400Y011334D01*
X003396Y011334D02*
X003180Y011334D01*
X003156Y011343D02*
X003396Y011343D01*
X003400Y011343D02*
X003684Y011343D01*
X003684Y011351D02*
X003400Y011351D01*
X003396Y011351D02*
X003141Y011351D01*
X003129Y011360D02*
X003396Y011360D01*
X003400Y011360D02*
X003684Y011360D01*
X003684Y011368D02*
X003400Y011368D01*
X003396Y011368D02*
X003121Y011368D01*
X003113Y011377D02*
X003396Y011377D01*
X003400Y011377D02*
X003684Y011377D01*
X003684Y011385D02*
X003400Y011385D01*
X003396Y011385D02*
X003106Y011385D01*
X003102Y011394D02*
X003396Y011394D01*
X003400Y011394D02*
X003684Y011394D01*
X003684Y011402D02*
X003400Y011402D01*
X003396Y011402D02*
X003097Y011402D01*
X003093Y011411D02*
X003396Y011411D01*
X003400Y011411D02*
X003684Y011411D01*
X003684Y011419D02*
X003400Y011419D01*
X003396Y011419D02*
X003088Y011419D01*
X003084Y011428D02*
X003396Y011428D01*
X003400Y011428D02*
X003684Y011428D01*
X003684Y011436D02*
X003400Y011436D01*
X003396Y011436D02*
X003079Y011436D01*
X003077Y011445D02*
X003396Y011445D01*
X003400Y011445D02*
X003684Y011445D01*
X003684Y011453D02*
X003400Y011453D01*
X003396Y011453D02*
X003074Y011453D01*
X003072Y011462D02*
X003396Y011462D01*
X003400Y011462D02*
X003684Y011462D01*
X003684Y011470D02*
X003400Y011470D01*
X003396Y011470D02*
X003069Y011470D01*
X003067Y011479D02*
X003396Y011479D01*
X003400Y011479D02*
X003659Y011479D01*
X003627Y011487D02*
X003400Y011487D01*
X003396Y011487D02*
X003064Y011487D01*
X003062Y011496D02*
X003213Y011496D01*
X003195Y011504D02*
X003061Y011504D01*
X003060Y011513D02*
X003185Y011513D01*
X003177Y011521D02*
X003059Y011521D01*
X003058Y011530D02*
X003172Y011530D01*
X003167Y011538D02*
X003057Y011538D01*
X003056Y011547D02*
X003164Y011547D01*
X003162Y011555D02*
X003055Y011555D01*
X003054Y011564D02*
X003161Y011564D01*
X003161Y011572D02*
X003054Y011572D01*
X003054Y011581D02*
X003160Y011581D01*
X003160Y011589D02*
X003054Y011589D01*
X003054Y011598D02*
X003160Y011598D01*
X003159Y011606D02*
X003054Y011606D01*
X003054Y011615D02*
X003159Y011615D01*
X003159Y011623D02*
X003054Y011623D01*
X003054Y011632D02*
X003160Y011632D01*
X003161Y011640D02*
X003055Y011640D01*
X003056Y011649D02*
X003163Y011649D01*
X003166Y011657D02*
X003057Y011657D01*
X003058Y011666D02*
X003168Y011666D01*
X003173Y011674D02*
X003059Y011674D01*
X003060Y011683D02*
X003178Y011683D01*
X003185Y011691D02*
X003061Y011691D01*
X003067Y011717D02*
X003222Y011717D01*
X003256Y011725D02*
X003070Y011725D01*
X003072Y011734D02*
X003256Y011734D01*
X003256Y011742D02*
X003074Y011742D01*
X003078Y011751D02*
X003256Y011751D01*
X003256Y011759D02*
X003081Y011759D01*
X003085Y011768D02*
X003256Y011768D01*
X003256Y011776D02*
X003089Y011776D01*
X003093Y011785D02*
X003256Y011785D01*
X003256Y011793D02*
X003098Y011793D01*
X003104Y011802D02*
X003256Y011802D01*
X003256Y011810D02*
X003109Y011810D01*
X003115Y011819D02*
X003256Y011819D01*
X003256Y011827D02*
X003123Y011827D01*
X003132Y011836D02*
X003256Y011836D01*
X003256Y011844D02*
X003141Y011844D01*
X003152Y011853D02*
X003256Y011853D01*
X003256Y011861D02*
X003166Y011861D01*
X003180Y011870D02*
X003256Y011870D01*
X003256Y011878D02*
X003203Y011878D01*
X003240Y011887D02*
X003256Y011887D01*
X003284Y011977D02*
X003371Y011966D01*
X003458Y011971D01*
X003512Y011984D01*
X003563Y012006D01*
X003610Y012036D01*
X003638Y012062D01*
X003661Y012092D01*
X003678Y012126D01*
X003690Y012162D01*
X003697Y012210D01*
X003698Y012258D01*
X003692Y012306D01*
X003682Y012339D01*
X003664Y012370D01*
X003641Y012396D01*
X003613Y012416D01*
X003496Y012416D01*
X003493Y012413D01*
X003495Y012413D01*
X003499Y012412D01*
X003502Y012410D01*
X003505Y012408D01*
X003528Y012396D01*
X003547Y012379D01*
X003562Y012358D01*
X003574Y012330D01*
X003580Y012301D01*
X003580Y012264D01*
X003573Y012228D01*
X003559Y012198D01*
X003538Y012172D01*
X003511Y012153D01*
X003480Y012141D01*
X003402Y012129D01*
X003324Y012129D01*
X003285Y012137D01*
X003248Y012153D01*
X003217Y012177D01*
X003191Y012208D01*
X003180Y012229D01*
X003174Y012251D01*
X003172Y012274D01*
X003174Y012317D01*
X003177Y012333D01*
X003184Y012347D01*
X003207Y012376D01*
X003234Y012400D01*
X003263Y012417D01*
X003294Y012428D01*
X003327Y012432D01*
X003428Y012431D01*
X003459Y012426D01*
X003486Y012417D01*
X003487Y012417D01*
X003489Y012417D01*
X003490Y012419D01*
X003490Y012420D01*
X003490Y012425D01*
X004053Y012425D01*
X003906Y012588D01*
X003096Y012588D01*
X003067Y012435D01*
X003146Y012436D01*
X003149Y012433D01*
X003150Y012431D01*
X003140Y012422D01*
X003102Y012387D01*
X003090Y012373D01*
X003081Y012358D01*
X003060Y012306D01*
X003056Y012287D01*
X003055Y012209D01*
X003062Y012166D01*
X003078Y012126D01*
X003099Y012090D01*
X003125Y012058D01*
X003160Y012027D01*
X003201Y012004D01*
X003284Y011977D01*
X003276Y011980D02*
X003497Y011980D01*
X003524Y011989D02*
X003249Y011989D01*
X003222Y011997D02*
X003544Y011997D01*
X003564Y012006D02*
X003198Y012006D01*
X003183Y012014D02*
X003577Y012014D01*
X003590Y012023D02*
X003167Y012023D01*
X003155Y012031D02*
X003603Y012031D01*
X003614Y012040D02*
X003146Y012040D01*
X003136Y012048D02*
X003623Y012048D01*
X003632Y012057D02*
X003126Y012057D01*
X003119Y012065D02*
X003640Y012065D01*
X003647Y012074D02*
X003113Y012074D01*
X003106Y012082D02*
X003653Y012082D01*
X003660Y012091D02*
X003099Y012091D01*
X003094Y012099D02*
X003665Y012099D01*
X003669Y012108D02*
X003089Y012108D01*
X003084Y012116D02*
X003673Y012116D01*
X003678Y012125D02*
X003079Y012125D01*
X003075Y012133D02*
X003303Y012133D01*
X003274Y012142D02*
X003072Y012142D01*
X003069Y012150D02*
X003255Y012150D01*
X003241Y012159D02*
X003065Y012159D01*
X003062Y012167D02*
X003230Y012167D01*
X003219Y012176D02*
X003061Y012176D01*
X003059Y012184D02*
X003211Y012184D01*
X003204Y012193D02*
X003058Y012193D01*
X003056Y012201D02*
X003197Y012201D01*
X003190Y012210D02*
X003055Y012210D01*
X003055Y012218D02*
X003186Y012218D01*
X003181Y012227D02*
X003055Y012227D01*
X003055Y012235D02*
X003178Y012235D01*
X003176Y012244D02*
X003055Y012244D01*
X003056Y012252D02*
X003174Y012252D01*
X003173Y012261D02*
X003056Y012261D01*
X003056Y012269D02*
X003172Y012269D01*
X003172Y012278D02*
X003056Y012278D01*
X003056Y012286D02*
X003173Y012286D01*
X003173Y012295D02*
X003058Y012295D01*
X003059Y012303D02*
X003173Y012303D01*
X003174Y012312D02*
X003062Y012312D01*
X003066Y012320D02*
X003175Y012320D01*
X003176Y012329D02*
X003069Y012329D01*
X003073Y012337D02*
X003179Y012337D01*
X003183Y012346D02*
X003076Y012346D01*
X003079Y012354D02*
X003190Y012354D01*
X003196Y012363D02*
X003084Y012363D01*
X003089Y012371D02*
X003203Y012371D01*
X003211Y012380D02*
X003096Y012380D01*
X003103Y012388D02*
X003221Y012388D01*
X003230Y012397D02*
X003113Y012397D01*
X003122Y012405D02*
X003243Y012405D01*
X003258Y012414D02*
X003131Y012414D01*
X003140Y012422D02*
X003279Y012422D01*
X003318Y012431D02*
X003150Y012431D01*
X003069Y012448D02*
X004032Y012448D01*
X004025Y012456D02*
X003071Y012456D01*
X003073Y012465D02*
X004017Y012465D01*
X004009Y012473D02*
X003074Y012473D01*
X003076Y012482D02*
X004002Y012482D01*
X003994Y012490D02*
X003077Y012490D01*
X003079Y012499D02*
X003986Y012499D01*
X003979Y012507D02*
X003081Y012507D01*
X003082Y012516D02*
X003971Y012516D01*
X003963Y012524D02*
X003084Y012524D01*
X003086Y012533D02*
X003956Y012533D01*
X003948Y012541D02*
X003087Y012541D01*
X003089Y012550D02*
X003940Y012550D01*
X003933Y012558D02*
X003090Y012558D01*
X003092Y012567D02*
X003925Y012567D01*
X003917Y012575D02*
X003094Y012575D01*
X003095Y012584D02*
X003910Y012584D01*
X004040Y012439D02*
X003068Y012439D01*
X003189Y012696D02*
X003158Y012710D01*
X003141Y012721D01*
X003125Y012735D01*
X003095Y012773D01*
X003074Y012816D01*
X003060Y012869D01*
X003054Y012924D01*
X003054Y012995D01*
X003060Y013051D01*
X003146Y013051D01*
X003138Y013051D02*
X003188Y013051D01*
X003189Y013052D02*
X003177Y013042D01*
X003169Y013029D01*
X003163Y013011D01*
X003159Y012993D01*
X003157Y012959D01*
X003159Y012925D01*
X003163Y012905D01*
X003171Y012885D01*
X003182Y012868D01*
X003193Y012856D01*
X003206Y012847D01*
X003221Y012841D01*
X003231Y012839D01*
X003143Y012839D01*
X003151Y012839D02*
X003068Y012839D01*
X003065Y012847D02*
X003148Y012847D01*
X003140Y012847D02*
X003206Y012847D01*
X003194Y012856D02*
X003138Y012856D01*
X003145Y012856D02*
X003063Y012856D01*
X003061Y012864D02*
X003142Y012864D01*
X003135Y012864D02*
X003186Y012864D01*
X003179Y012873D02*
X003133Y012873D01*
X003140Y012873D02*
X003059Y012873D01*
X003058Y012881D02*
X003137Y012881D01*
X003130Y012881D02*
X003174Y012881D01*
X003169Y012890D02*
X003128Y012890D01*
X003134Y012890D02*
X003057Y012890D01*
X003057Y012898D02*
X003132Y012898D01*
X003125Y012898D02*
X003166Y012898D01*
X003163Y012907D02*
X003123Y012907D01*
X003129Y012907D02*
X003056Y012907D01*
X003055Y012915D02*
X003126Y012915D01*
X003121Y012915D02*
X003161Y012915D01*
X003159Y012924D02*
X003118Y012924D01*
X003123Y012924D02*
X003054Y012924D01*
X003054Y012932D02*
X003121Y012932D01*
X003116Y012932D02*
X003159Y012932D01*
X003158Y012941D02*
X003113Y012941D01*
X003118Y012941D02*
X003054Y012941D01*
X003054Y012949D02*
X003115Y012949D01*
X003115Y012950D02*
X003168Y012784D01*
X003225Y012707D01*
X003211Y012688D01*
X003189Y012696D01*
X003194Y012694D02*
X003216Y012694D01*
X003210Y012694D02*
X003242Y012694D01*
X003242Y012686D02*
X003235Y012686D01*
X003242Y012685D02*
X003214Y012688D01*
X003163Y012769D01*
X003111Y012948D01*
X003154Y013113D01*
X003274Y013092D01*
X003377Y012919D01*
X003468Y012752D01*
X003596Y012795D01*
X003631Y012950D01*
X003490Y013235D01*
X003638Y012954D01*
X003602Y012792D01*
X003471Y012748D01*
X003457Y012755D01*
X003268Y013080D01*
X003160Y013099D01*
X003115Y012950D01*
X003111Y012949D02*
X003158Y012949D01*
X003157Y012958D02*
X003114Y012958D01*
X003117Y012958D02*
X003054Y012958D01*
X003054Y012966D02*
X003120Y012966D01*
X003116Y012966D02*
X003158Y012966D01*
X003158Y012975D02*
X003118Y012975D01*
X003122Y012975D02*
X003054Y012975D01*
X003054Y012983D02*
X003125Y012983D01*
X003120Y012983D02*
X003159Y012983D01*
X003159Y012992D02*
X003122Y012992D01*
X003128Y012992D02*
X003054Y012992D01*
X003055Y013000D02*
X003130Y013000D01*
X003125Y013000D02*
X003160Y013000D01*
X003162Y013009D02*
X003127Y013009D01*
X003133Y013009D02*
X003056Y013009D01*
X003056Y013017D02*
X003135Y013017D01*
X003129Y013017D02*
X003165Y013017D01*
X003168Y013026D02*
X003131Y013026D01*
X003138Y013026D02*
X003057Y013026D01*
X003058Y013034D02*
X003140Y013034D01*
X003133Y013034D02*
X003172Y013034D01*
X003178Y013043D02*
X003136Y013043D01*
X003143Y013043D02*
X003059Y013043D01*
X003060Y013051D02*
X003076Y013106D01*
X003102Y013156D01*
X003117Y013175D01*
X003134Y013190D01*
X003155Y013202D01*
X003198Y013216D01*
X003242Y013221D01*
X003287Y013217D01*
X003306Y013211D01*
X003324Y013201D01*
X003339Y013188D01*
X003360Y013161D01*
X003377Y013132D01*
X003389Y013100D01*
X003423Y012957D01*
X003435Y012910D01*
X003454Y012866D01*
X003464Y012852D01*
X003477Y012841D01*
X003492Y012833D01*
X003509Y012829D01*
X003526Y012830D01*
X003542Y012835D01*
X003557Y012844D01*
X003569Y012856D01*
X003582Y012877D01*
X003590Y012900D01*
X003593Y012925D01*
X003593Y012978D01*
X003590Y013001D01*
X003581Y013025D01*
X003567Y013047D01*
X003549Y013065D01*
X003532Y013076D01*
X003512Y013082D01*
X003492Y013083D01*
X003490Y013083D01*
X003490Y013235D01*
X003504Y013234D01*
X003527Y013230D01*
X003577Y013213D01*
X003600Y013201D01*
X003621Y013184D01*
X003638Y013164D01*
X003668Y013117D01*
X003684Y013083D01*
X003692Y013047D01*
X003699Y012946D01*
X003697Y012894D01*
X003690Y012842D01*
X003679Y012803D01*
X003661Y012766D01*
X003637Y012733D01*
X003608Y012704D01*
X003586Y012689D01*
X003561Y012679D01*
X003535Y012673D01*
X003494Y012670D01*
X003452Y012674D01*
X003413Y012687D01*
X003397Y012697D01*
X003383Y012710D01*
X003363Y012737D01*
X003347Y012767D01*
X003323Y012832D01*
X003308Y012900D01*
X003292Y012980D01*
X003281Y013010D01*
X003264Y013038D01*
X003251Y013050D01*
X003236Y013058D01*
X003220Y013061D01*
X003204Y013059D01*
X003189Y013052D01*
X003212Y013060D02*
X003140Y013060D01*
X003148Y013060D02*
X003063Y013060D01*
X003065Y013068D02*
X003151Y013068D01*
X003142Y013068D02*
X003288Y013068D01*
X003293Y013060D02*
X003226Y013060D01*
X003249Y013051D02*
X003298Y013051D01*
X003303Y013043D02*
X003259Y013043D01*
X003266Y013034D02*
X003308Y013034D01*
X003313Y013026D02*
X003272Y013026D01*
X003277Y013017D02*
X003319Y013017D01*
X003324Y013009D02*
X003282Y013009D01*
X003285Y013000D02*
X003329Y013000D01*
X003334Y012992D02*
X003288Y012992D01*
X003291Y012983D02*
X003339Y012983D01*
X003344Y012975D02*
X003293Y012975D01*
X003295Y012966D02*
X003349Y012966D01*
X003354Y012958D02*
X003296Y012958D01*
X003298Y012949D02*
X003359Y012949D01*
X003364Y012941D02*
X003300Y012941D01*
X003302Y012932D02*
X003369Y012932D01*
X003374Y012924D02*
X003303Y012924D01*
X003305Y012915D02*
X003379Y012915D01*
X003384Y012907D02*
X003307Y012907D01*
X003308Y012898D02*
X003388Y012898D01*
X003393Y012890D02*
X003310Y012890D01*
X003312Y012881D02*
X003398Y012881D01*
X003402Y012873D02*
X003314Y012873D01*
X003316Y012864D02*
X003407Y012864D01*
X003411Y012856D02*
X003318Y012856D01*
X003320Y012847D02*
X003416Y012847D01*
X003421Y012839D02*
X003322Y012839D01*
X003324Y012830D02*
X003425Y012830D01*
X003430Y012822D02*
X003327Y012822D01*
X003330Y012813D02*
X003435Y012813D01*
X003439Y012805D02*
X003333Y012805D01*
X003336Y012796D02*
X003444Y012796D01*
X003449Y012788D02*
X003339Y012788D01*
X003343Y012779D02*
X003453Y012779D01*
X003458Y012771D02*
X003346Y012771D01*
X003350Y012762D02*
X003462Y012762D01*
X003460Y012754D02*
X003488Y012754D01*
X003498Y012762D02*
X003659Y012762D01*
X003663Y012771D02*
X003524Y012771D01*
X003513Y012762D02*
X003453Y012762D01*
X003448Y012771D02*
X003539Y012771D01*
X003549Y012779D02*
X003668Y012779D01*
X003672Y012788D02*
X003574Y012788D01*
X003564Y012779D02*
X003443Y012779D01*
X003438Y012788D02*
X003589Y012788D01*
X003596Y012796D02*
X003676Y012796D01*
X003679Y012805D02*
X003598Y012805D01*
X003605Y012805D02*
X003428Y012805D01*
X003423Y012813D02*
X003607Y012813D01*
X003600Y012813D02*
X003682Y012813D01*
X003684Y012822D02*
X003602Y012822D01*
X003609Y012822D02*
X003418Y012822D01*
X003413Y012830D02*
X003504Y012830D01*
X003527Y012830D02*
X003611Y012830D01*
X003604Y012830D02*
X003687Y012830D01*
X003689Y012839D02*
X003606Y012839D01*
X003612Y012839D02*
X003549Y012839D01*
X003560Y012847D02*
X003614Y012847D01*
X003608Y012847D02*
X003691Y012847D01*
X003692Y012856D02*
X003610Y012856D01*
X003616Y012856D02*
X003569Y012856D01*
X003574Y012864D02*
X003618Y012864D01*
X003612Y012864D02*
X003693Y012864D01*
X003694Y012873D02*
X003614Y012873D01*
X003620Y012873D02*
X003579Y012873D01*
X003583Y012881D02*
X003622Y012881D01*
X003615Y012881D02*
X003695Y012881D01*
X003697Y012890D02*
X003617Y012890D01*
X003624Y012890D02*
X003586Y012890D01*
X003589Y012898D02*
X003626Y012898D01*
X003619Y012898D02*
X003697Y012898D01*
X003698Y012907D02*
X003621Y012907D01*
X003627Y012907D02*
X003591Y012907D01*
X003592Y012915D02*
X003629Y012915D01*
X003623Y012915D02*
X003698Y012915D01*
X003698Y012924D02*
X003625Y012924D01*
X003631Y012924D02*
X003593Y012924D01*
X003593Y012932D02*
X003633Y012932D01*
X003627Y012932D02*
X003699Y012932D01*
X003699Y012941D02*
X003629Y012941D01*
X003635Y012941D02*
X003593Y012941D01*
X003593Y012949D02*
X003637Y012949D01*
X003631Y012949D02*
X003699Y012949D01*
X003698Y012958D02*
X003627Y012958D01*
X003636Y012958D02*
X003593Y012958D01*
X003593Y012966D02*
X003632Y012966D01*
X003623Y012966D02*
X003698Y012966D01*
X003697Y012975D02*
X003619Y012975D01*
X003627Y012975D02*
X003593Y012975D01*
X003592Y012983D02*
X003623Y012983D01*
X003615Y012983D02*
X003696Y012983D01*
X003696Y012992D02*
X003610Y012992D01*
X003618Y012992D02*
X003591Y012992D01*
X003590Y013000D02*
X003614Y013000D01*
X003606Y013000D02*
X003695Y013000D01*
X003695Y013009D02*
X003602Y013009D01*
X003609Y013009D02*
X003587Y013009D01*
X003584Y013017D02*
X003605Y013017D01*
X003598Y013017D02*
X003694Y013017D01*
X003693Y013026D02*
X003594Y013026D01*
X003600Y013026D02*
X003581Y013026D01*
X003575Y013034D02*
X003596Y013034D01*
X003589Y013034D02*
X003693Y013034D01*
X003692Y013043D02*
X003585Y013043D01*
X003591Y013043D02*
X003570Y013043D01*
X003563Y013051D02*
X003587Y013051D01*
X003581Y013051D02*
X003691Y013051D01*
X003689Y013060D02*
X003577Y013060D01*
X003582Y013060D02*
X003554Y013060D01*
X003544Y013068D02*
X003578Y013068D01*
X003572Y013068D02*
X003687Y013068D01*
X003685Y013077D02*
X003568Y013077D01*
X003573Y013077D02*
X003528Y013077D01*
X003560Y013094D02*
X003679Y013094D01*
X003675Y013102D02*
X003556Y013102D01*
X003560Y013102D02*
X003490Y013102D01*
X003490Y013094D02*
X003564Y013094D01*
X003564Y013085D02*
X003683Y013085D01*
X003671Y013111D02*
X003551Y013111D01*
X003555Y013111D02*
X003490Y013111D01*
X003490Y013119D02*
X003551Y013119D01*
X003547Y013119D02*
X003667Y013119D01*
X003661Y013128D02*
X003543Y013128D01*
X003546Y013128D02*
X003490Y013128D01*
X003490Y013136D02*
X003542Y013136D01*
X003539Y013136D02*
X003656Y013136D01*
X003650Y013145D02*
X003535Y013145D01*
X003538Y013145D02*
X003490Y013145D01*
X003490Y013153D02*
X003533Y013153D01*
X003530Y013153D02*
X003645Y013153D01*
X003639Y013162D02*
X003526Y013162D01*
X003529Y013162D02*
X003490Y013162D01*
X003490Y013170D02*
X003524Y013170D01*
X003522Y013170D02*
X003633Y013170D01*
X003626Y013179D02*
X003518Y013179D01*
X003520Y013179D02*
X003490Y013179D01*
X003490Y013187D02*
X003515Y013187D01*
X003514Y013187D02*
X003617Y013187D01*
X003607Y013196D02*
X003509Y013196D01*
X003511Y013196D02*
X003490Y013196D01*
X003490Y013204D02*
X003506Y013204D01*
X003505Y013204D02*
X003594Y013204D01*
X003577Y013213D02*
X003501Y013213D01*
X003502Y013213D02*
X003490Y013213D01*
X003490Y013221D02*
X003497Y013221D01*
X003553Y013221D01*
X003528Y013230D02*
X003493Y013230D01*
X003490Y013230D01*
X003490Y013085D02*
X003569Y013085D01*
X003403Y013043D02*
X003290Y013043D01*
X003285Y013051D02*
X003401Y013051D01*
X003399Y013060D02*
X003280Y013060D01*
X003275Y013068D02*
X003397Y013068D01*
X003395Y013077D02*
X003270Y013077D01*
X003278Y013085D02*
X003147Y013085D01*
X003145Y013077D02*
X003283Y013077D01*
X003264Y013094D02*
X003149Y013094D01*
X003151Y013102D02*
X003215Y013102D01*
X003190Y013094D02*
X003391Y013094D01*
X003388Y013102D02*
X003075Y013102D01*
X003073Y013094D02*
X003158Y013094D01*
X003156Y013085D02*
X003070Y013085D01*
X003068Y013077D02*
X003153Y013077D01*
X003153Y013111D02*
X003167Y013111D01*
X003238Y013085D02*
X003393Y013085D01*
X003385Y013111D02*
X003079Y013111D01*
X003083Y013119D02*
X003382Y013119D01*
X003379Y013128D02*
X003088Y013128D01*
X003092Y013136D02*
X003374Y013136D01*
X003370Y013145D02*
X003096Y013145D01*
X003101Y013153D02*
X003365Y013153D01*
X003360Y013162D02*
X003106Y013162D01*
X003113Y013170D02*
X003353Y013170D01*
X003346Y013179D02*
X003121Y013179D01*
X003131Y013187D02*
X003340Y013187D01*
X003330Y013196D02*
X003144Y013196D01*
X003162Y013204D02*
X003318Y013204D01*
X003301Y013213D02*
X003188Y013213D01*
X003295Y013034D02*
X003405Y013034D01*
X003407Y013026D02*
X003300Y013026D01*
X003304Y013017D02*
X003409Y013017D01*
X003411Y013009D02*
X003309Y013009D01*
X003314Y013000D02*
X003413Y013000D01*
X003415Y012992D02*
X003319Y012992D01*
X003324Y012983D02*
X003417Y012983D01*
X003419Y012975D02*
X003329Y012975D01*
X003334Y012966D02*
X003421Y012966D01*
X003423Y012958D02*
X003339Y012958D01*
X003344Y012949D02*
X003425Y012949D01*
X003427Y012941D02*
X003349Y012941D01*
X003354Y012932D02*
X003429Y012932D01*
X003432Y012924D02*
X003359Y012924D01*
X003364Y012915D02*
X003434Y012915D01*
X003437Y012907D02*
X003369Y012907D01*
X003374Y012898D02*
X003440Y012898D01*
X003444Y012890D02*
X003379Y012890D01*
X003384Y012881D02*
X003448Y012881D01*
X003451Y012873D02*
X003389Y012873D01*
X003393Y012864D02*
X003455Y012864D01*
X003461Y012856D02*
X003398Y012856D01*
X003403Y012847D02*
X003469Y012847D01*
X003480Y012839D02*
X003408Y012839D01*
X003433Y012796D02*
X003603Y012796D01*
X003652Y012754D02*
X003473Y012754D01*
X003467Y012754D02*
X003354Y012754D01*
X003359Y012745D02*
X003646Y012745D01*
X003640Y012737D02*
X003363Y012737D01*
X003370Y012728D02*
X003633Y012728D01*
X003624Y012720D02*
X003376Y012720D01*
X003382Y012711D02*
X003615Y012711D01*
X003606Y012703D02*
X003391Y012703D01*
X003401Y012694D02*
X003593Y012694D01*
X003578Y012686D02*
X003417Y012686D01*
X003442Y012677D02*
X003555Y012677D01*
X003490Y012422D02*
X003470Y012422D01*
X003494Y012414D02*
X003616Y012414D01*
X003628Y012405D02*
X003510Y012405D01*
X003526Y012397D02*
X003639Y012397D01*
X003648Y012388D02*
X003536Y012388D01*
X003546Y012380D02*
X003655Y012380D01*
X003663Y012371D02*
X003553Y012371D01*
X003559Y012363D02*
X003668Y012363D01*
X003673Y012354D02*
X003564Y012354D01*
X003567Y012346D02*
X003678Y012346D01*
X003682Y012337D02*
X003571Y012337D01*
X003574Y012329D02*
X003685Y012329D01*
X003688Y012320D02*
X003576Y012320D01*
X003578Y012312D02*
X003690Y012312D01*
X003692Y012303D02*
X003580Y012303D01*
X003580Y012295D02*
X003693Y012295D01*
X003695Y012286D02*
X003580Y012286D01*
X003580Y012278D02*
X003696Y012278D01*
X003697Y012269D02*
X003580Y012269D01*
X003580Y012261D02*
X003698Y012261D01*
X003698Y012252D02*
X003578Y012252D01*
X003576Y012244D02*
X003698Y012244D01*
X003698Y012235D02*
X003574Y012235D01*
X003572Y012227D02*
X003698Y012227D01*
X003698Y012218D02*
X003569Y012218D01*
X003565Y012210D02*
X003697Y012210D01*
X003696Y012201D02*
X003561Y012201D01*
X003555Y012193D02*
X003695Y012193D01*
X003693Y012184D02*
X003548Y012184D01*
X003541Y012176D02*
X003692Y012176D01*
X003691Y012167D02*
X003531Y012167D01*
X003519Y012159D02*
X003689Y012159D01*
X003686Y012150D02*
X003504Y012150D01*
X003482Y012142D02*
X003684Y012142D01*
X003681Y012133D02*
X003430Y012133D01*
X003461Y011972D02*
X003329Y011972D01*
X003409Y011870D02*
X003633Y011870D01*
X003642Y011861D02*
X003398Y011861D01*
X003391Y011853D02*
X003651Y011853D01*
X003657Y011844D02*
X003384Y011844D01*
X003377Y011836D02*
X003663Y011836D01*
X003667Y011827D02*
X003372Y011827D01*
X003368Y011819D02*
X003671Y011819D01*
X003675Y011810D02*
X003363Y011810D01*
X003360Y011802D02*
X003679Y011802D01*
X003683Y011793D02*
X003357Y011793D01*
X003354Y011785D02*
X003687Y011785D01*
X003689Y011776D02*
X003352Y011776D01*
X003349Y011768D02*
X003690Y011768D01*
X003692Y011759D02*
X003346Y011759D01*
X003343Y011751D02*
X003694Y011751D01*
X003696Y011742D02*
X003534Y011742D01*
X003557Y011734D02*
X003698Y011734D01*
X003698Y011725D02*
X003568Y011725D01*
X003575Y011717D02*
X003698Y011717D01*
X003699Y011708D02*
X003581Y011708D01*
X003585Y011700D02*
X003699Y011700D01*
X003699Y011691D02*
X003588Y011691D01*
X003590Y011683D02*
X003699Y011683D01*
X003699Y011674D02*
X003592Y011674D01*
X003592Y011666D02*
X003699Y011666D01*
X003698Y011657D02*
X003593Y011657D01*
X003593Y011649D02*
X003696Y011649D01*
X003695Y011640D02*
X003593Y011640D01*
X003593Y011632D02*
X003694Y011632D01*
X003693Y011623D02*
X003594Y011623D01*
X003594Y011615D02*
X003691Y011615D01*
X003690Y011606D02*
X003593Y011606D01*
X003592Y011598D02*
X003687Y011598D01*
X003684Y011589D02*
X003591Y011589D01*
X003589Y011581D02*
X003681Y011581D01*
X003679Y011572D02*
X003588Y011572D01*
X003585Y011564D02*
X003675Y011564D01*
X003670Y011555D02*
X003581Y011555D01*
X003576Y011547D02*
X003666Y011547D01*
X003661Y011538D02*
X003568Y011538D01*
X003560Y011530D02*
X003656Y011530D01*
X003649Y011521D02*
X003552Y011521D01*
X003543Y011513D02*
X003642Y011513D01*
X003635Y011504D02*
X003526Y011504D01*
X003486Y011496D02*
X003628Y011496D01*
X003660Y011317D02*
X003684Y011317D01*
X003385Y011504D02*
X003289Y011504D01*
X003297Y011513D02*
X003390Y011513D01*
X003392Y011521D02*
X003302Y011521D01*
X003307Y011530D02*
X003395Y011530D01*
X003398Y011538D02*
X003310Y011538D01*
X003313Y011547D02*
X003400Y011547D01*
X003402Y011555D02*
X003315Y011555D01*
X003316Y011564D02*
X003403Y011564D01*
X003405Y011572D02*
X003318Y011572D01*
X003319Y011581D02*
X003406Y011581D01*
X003408Y011589D02*
X003321Y011589D01*
X003322Y011598D02*
X003409Y011598D01*
X003410Y011606D02*
X003323Y011606D01*
X003324Y011615D02*
X003411Y011615D01*
X003412Y011623D02*
X003325Y011623D01*
X003326Y011632D02*
X003412Y011632D01*
X003413Y011640D02*
X003327Y011640D01*
X003328Y011649D02*
X003414Y011649D01*
X003416Y011657D02*
X003329Y011657D01*
X003330Y011666D02*
X003418Y011666D01*
X003420Y011674D02*
X003330Y011674D01*
X003331Y011683D02*
X003423Y011683D01*
X003427Y011691D02*
X003332Y011691D01*
X003334Y011700D02*
X003432Y011700D01*
X003437Y011708D02*
X003335Y011708D01*
X003337Y011717D02*
X003444Y011717D01*
X003454Y011725D02*
X003339Y011725D01*
X003340Y011734D02*
X003470Y011734D01*
X003500Y011742D02*
X003342Y011742D01*
X003419Y011878D02*
X003619Y011878D01*
X003600Y011887D02*
X003435Y011887D01*
X003453Y011895D02*
X003578Y011895D01*
X003535Y011904D02*
X003490Y011904D01*
X003376Y011496D02*
X003276Y011496D01*
X002926Y010756D02*
X003688Y010756D01*
X003689Y010748D02*
X002921Y010748D01*
X002916Y010739D02*
X003689Y010739D01*
X003689Y010731D02*
X002911Y010731D01*
X002906Y010722D02*
X003689Y010722D01*
X003689Y010714D02*
X002901Y010714D01*
X002896Y010705D02*
X003689Y010705D01*
X003689Y010697D02*
X002892Y010697D01*
X002887Y010688D02*
X003689Y010688D01*
X003689Y010680D02*
X002882Y010680D01*
X002877Y010671D02*
X003689Y010671D01*
X003689Y010663D02*
X002872Y010663D01*
X002867Y010654D02*
X003689Y010654D01*
X003689Y010646D02*
X002862Y010646D01*
X002858Y010637D02*
X003689Y010637D01*
X003689Y010629D02*
X002853Y010629D01*
X002848Y010620D02*
X003689Y010620D01*
X003689Y010612D02*
X002843Y010612D01*
X002838Y010603D02*
X003689Y010603D01*
X003689Y010595D02*
X002833Y010595D01*
X003479Y009294D02*
X003611Y009294D01*
X003601Y009286D02*
X003407Y009286D01*
X003509Y009303D02*
X003622Y009303D01*
X003631Y009311D02*
X003525Y009311D01*
X003591Y009277D02*
X003070Y009277D01*
X003154Y008851D02*
X003148Y008846D01*
X003142Y008844D02*
X003259Y008844D01*
X003242Y008835D02*
X003131Y008835D01*
X003121Y008827D02*
X003228Y008827D01*
X003218Y008818D02*
X003112Y008818D01*
X003104Y008810D02*
X003209Y008810D01*
X003202Y008801D02*
X003096Y008801D01*
X003091Y008793D02*
X003196Y008793D01*
X003191Y008784D02*
X003086Y008784D01*
X003080Y008776D02*
X003188Y008776D01*
X003185Y008767D02*
X003181Y008744D01*
X003179Y008700D01*
X003180Y008687D01*
X003183Y008674D01*
X003192Y008656D01*
X003205Y008640D01*
X003221Y008628D01*
X003247Y008615D01*
X003275Y008608D01*
X003304Y008605D01*
X003684Y008605D01*
X003684Y008444D01*
X003269Y008444D01*
X003225Y008448D01*
X003181Y008457D01*
X003153Y008468D01*
X003128Y008483D01*
X003105Y008502D01*
X003081Y008533D01*
X003064Y008569D01*
X003056Y008607D01*
X003054Y008686D01*
X003060Y008727D01*
X003075Y008767D01*
X003072Y008759D02*
X003183Y008759D01*
X003182Y008750D02*
X003069Y008750D01*
X003065Y008742D02*
X003181Y008742D01*
X003180Y008733D02*
X003062Y008733D01*
X003060Y008725D02*
X003180Y008725D01*
X003180Y008716D02*
X003058Y008716D01*
X003057Y008708D02*
X003179Y008708D01*
X003179Y008699D02*
X003056Y008699D01*
X003055Y008691D02*
X003180Y008691D01*
X003181Y008682D02*
X003054Y008682D01*
X003054Y008674D02*
X003183Y008674D01*
X003187Y008665D02*
X003055Y008665D01*
X003055Y008657D02*
X003192Y008657D01*
X003198Y008648D02*
X003055Y008648D01*
X003055Y008640D02*
X003206Y008640D01*
X003217Y008631D02*
X003055Y008631D01*
X003056Y008623D02*
X003232Y008623D01*
X003181Y008457D02*
X003160Y008464D01*
X003140Y008474D01*
X003121Y008487D01*
X003105Y008502D01*
X003104Y008504D02*
X003684Y008504D01*
X003684Y008512D02*
X003097Y008512D01*
X003090Y008521D02*
X003684Y008521D01*
X003684Y008529D02*
X003084Y008529D01*
X003078Y008538D02*
X003684Y008538D01*
X003684Y008546D02*
X003075Y008546D01*
X003071Y008555D02*
X003684Y008555D01*
X003684Y008563D02*
X003067Y008563D01*
X003063Y008572D02*
X003684Y008572D01*
X003684Y008580D02*
X003062Y008580D01*
X003060Y008589D02*
X003684Y008589D01*
X003684Y008597D02*
X003058Y008597D01*
X003056Y008606D02*
X003297Y008606D01*
X003304Y008605D02*
X003684Y008605D01*
X003684Y008444D01*
X003269Y008444D01*
X003268Y008444D02*
X003684Y008444D01*
X003684Y008453D02*
X003201Y008453D01*
X003170Y008461D02*
X003684Y008461D01*
X003684Y008470D02*
X003150Y008470D01*
X003135Y008478D02*
X003684Y008478D01*
X003684Y008487D02*
X003123Y008487D01*
X003113Y008495D02*
X003684Y008495D01*
X003055Y008607D02*
X003053Y008646D01*
X003054Y008686D01*
X003056Y008614D02*
X003252Y008614D01*
X003106Y008503D02*
X003090Y008520D01*
X003077Y008540D01*
X003067Y008562D01*
X003061Y008584D01*
X003057Y008607D01*
X003097Y008803D02*
X003113Y008821D01*
X003132Y008837D01*
X003153Y008852D02*
X003291Y008852D01*
X003269Y008444D02*
X003239Y008446D01*
X003209Y008450D01*
X003180Y008457D01*
X003054Y008686D02*
X003057Y008711D01*
X003063Y008736D01*
X003071Y008759D01*
X003083Y008782D01*
X003097Y008802D01*
X003153Y008852D02*
X003155Y008855D01*
X003156Y008859D01*
X003221Y008628D02*
X003241Y008618D01*
X003261Y008611D01*
X003282Y008606D01*
X003304Y008605D01*
X003257Y008843D02*
X003277Y008849D01*
X003298Y008853D01*
X003319Y008855D01*
X003206Y008807D02*
X003196Y008793D01*
X003188Y008778D01*
X003183Y008762D01*
X003181Y008744D01*
X003179Y008700D02*
X003180Y008687D01*
X003183Y008674D01*
X003183Y008675D02*
X003190Y008661D01*
X003198Y008648D01*
X003209Y008638D01*
X003221Y008629D01*
X003206Y008807D02*
X003221Y008822D01*
X003238Y008834D01*
X003257Y008843D01*
X003299Y008104D02*
X003460Y008104D01*
X003490Y008096D02*
X003257Y008096D01*
X003235Y008087D02*
X003515Y008087D01*
X003533Y008079D02*
X003215Y008079D01*
X003196Y008070D02*
X003551Y008070D01*
X003564Y008062D02*
X003183Y008062D01*
X003170Y008053D02*
X003576Y008053D01*
X003589Y008045D02*
X003157Y008045D01*
X003146Y008036D02*
X003598Y008036D01*
X003608Y008028D02*
X003138Y008028D01*
X003129Y008019D02*
X003617Y008019D01*
X003625Y008011D02*
X003120Y008011D01*
X003111Y008002D02*
X003631Y008002D01*
X003638Y007994D02*
X003104Y007994D01*
X003098Y007985D02*
X003644Y007985D01*
X003650Y007977D02*
X003092Y007977D01*
X003086Y007968D02*
X003655Y007968D01*
X003659Y007960D02*
X003081Y007960D01*
X003132Y008836D02*
X003147Y008847D01*
X003181Y008744D02*
X003179Y008700D01*
X003619Y007338D02*
X003639Y007311D01*
X003656Y007282D01*
X003671Y007252D01*
X003682Y007220D01*
X003691Y007188D01*
X003696Y007155D01*
X003698Y007121D01*
X003567Y007166D02*
X003573Y007144D01*
X003576Y007122D01*
X003576Y007099D01*
X003573Y007077D01*
X003567Y007055D01*
X003559Y007034D01*
X003560Y007389D02*
X003532Y007404D01*
X003503Y007416D01*
X003473Y007425D01*
X003443Y007432D01*
X003031Y007104D02*
X003032Y007074D01*
X003036Y007045D01*
X003042Y007016D01*
X003166Y007048D02*
X003173Y007033D01*
X003182Y007020D01*
X003192Y007007D01*
X003108Y006890D02*
X003090Y006912D01*
X003074Y006937D01*
X003061Y006962D01*
X003050Y006989D01*
X003042Y007016D01*
X003108Y006890D02*
X003132Y006866D01*
X003158Y006844D01*
X003186Y006825D01*
X003216Y006810D01*
X003248Y006797D01*
X003281Y006789D01*
X003314Y006784D01*
X003348Y006782D01*
X003298Y006546D02*
X003684Y006546D01*
X003684Y006716D01*
X003052Y006716D01*
X003052Y006559D01*
X003139Y006559D01*
X003137Y006550D01*
X003120Y006537D01*
X003089Y006507D01*
X003065Y006477D01*
X003049Y006442D01*
X003039Y006399D01*
X003034Y006345D01*
X003037Y006307D01*
X003047Y006271D01*
X003063Y006240D01*
X003084Y006212D01*
X003111Y006189D01*
X003141Y006172D01*
X003141Y006170D01*
X003140Y006169D01*
X003136Y006165D01*
X003117Y006147D01*
X003087Y006116D01*
X003062Y006081D01*
X003047Y006049D01*
X003037Y006015D01*
X003035Y005980D01*
X003039Y005930D01*
X003049Y005880D01*
X003062Y005846D01*
X003082Y005815D01*
X003108Y005790D01*
X003145Y005767D01*
X003186Y005752D01*
X003229Y005745D01*
X003685Y005745D01*
X003685Y005912D01*
X003280Y005912D01*
X003244Y005916D01*
X003211Y005929D01*
X003195Y005940D01*
X003182Y005954D01*
X003172Y005971D01*
X003167Y005990D01*
X003164Y006027D01*
X003168Y006063D01*
X003173Y006080D01*
X003182Y006096D01*
X003194Y006109D01*
X003216Y006125D01*
X003240Y006136D01*
X003266Y006142D01*
X003310Y006145D01*
X003685Y006145D01*
X003685Y006315D01*
X003269Y006315D01*
X003242Y006318D01*
X003217Y006328D01*
X003035Y006328D01*
X003035Y006336D02*
X003204Y006336D01*
X003194Y006343D02*
X003181Y006357D01*
X003171Y006375D01*
X003165Y006393D01*
X003164Y006413D01*
X003166Y006447D01*
X003169Y006465D01*
X003177Y006482D01*
X003188Y006497D01*
X003226Y006530D01*
X003248Y006542D01*
X003273Y006547D01*
X003298Y006546D01*
X003245Y006540D02*
X003124Y006540D01*
X003114Y006532D02*
X003229Y006532D01*
X003218Y006523D02*
X003106Y006523D01*
X003097Y006515D02*
X003208Y006515D01*
X003198Y006506D02*
X003088Y006506D01*
X003081Y006498D02*
X003189Y006498D01*
X003182Y006489D02*
X003075Y006489D01*
X003068Y006481D02*
X003176Y006481D01*
X003172Y006472D02*
X003063Y006472D01*
X003059Y006464D02*
X003169Y006464D01*
X003167Y006455D02*
X003055Y006455D01*
X003051Y006447D02*
X003166Y006447D01*
X003165Y006438D02*
X003048Y006438D01*
X003046Y006430D02*
X003165Y006430D01*
X003164Y006421D02*
X003044Y006421D01*
X003042Y006413D02*
X003164Y006413D01*
X003165Y006404D02*
X003040Y006404D01*
X003039Y006396D02*
X003165Y006396D01*
X003167Y006387D02*
X003038Y006387D01*
X003037Y006379D02*
X003170Y006379D01*
X003174Y006370D02*
X003036Y006370D01*
X003036Y006362D02*
X003178Y006362D01*
X003185Y006353D02*
X003035Y006353D01*
X003034Y006345D02*
X003193Y006345D01*
X003194Y006343D02*
X003217Y006328D01*
X003240Y006319D02*
X003036Y006319D01*
X003037Y006311D02*
X003685Y006311D01*
X003685Y006302D02*
X003038Y006302D01*
X003041Y006294D02*
X003685Y006294D01*
X003685Y006285D02*
X003043Y006285D01*
X003045Y006277D02*
X003685Y006277D01*
X003685Y006268D02*
X003049Y006268D01*
X003053Y006260D02*
X003685Y006260D01*
X003685Y006251D02*
X003057Y006251D01*
X003062Y006243D02*
X003685Y006243D01*
X003685Y006234D02*
X003067Y006234D01*
X003074Y006226D02*
X003685Y006226D01*
X003685Y006217D02*
X003081Y006217D01*
X003089Y006209D02*
X003685Y006209D01*
X003685Y006200D02*
X003099Y006200D01*
X003108Y006192D02*
X003685Y006192D01*
X003685Y006183D02*
X003122Y006183D01*
X003137Y006175D02*
X003685Y006175D01*
X003685Y006166D02*
X003137Y006166D01*
X003128Y006158D02*
X003685Y006158D01*
X003685Y006149D02*
X003119Y006149D01*
X003111Y006141D02*
X003260Y006141D01*
X003231Y006132D02*
X003103Y006132D01*
X003094Y006124D02*
X003214Y006124D01*
X003202Y006115D02*
X003086Y006115D01*
X003080Y006107D02*
X003192Y006107D01*
X003184Y006098D02*
X003074Y006098D01*
X003068Y006090D02*
X003179Y006090D01*
X003174Y006081D02*
X003062Y006081D01*
X003058Y006073D02*
X003171Y006073D01*
X003168Y006064D02*
X003054Y006064D01*
X003050Y006056D02*
X003167Y006056D01*
X003166Y006047D02*
X003046Y006047D01*
X003044Y006039D02*
X003165Y006039D01*
X003165Y006030D02*
X003041Y006030D01*
X003039Y006022D02*
X003165Y006022D01*
X003165Y006013D02*
X003037Y006013D01*
X003037Y006005D02*
X003166Y006005D01*
X003167Y005996D02*
X003036Y005996D01*
X003036Y005988D02*
X003168Y005988D01*
X003170Y005979D02*
X003035Y005979D01*
X003036Y005971D02*
X003173Y005971D01*
X003178Y005962D02*
X003037Y005962D01*
X003037Y005954D02*
X003183Y005954D01*
X003190Y005945D02*
X003038Y005945D01*
X003039Y005937D02*
X003200Y005937D01*
X003214Y005928D02*
X003040Y005928D01*
X003041Y005920D02*
X003236Y005920D01*
X003199Y005750D02*
X003685Y005750D01*
X003685Y005758D02*
X003169Y005758D01*
X003146Y005767D02*
X003685Y005767D01*
X003685Y005775D02*
X003132Y005775D01*
X003118Y005784D02*
X003685Y005784D01*
X003685Y005792D02*
X003106Y005792D01*
X003097Y005801D02*
X003685Y005801D01*
X003685Y005809D02*
X003088Y005809D01*
X003080Y005818D02*
X003685Y005818D01*
X003685Y005826D02*
X003075Y005826D01*
X003069Y005835D02*
X003685Y005835D01*
X003685Y005843D02*
X003064Y005843D01*
X003060Y005852D02*
X003685Y005852D01*
X003685Y005860D02*
X003057Y005860D01*
X003053Y005869D02*
X003685Y005869D01*
X003685Y005877D02*
X003050Y005877D01*
X003048Y005886D02*
X003685Y005886D01*
X003685Y005894D02*
X003046Y005894D01*
X003045Y005903D02*
X003685Y005903D01*
X003685Y005911D02*
X003043Y005911D01*
X003135Y006549D02*
X003684Y006549D01*
X003684Y006557D02*
X003139Y006557D01*
X003052Y006566D02*
X003684Y006566D01*
X003684Y006574D02*
X003052Y006574D01*
X003052Y006583D02*
X003684Y006583D01*
X003684Y006591D02*
X003052Y006591D01*
X003052Y006600D02*
X003684Y006600D01*
X003684Y006608D02*
X003052Y006608D01*
X003052Y006617D02*
X003684Y006617D01*
X003684Y006625D02*
X003052Y006625D01*
X003052Y006634D02*
X003684Y006634D01*
X003684Y006642D02*
X003052Y006642D01*
X003052Y006651D02*
X003684Y006651D01*
X003684Y006659D02*
X003052Y006659D01*
X003052Y006668D02*
X003684Y006668D01*
X003684Y006676D02*
X003052Y006676D01*
X003052Y006685D02*
X003684Y006685D01*
X003684Y006693D02*
X003052Y006693D01*
X003052Y006702D02*
X003684Y006702D01*
X003684Y006710D02*
X003052Y006710D01*
X003166Y007048D02*
X003160Y007068D01*
X003157Y007089D01*
X003156Y007110D01*
X003031Y007118D02*
X003034Y007153D01*
X003041Y007187D01*
X003051Y007221D01*
X003064Y007253D01*
X003080Y007284D01*
X003430Y012431D02*
X004048Y012431D01*
X003242Y012685D02*
X003242Y012838D01*
X003231Y012839D01*
X003242Y012830D02*
X003145Y012830D01*
X003153Y012830D02*
X003070Y012830D01*
X003072Y012822D02*
X003156Y012822D01*
X003148Y012822D02*
X003242Y012822D01*
X003242Y012813D02*
X003150Y012813D01*
X003153Y012805D02*
X003242Y012805D01*
X003242Y012796D02*
X003155Y012796D01*
X003158Y012788D02*
X003242Y012788D01*
X003242Y012779D02*
X003160Y012779D01*
X003162Y012771D02*
X003242Y012771D01*
X003242Y012762D02*
X003167Y012762D01*
X003173Y012754D02*
X003242Y012754D01*
X003242Y012745D02*
X003178Y012745D01*
X003183Y012737D02*
X003242Y012737D01*
X003242Y012728D02*
X003189Y012728D01*
X003194Y012720D02*
X003242Y012720D01*
X003242Y012711D02*
X003199Y012711D01*
X003205Y012703D02*
X003242Y012703D01*
X003222Y012703D02*
X003174Y012703D01*
X003156Y012711D02*
X003222Y012711D01*
X003216Y012720D02*
X003143Y012720D01*
X003133Y012728D02*
X003209Y012728D01*
X003203Y012737D02*
X003124Y012737D01*
X003117Y012745D02*
X003197Y012745D01*
X003190Y012754D02*
X003110Y012754D01*
X003104Y012762D02*
X003184Y012762D01*
X003178Y012771D02*
X003097Y012771D01*
X003092Y012779D02*
X003172Y012779D01*
X003167Y012788D02*
X003088Y012788D01*
X003084Y012796D02*
X003164Y012796D01*
X003161Y012805D02*
X003080Y012805D01*
X003075Y012813D02*
X003159Y012813D01*
D17*
X003593Y008250D03*
D18*
X001400Y005500D02*
X001402Y005550D01*
X001408Y005600D01*
X001418Y005650D01*
X001431Y005698D01*
X001448Y005746D01*
X001469Y005792D01*
X001493Y005836D01*
X001521Y005878D01*
X001552Y005918D01*
X001586Y005955D01*
X001623Y005990D01*
X001662Y006021D01*
X001703Y006050D01*
X001747Y006075D01*
X001793Y006097D01*
X001840Y006115D01*
X001888Y006129D01*
X001937Y006140D01*
X001987Y006147D01*
X002037Y006150D01*
X002088Y006149D01*
X002138Y006144D01*
X002188Y006135D01*
X002236Y006123D01*
X002284Y006106D01*
X002330Y006086D01*
X002375Y006063D01*
X002418Y006036D01*
X002458Y006006D01*
X002496Y005973D01*
X002531Y005937D01*
X002564Y005898D01*
X002593Y005857D01*
X002619Y005814D01*
X002642Y005769D01*
X002661Y005722D01*
X002676Y005674D01*
X002688Y005625D01*
X002696Y005575D01*
X002700Y005525D01*
X002700Y005475D01*
X002696Y005425D01*
X002688Y005375D01*
X002676Y005326D01*
X002661Y005278D01*
X002642Y005231D01*
X002619Y005186D01*
X002593Y005143D01*
X002564Y005102D01*
X002531Y005063D01*
X002496Y005027D01*
X002458Y004994D01*
X002418Y004964D01*
X002375Y004937D01*
X002330Y004914D01*
X002284Y004894D01*
X002236Y004877D01*
X002188Y004865D01*
X002138Y004856D01*
X002088Y004851D01*
X002037Y004850D01*
X001987Y004853D01*
X001937Y004860D01*
X001888Y004871D01*
X001840Y004885D01*
X001793Y004903D01*
X001747Y004925D01*
X001703Y004950D01*
X001662Y004979D01*
X001623Y005010D01*
X001586Y005045D01*
X001552Y005082D01*
X001521Y005122D01*
X001493Y005164D01*
X001469Y005208D01*
X001448Y005254D01*
X001431Y005302D01*
X001418Y005350D01*
X001408Y005400D01*
X001402Y005450D01*
X001400Y005500D01*
X008400Y005500D02*
X008402Y005550D01*
X008408Y005600D01*
X008418Y005650D01*
X008431Y005698D01*
X008448Y005746D01*
X008469Y005792D01*
X008493Y005836D01*
X008521Y005878D01*
X008552Y005918D01*
X008586Y005955D01*
X008623Y005990D01*
X008662Y006021D01*
X008703Y006050D01*
X008747Y006075D01*
X008793Y006097D01*
X008840Y006115D01*
X008888Y006129D01*
X008937Y006140D01*
X008987Y006147D01*
X009037Y006150D01*
X009088Y006149D01*
X009138Y006144D01*
X009188Y006135D01*
X009236Y006123D01*
X009284Y006106D01*
X009330Y006086D01*
X009375Y006063D01*
X009418Y006036D01*
X009458Y006006D01*
X009496Y005973D01*
X009531Y005937D01*
X009564Y005898D01*
X009593Y005857D01*
X009619Y005814D01*
X009642Y005769D01*
X009661Y005722D01*
X009676Y005674D01*
X009688Y005625D01*
X009696Y005575D01*
X009700Y005525D01*
X009700Y005475D01*
X009696Y005425D01*
X009688Y005375D01*
X009676Y005326D01*
X009661Y005278D01*
X009642Y005231D01*
X009619Y005186D01*
X009593Y005143D01*
X009564Y005102D01*
X009531Y005063D01*
X009496Y005027D01*
X009458Y004994D01*
X009418Y004964D01*
X009375Y004937D01*
X009330Y004914D01*
X009284Y004894D01*
X009236Y004877D01*
X009188Y004865D01*
X009138Y004856D01*
X009088Y004851D01*
X009037Y004850D01*
X008987Y004853D01*
X008937Y004860D01*
X008888Y004871D01*
X008840Y004885D01*
X008793Y004903D01*
X008747Y004925D01*
X008703Y004950D01*
X008662Y004979D01*
X008623Y005010D01*
X008586Y005045D01*
X008552Y005082D01*
X008521Y005122D01*
X008493Y005164D01*
X008469Y005208D01*
X008448Y005254D01*
X008431Y005302D01*
X008418Y005350D01*
X008408Y005400D01*
X008402Y005450D01*
X008400Y005500D01*
X008400Y013500D02*
X008402Y013550D01*
X008408Y013600D01*
X008418Y013650D01*
X008431Y013698D01*
X008448Y013746D01*
X008469Y013792D01*
X008493Y013836D01*
X008521Y013878D01*
X008552Y013918D01*
X008586Y013955D01*
X008623Y013990D01*
X008662Y014021D01*
X008703Y014050D01*
X008747Y014075D01*
X008793Y014097D01*
X008840Y014115D01*
X008888Y014129D01*
X008937Y014140D01*
X008987Y014147D01*
X009037Y014150D01*
X009088Y014149D01*
X009138Y014144D01*
X009188Y014135D01*
X009236Y014123D01*
X009284Y014106D01*
X009330Y014086D01*
X009375Y014063D01*
X009418Y014036D01*
X009458Y014006D01*
X009496Y013973D01*
X009531Y013937D01*
X009564Y013898D01*
X009593Y013857D01*
X009619Y013814D01*
X009642Y013769D01*
X009661Y013722D01*
X009676Y013674D01*
X009688Y013625D01*
X009696Y013575D01*
X009700Y013525D01*
X009700Y013475D01*
X009696Y013425D01*
X009688Y013375D01*
X009676Y013326D01*
X009661Y013278D01*
X009642Y013231D01*
X009619Y013186D01*
X009593Y013143D01*
X009564Y013102D01*
X009531Y013063D01*
X009496Y013027D01*
X009458Y012994D01*
X009418Y012964D01*
X009375Y012937D01*
X009330Y012914D01*
X009284Y012894D01*
X009236Y012877D01*
X009188Y012865D01*
X009138Y012856D01*
X009088Y012851D01*
X009037Y012850D01*
X008987Y012853D01*
X008937Y012860D01*
X008888Y012871D01*
X008840Y012885D01*
X008793Y012903D01*
X008747Y012925D01*
X008703Y012950D01*
X008662Y012979D01*
X008623Y013010D01*
X008586Y013045D01*
X008552Y013082D01*
X008521Y013122D01*
X008493Y013164D01*
X008469Y013208D01*
X008448Y013254D01*
X008431Y013302D01*
X008418Y013350D01*
X008408Y013400D01*
X008402Y013450D01*
X008400Y013500D01*
X001400Y013500D02*
X001402Y013550D01*
X001408Y013600D01*
X001418Y013650D01*
X001431Y013698D01*
X001448Y013746D01*
X001469Y013792D01*
X001493Y013836D01*
X001521Y013878D01*
X001552Y013918D01*
X001586Y013955D01*
X001623Y013990D01*
X001662Y014021D01*
X001703Y014050D01*
X001747Y014075D01*
X001793Y014097D01*
X001840Y014115D01*
X001888Y014129D01*
X001937Y014140D01*
X001987Y014147D01*
X002037Y014150D01*
X002088Y014149D01*
X002138Y014144D01*
X002188Y014135D01*
X002236Y014123D01*
X002284Y014106D01*
X002330Y014086D01*
X002375Y014063D01*
X002418Y014036D01*
X002458Y014006D01*
X002496Y013973D01*
X002531Y013937D01*
X002564Y013898D01*
X002593Y013857D01*
X002619Y013814D01*
X002642Y013769D01*
X002661Y013722D01*
X002676Y013674D01*
X002688Y013625D01*
X002696Y013575D01*
X002700Y013525D01*
X002700Y013475D01*
X002696Y013425D01*
X002688Y013375D01*
X002676Y013326D01*
X002661Y013278D01*
X002642Y013231D01*
X002619Y013186D01*
X002593Y013143D01*
X002564Y013102D01*
X002531Y013063D01*
X002496Y013027D01*
X002458Y012994D01*
X002418Y012964D01*
X002375Y012937D01*
X002330Y012914D01*
X002284Y012894D01*
X002236Y012877D01*
X002188Y012865D01*
X002138Y012856D01*
X002088Y012851D01*
X002037Y012850D01*
X001987Y012853D01*
X001937Y012860D01*
X001888Y012871D01*
X001840Y012885D01*
X001793Y012903D01*
X001747Y012925D01*
X001703Y012950D01*
X001662Y012979D01*
X001623Y013010D01*
X001586Y013045D01*
X001552Y013082D01*
X001521Y013122D01*
X001493Y013164D01*
X001469Y013208D01*
X001448Y013254D01*
X001431Y013302D01*
X001418Y013350D01*
X001408Y013400D01*
X001402Y013450D01*
X001400Y013500D01*
D19*
X007795Y010176D02*
X007795Y009876D01*
X008095Y010176D01*
X008170Y010176D01*
X008245Y010101D01*
X008245Y009951D01*
X008170Y009876D01*
X007795Y009716D02*
X007795Y009416D01*
X007795Y009566D02*
X008245Y009566D01*
X008095Y009416D01*
X008020Y009256D02*
X007945Y009181D01*
X007945Y008955D01*
X007795Y008955D02*
X008245Y008955D01*
X008245Y009181D01*
X008170Y009256D01*
X008020Y009256D01*
X008245Y008795D02*
X008245Y008645D01*
X008245Y008720D02*
X007870Y008720D01*
X007795Y008645D01*
X007795Y008570D01*
X007870Y008495D01*
D20*
X002072Y011114D02*
X001928Y011114D01*
X001909Y011304D01*
X001845Y011325D01*
X001785Y011356D01*
X001636Y011235D01*
X001535Y011336D01*
X001656Y011485D01*
X001625Y011545D01*
X001604Y011609D01*
X001414Y011628D01*
X001414Y011772D01*
X001604Y011791D01*
X001625Y011855D01*
X001656Y011915D01*
X001535Y012064D01*
X001636Y012165D01*
X001785Y012044D01*
X001845Y012075D01*
X001909Y012096D01*
X001928Y012286D01*
X002072Y012286D01*
X002091Y012096D01*
X002155Y012075D01*
X002215Y012044D01*
X002364Y012165D01*
X002465Y012064D01*
X002344Y011915D01*
X002375Y011855D01*
X002171Y011771D01*
X002149Y011808D01*
X002120Y011840D01*
X002084Y011864D01*
X002043Y011879D01*
X002000Y011885D01*
X001956Y011879D01*
X001915Y011864D01*
X001878Y011839D01*
X001849Y011806D01*
X001828Y011767D01*
X001817Y011724D01*
X001817Y011680D01*
X001827Y011637D01*
X001414Y011637D01*
X001414Y011694D02*
X001817Y011694D01*
X001827Y011637D02*
X001847Y011598D01*
X001875Y011564D01*
X001911Y011538D01*
X001952Y011522D01*
X001996Y011516D01*
X002040Y011520D01*
X002082Y011535D01*
X002119Y011559D01*
X002149Y011591D01*
X002171Y011629D01*
X002375Y011545D01*
X002344Y011485D01*
X002465Y011336D01*
X002364Y011235D01*
X002215Y011356D01*
X002155Y011325D01*
X002091Y011304D01*
X002072Y011114D01*
X002072Y011119D02*
X001928Y011119D01*
X001922Y011176D02*
X002078Y011176D01*
X002084Y011234D02*
X001916Y011234D01*
X001910Y011292D02*
X002090Y011292D01*
X002202Y011349D02*
X001798Y011349D01*
X001777Y011349D02*
X001545Y011349D01*
X001580Y011292D02*
X001706Y011292D01*
X001592Y011407D02*
X002408Y011407D01*
X002361Y011464D02*
X001639Y011464D01*
X001637Y011522D02*
X001952Y011522D01*
X002045Y011522D02*
X002363Y011522D01*
X002291Y011579D02*
X002138Y011579D01*
X002223Y011349D02*
X002455Y011349D01*
X002420Y011292D02*
X002294Y011292D01*
X001862Y011579D02*
X001614Y011579D01*
X001414Y011752D02*
X001824Y011752D01*
X001852Y011810D02*
X001610Y011810D01*
X001631Y011867D02*
X001924Y011867D01*
X002077Y011867D02*
X002369Y011867D01*
X002352Y011925D02*
X001648Y011925D01*
X001601Y011982D02*
X002399Y011982D01*
X002446Y012040D02*
X001554Y012040D01*
X001568Y012097D02*
X001720Y012097D01*
X001649Y012155D02*
X001626Y012155D01*
X001909Y012097D02*
X002091Y012097D01*
X002085Y012155D02*
X001915Y012155D01*
X001921Y012212D02*
X002079Y012212D01*
X002074Y012270D02*
X001926Y012270D01*
X002280Y012097D02*
X002432Y012097D01*
X002374Y012155D02*
X002351Y012155D01*
X002264Y011810D02*
X002148Y011810D01*
M02*
