G75*
%MOIN*%
%OFA0B0*%
%FSLAX24Y24*%
%IPPOS*%
%LPD*%
%AMOC8*
5,1,8,0,0,1.08239X$1,22.5*
%
%ADD10R,0.0768X0.0768*%
%ADD11OC8,0.0497*%
%ADD12C,0.0820*%
%ADD13R,0.0060X0.0720*%
%ADD14R,0.0540X0.0710*%
%ADD15C,0.0370*%
D10*
X001306Y003443D03*
X001306Y006730D03*
D11*
X002359Y005963D03*
X002359Y004211D03*
D12*
X003259Y001487D03*
X004259Y001487D03*
X005259Y001487D03*
X006259Y001487D03*
X007259Y001487D03*
X008259Y001487D03*
X009259Y001487D03*
X010259Y001487D03*
X011259Y001487D03*
X012259Y001487D03*
X013259Y001487D03*
X014259Y001487D03*
X015259Y001487D03*
X016259Y001487D03*
X016259Y009487D03*
X015259Y009487D03*
X014259Y009487D03*
X013259Y009487D03*
X012259Y009487D03*
X011259Y009487D03*
X010259Y009487D03*
X009259Y009487D03*
X008259Y009487D03*
X007259Y009487D03*
X006259Y009487D03*
X005259Y009487D03*
X004259Y009487D03*
X003259Y009487D03*
D13*
X001959Y009487D03*
D14*
X002259Y009487D03*
X001659Y009487D03*
D15*
X002509Y008937D03*
X005009Y008087D03*
X005259Y008637D03*
X006109Y007387D03*
X006409Y006737D03*
X007109Y006887D03*
X007759Y007087D03*
X008159Y006637D03*
X009009Y006837D03*
X009259Y007337D03*
X009659Y007337D03*
X009909Y007087D03*
X008659Y007337D03*
X008609Y008337D03*
X008159Y008387D03*
X007659Y008637D03*
X009959Y008887D03*
X010609Y008387D03*
X010359Y008137D03*
X012259Y008087D03*
X012859Y007637D03*
X013809Y007637D03*
X014809Y007637D03*
X015559Y007487D03*
X015309Y006737D03*
X013659Y005987D03*
X014359Y005737D03*
X013759Y005487D03*
X014509Y005137D03*
X013509Y004287D03*
X012759Y004337D03*
X012259Y005137D03*
X011759Y005137D03*
X011259Y005137D03*
X010809Y005387D03*
X011259Y005487D03*
X009909Y005287D03*
X008859Y005387D03*
X008859Y005737D03*
X008009Y005387D03*
X007409Y005637D03*
X006459Y005237D03*
X006859Y004637D03*
X007409Y004987D03*
X008409Y004437D03*
X009009Y004237D03*
X009359Y004337D03*
X008759Y003987D03*
X009559Y003837D03*
X009859Y003187D03*
X010659Y002737D03*
X011659Y001937D03*
X010759Y001837D03*
X009159Y002637D03*
X008809Y002637D03*
X008459Y002487D03*
X008109Y002487D03*
X007609Y002537D03*
X006309Y003037D03*
X006059Y002787D03*
X004709Y002087D03*
X004009Y002087D03*
X002909Y003187D03*
X003459Y004037D03*
X004409Y004387D03*
X004409Y004737D03*
X004159Y004987D03*
X005059Y005237D03*
X005359Y004637D03*
X005109Y004137D03*
X005809Y003837D03*
X006559Y003887D03*
X006809Y004137D03*
X004259Y005937D03*
X003359Y006037D03*
X002659Y006287D03*
X001659Y006187D03*
X002009Y007137D03*
X004109Y006737D03*
X005409Y006187D03*
X003159Y004687D03*
X009909Y006087D03*
X011759Y006587D03*
X012259Y006837D03*
X013509Y006487D03*
X015909Y005737D03*
X016209Y004637D03*
X016209Y003887D03*
X016709Y002487D03*
X015709Y002087D03*
X014609Y002487D03*
X014259Y002337D03*
X013909Y002337D03*
X013659Y002087D03*
X013659Y002587D03*
X012609Y003287D03*
X012159Y003037D03*
X011159Y003687D03*
X018009Y006487D03*
X018009Y007187D03*
X013159Y008337D03*
X012109Y008887D03*
X018359Y002487D03*
M02*
