G75*
%MOIN*%
%OFA0B0*%
%FSLAX24Y24*%
%IPPOS*%
%LPD*%
%AMOC8*
5,1,8,0,0,1.08239X$1,22.5*
%
%ADD10OC8,0.0417*%
%ADD11R,0.0650X0.0650*%
%ADD12C,0.0740*%
%ADD13R,0.0460X0.0630*%
%ADD14C,0.0060*%
%ADD15C,0.0290*%
D10*
X002359Y004211D03*
X002359Y005963D03*
D11*
X001306Y006730D03*
X001306Y003443D03*
D12*
X003259Y001487D03*
X004259Y001487D03*
X005259Y001487D03*
X006259Y001487D03*
X007259Y001487D03*
X008259Y001487D03*
X009259Y001487D03*
X010259Y001487D03*
X011259Y001487D03*
X012259Y001487D03*
X013259Y001487D03*
X014259Y001487D03*
X015259Y001487D03*
X016259Y001487D03*
X016259Y009487D03*
X015259Y009487D03*
X014259Y009487D03*
X013259Y009487D03*
X012259Y009487D03*
X011259Y009487D03*
X010259Y009487D03*
X009259Y009487D03*
X008259Y009487D03*
X007259Y009487D03*
X006259Y009487D03*
X005259Y009487D03*
X004259Y009487D03*
X003259Y009487D03*
D13*
X002259Y009487D03*
X001659Y009487D03*
D14*
X001659Y008937D01*
X002509Y008937D01*
X002259Y009487D02*
X003259Y009487D01*
X004259Y009487D02*
X004259Y007637D01*
X008959Y007637D01*
X009259Y007337D01*
X009659Y007337D02*
X009959Y007637D01*
X012859Y007637D01*
X012709Y007837D02*
X012759Y007887D01*
X014559Y007887D01*
X014809Y007637D01*
X014409Y007637D02*
X013809Y007637D01*
X014409Y007637D02*
X015309Y006737D01*
X015559Y007487D02*
X014959Y008087D01*
X012259Y008087D01*
X012709Y007837D02*
X010659Y007837D01*
X010359Y008137D01*
X010609Y008387D02*
X010659Y008337D01*
X013159Y008337D01*
X012959Y008487D02*
X013959Y009487D01*
X014259Y009487D01*
X013259Y009487D02*
X012409Y008637D01*
X012009Y008637D01*
X011859Y008787D01*
X010059Y008787D01*
X009959Y008887D01*
X010609Y008387D02*
X008659Y008387D01*
X008609Y008337D01*
X008159Y008387D02*
X005309Y008387D01*
X005009Y008087D01*
X005259Y008637D02*
X005609Y008987D01*
X007759Y008987D01*
X008259Y009487D01*
X007659Y008637D02*
X010859Y008637D01*
X011009Y008487D01*
X012959Y008487D01*
X012109Y008887D02*
X012009Y008987D01*
X010759Y008987D01*
X010259Y009487D01*
X008659Y007337D02*
X006159Y007337D01*
X006109Y007387D01*
X006409Y006737D02*
X006559Y006587D01*
X007859Y006587D01*
X008109Y006337D01*
X011559Y006337D01*
X011659Y006237D01*
X018359Y006237D01*
X018359Y002487D01*
X016709Y002487D02*
X016709Y005987D01*
X013659Y005987D01*
X010609Y005987D01*
X009909Y005287D01*
X009109Y004887D02*
X016309Y004887D01*
X016459Y004737D01*
X016459Y001487D01*
X016259Y001487D01*
X015959Y001887D02*
X015859Y001887D01*
X015459Y001487D01*
X015259Y001487D01*
X015959Y001887D02*
X015959Y002637D01*
X014659Y003937D01*
X013509Y003937D01*
X013359Y004087D01*
X009159Y004087D01*
X009009Y004237D01*
X009359Y004337D02*
X012759Y004337D01*
X013509Y004287D02*
X015809Y004287D01*
X016209Y003887D01*
X016209Y004637D02*
X009059Y004637D01*
X008609Y004187D01*
X006859Y004187D01*
X006809Y004137D01*
X006559Y003887D02*
X006509Y003837D01*
X005809Y003837D01*
X005659Y003587D02*
X010709Y003587D01*
X011059Y003937D01*
X011259Y003937D01*
X012159Y003037D01*
X012059Y002787D02*
X013509Y002787D01*
X013559Y002837D01*
X013759Y002837D01*
X014259Y002337D01*
X013909Y002337D02*
X009409Y002337D01*
X009309Y002237D01*
X008359Y002237D01*
X008309Y002287D01*
X006009Y002287D01*
X005809Y002487D01*
X002659Y002487D01*
X002659Y004737D01*
X003359Y005437D01*
X003359Y006037D01*
X002659Y006287D02*
X001759Y006287D01*
X001659Y006187D01*
X002009Y007137D02*
X007709Y007137D01*
X007759Y007087D01*
X009909Y007087D01*
X013259Y007087D01*
X013859Y006487D01*
X018009Y006487D01*
X018009Y007187D01*
X018359Y006237D02*
X018359Y009487D01*
X016259Y009487D01*
X012259Y006837D02*
X009009Y006837D01*
X008209Y006587D02*
X011759Y006587D01*
X011859Y006487D01*
X013509Y006487D01*
X014359Y005737D02*
X011159Y005737D01*
X010809Y005387D01*
X011259Y005487D02*
X013759Y005487D01*
X014509Y005137D02*
X015309Y005137D01*
X015909Y005737D01*
X014509Y005137D02*
X012259Y005137D01*
X011759Y005137D02*
X011259Y005137D01*
X009909Y006087D02*
X008959Y005137D01*
X007609Y005137D01*
X007509Y005237D01*
X006459Y005237D01*
X006959Y004737D02*
X008959Y004737D01*
X009109Y004887D01*
X008859Y005387D02*
X008659Y005387D01*
X007959Y006087D01*
X005509Y006087D01*
X005409Y006187D01*
X004409Y006437D02*
X007809Y006437D01*
X008509Y005737D01*
X008859Y005737D01*
X008009Y005387D02*
X007459Y005937D01*
X004259Y005937D01*
X004409Y006437D02*
X004109Y006737D01*
X003959Y006987D02*
X002059Y005087D01*
X002059Y002337D01*
X005759Y002337D01*
X006009Y002087D01*
X010809Y002087D01*
X010909Y002187D01*
X012559Y002187D01*
X013259Y001487D01*
X013659Y002087D02*
X015709Y002087D01*
X014609Y002487D02*
X014109Y002987D01*
X012909Y002987D01*
X012609Y003287D01*
X012059Y002787D02*
X011709Y003137D01*
X009909Y003137D01*
X009859Y003187D01*
X009759Y002937D02*
X010509Y002937D01*
X010559Y002987D01*
X011659Y002987D01*
X012059Y002587D01*
X013659Y002587D01*
X011659Y001937D02*
X011609Y001987D01*
X010909Y001987D01*
X010759Y001837D01*
X010409Y002487D02*
X009359Y002487D01*
X009259Y002387D01*
X008559Y002387D01*
X008459Y002487D01*
X008659Y002787D02*
X008809Y002637D01*
X008659Y002787D02*
X006059Y002787D01*
X005859Y002637D02*
X005959Y002537D01*
X007609Y002537D01*
X008109Y002487D02*
X008309Y002287D01*
X008859Y002937D02*
X009159Y002637D01*
X008859Y002937D02*
X006409Y002937D01*
X006309Y003037D01*
X005859Y002637D02*
X004859Y002637D01*
X003459Y004037D01*
X003909Y004137D02*
X004759Y004137D01*
X005459Y003437D01*
X010909Y003437D01*
X011159Y003687D01*
X010659Y002737D02*
X010409Y002487D01*
X009759Y002937D02*
X009409Y003287D01*
X004559Y003287D01*
X003159Y004687D01*
X002909Y004787D02*
X002909Y003187D01*
X003909Y004137D02*
X003909Y005087D01*
X004059Y005237D01*
X005059Y005237D01*
X005259Y004737D02*
X004409Y004737D01*
X004159Y004987D02*
X007409Y004987D01*
X006959Y004737D02*
X006859Y004637D01*
X007259Y005487D02*
X003609Y005487D01*
X002909Y004787D01*
X004409Y004387D02*
X008359Y004387D01*
X008409Y004437D01*
X008759Y003987D02*
X008909Y003837D01*
X009559Y003837D01*
X007409Y005637D02*
X007259Y005487D01*
X008209Y006587D02*
X008159Y006637D01*
X007109Y006887D02*
X007009Y006987D01*
X003959Y006987D01*
X005259Y004737D02*
X005359Y004637D01*
X005109Y004137D02*
X005659Y003587D01*
X004709Y002087D02*
X004809Y001987D01*
X005759Y001987D01*
X006259Y001487D01*
X005259Y001487D02*
X004959Y001487D01*
X004459Y001987D01*
X004109Y001987D01*
X004009Y002087D01*
D15*
X004009Y002087D03*
X004709Y002087D03*
X006059Y002787D03*
X006309Y003037D03*
X005809Y003837D03*
X006559Y003887D03*
X006809Y004137D03*
X006859Y004637D03*
X007409Y004987D03*
X008009Y005387D03*
X007409Y005637D03*
X006459Y005237D03*
X005359Y004637D03*
X005109Y004137D03*
X004409Y004387D03*
X004409Y004737D03*
X004159Y004987D03*
X005059Y005237D03*
X004259Y005937D03*
X003359Y006037D03*
X002659Y006287D03*
X001659Y006187D03*
X002009Y007137D03*
X004109Y006737D03*
X005409Y006187D03*
X006409Y006737D03*
X007109Y006887D03*
X007759Y007087D03*
X008159Y006637D03*
X009009Y006837D03*
X009259Y007337D03*
X009659Y007337D03*
X009909Y007087D03*
X008659Y007337D03*
X008609Y008337D03*
X008159Y008387D03*
X007659Y008637D03*
X006109Y007387D03*
X005009Y008087D03*
X005259Y008637D03*
X002509Y008937D03*
X008859Y005737D03*
X008859Y005387D03*
X009909Y005287D03*
X010809Y005387D03*
X011259Y005487D03*
X011259Y005137D03*
X011759Y005137D03*
X012259Y005137D03*
X012759Y004337D03*
X013509Y004287D03*
X014509Y005137D03*
X013759Y005487D03*
X014359Y005737D03*
X013659Y005987D03*
X013509Y006487D03*
X012259Y006837D03*
X011759Y006587D03*
X012859Y007637D03*
X012259Y008087D03*
X013159Y008337D03*
X012109Y008887D03*
X010609Y008387D03*
X010359Y008137D03*
X009959Y008887D03*
X013809Y007637D03*
X014809Y007637D03*
X015559Y007487D03*
X015309Y006737D03*
X015909Y005737D03*
X016209Y004637D03*
X016209Y003887D03*
X016709Y002487D03*
X015709Y002087D03*
X014609Y002487D03*
X014259Y002337D03*
X013909Y002337D03*
X013659Y002087D03*
X013659Y002587D03*
X012609Y003287D03*
X012159Y003037D03*
X011159Y003687D03*
X009859Y003187D03*
X010659Y002737D03*
X011659Y001937D03*
X010759Y001837D03*
X009159Y002637D03*
X008809Y002637D03*
X008459Y002487D03*
X008109Y002487D03*
X007609Y002537D03*
X009559Y003837D03*
X009359Y004337D03*
X009009Y004237D03*
X008759Y003987D03*
X008409Y004437D03*
X009909Y006087D03*
X003459Y004037D03*
X003159Y004687D03*
X002909Y003187D03*
X018009Y006487D03*
X018009Y007187D03*
X018359Y002487D03*
M02*
