G75*
%MOIN*%
%OFA0B0*%
%FSLAX24Y24*%
%IPPOS*%
%LPD*%
%AMOC8*
5,1,8,0,0,1.08239X$1,22.5*
%
%ADD10R,0.0112X0.0433*%
%ADD11R,0.0433X0.0112*%
%ADD12R,0.0079X0.0787*%
%ADD13R,0.0787X0.0079*%
%ADD14C,0.0088*%
%ADD15R,0.0315X0.0315*%
%ADD16R,0.0394X0.0354*%
%ADD17R,0.0315X0.0669*%
%ADD18OC8,0.0417*%
%ADD19R,0.0650X0.0650*%
%ADD20R,0.0591X0.0591*%
%ADD21R,0.0531X0.0157*%
%ADD22R,0.0630X0.0710*%
%ADD23R,0.0472X0.0551*%
%ADD24R,0.0315X0.0472*%
%ADD25R,0.0390X0.0220*%
%ADD26R,0.0220X0.0390*%
%ADD27C,0.0740*%
%ADD28C,0.0060*%
%ADD29C,0.0290*%
D10*
X006627Y003380D03*
X006823Y003380D03*
X007020Y003380D03*
X007217Y003380D03*
X007414Y003380D03*
X007611Y003380D03*
X007808Y003380D03*
X008005Y003380D03*
X008201Y003380D03*
X008398Y003380D03*
X008595Y003380D03*
X008792Y003380D03*
X008989Y003380D03*
X009186Y003380D03*
X009382Y003380D03*
X009579Y003380D03*
X009579Y007868D03*
X009382Y007868D03*
X009186Y007868D03*
X008989Y007868D03*
X008792Y007868D03*
X008595Y007868D03*
X008398Y007868D03*
X008201Y007868D03*
X008005Y007868D03*
X007808Y007868D03*
X007611Y007868D03*
X007414Y007868D03*
X007217Y007868D03*
X007020Y007868D03*
X006823Y007868D03*
X006627Y007868D03*
D11*
X005859Y007100D03*
X005859Y006904D03*
X005859Y006707D03*
X005859Y006510D03*
X005859Y006313D03*
X005859Y006116D03*
X005859Y005919D03*
X005859Y005722D03*
X005859Y005526D03*
X005859Y005329D03*
X005859Y005132D03*
X005859Y004935D03*
X005859Y004738D03*
X005859Y004541D03*
X005859Y004345D03*
X005859Y004148D03*
X010347Y004148D03*
X010347Y004345D03*
X010347Y004541D03*
X010347Y004738D03*
X010347Y004935D03*
X010347Y005132D03*
X010347Y005329D03*
X010347Y005526D03*
X010347Y005722D03*
X010347Y005919D03*
X010347Y006116D03*
X010347Y006313D03*
X010347Y006510D03*
X010347Y006707D03*
X010347Y006904D03*
X010347Y007100D03*
D12*
X013777Y008255D03*
X013973Y008255D03*
X014170Y008255D03*
X014367Y008255D03*
X014564Y008255D03*
X014761Y008255D03*
X014958Y008255D03*
X015155Y008255D03*
X015351Y008255D03*
X015548Y008255D03*
X015745Y008255D03*
X015942Y008255D03*
X015942Y004318D03*
X015745Y004318D03*
X015548Y004318D03*
X015351Y004318D03*
X015155Y004318D03*
X014958Y004318D03*
X014761Y004318D03*
X014564Y004318D03*
X014367Y004318D03*
X014170Y004318D03*
X013973Y004318D03*
X013777Y004318D03*
D13*
X012891Y005204D03*
X012891Y005401D03*
X012891Y005598D03*
X012891Y005795D03*
X012891Y005991D03*
X012891Y006188D03*
X012891Y006385D03*
X012891Y006582D03*
X012891Y006779D03*
X012891Y006976D03*
X012891Y007172D03*
X012891Y007369D03*
X016828Y007369D03*
X016828Y007172D03*
X016828Y006976D03*
X016828Y006779D03*
X016828Y006582D03*
X016828Y006385D03*
X016828Y006188D03*
X016828Y005991D03*
X016828Y005795D03*
X016828Y005598D03*
X016828Y005401D03*
X016828Y005204D03*
D14*
X018490Y006756D02*
X018490Y007018D01*
X018490Y006756D02*
X018228Y006756D01*
X018228Y007018D01*
X018490Y007018D01*
X018490Y006843D02*
X018228Y006843D01*
X018228Y006930D02*
X018490Y006930D01*
X018490Y007017D02*
X018228Y007017D01*
X018490Y007356D02*
X018490Y007618D01*
X018490Y007356D02*
X018228Y007356D01*
X018228Y007618D01*
X018490Y007618D01*
X018490Y007443D02*
X018228Y007443D01*
X018228Y007530D02*
X018490Y007530D01*
X018490Y007617D02*
X018228Y007617D01*
X011628Y004818D02*
X011628Y004556D01*
X011628Y004818D02*
X011890Y004818D01*
X011890Y004556D01*
X011628Y004556D01*
X011628Y004643D02*
X011890Y004643D01*
X011890Y004730D02*
X011628Y004730D01*
X011628Y004817D02*
X011890Y004817D01*
X011628Y004218D02*
X011628Y003956D01*
X011628Y004218D02*
X011890Y004218D01*
X011890Y003956D01*
X011628Y003956D01*
X011628Y004043D02*
X011890Y004043D01*
X011890Y004130D02*
X011628Y004130D01*
X011628Y004217D02*
X011890Y004217D01*
X011790Y003156D02*
X011528Y003156D01*
X011528Y003418D01*
X011790Y003418D01*
X011790Y003156D01*
X011790Y003243D02*
X011528Y003243D01*
X011528Y003330D02*
X011790Y003330D01*
X011790Y003417D02*
X011528Y003417D01*
X011190Y003156D02*
X010928Y003156D01*
X010928Y003418D01*
X011190Y003418D01*
X011190Y003156D01*
X011190Y003243D02*
X010928Y003243D01*
X010928Y003330D02*
X011190Y003330D01*
X011190Y003417D02*
X010928Y003417D01*
X012528Y002456D02*
X012790Y002456D01*
X012528Y002456D02*
X012528Y002718D01*
X012790Y002718D01*
X012790Y002456D01*
X012790Y002543D02*
X012528Y002543D01*
X012528Y002630D02*
X012790Y002630D01*
X012790Y002717D02*
X012528Y002717D01*
X013128Y002456D02*
X013390Y002456D01*
X013128Y002456D02*
X013128Y002718D01*
X013390Y002718D01*
X013390Y002456D01*
X013390Y002543D02*
X013128Y002543D01*
X013128Y002630D02*
X013390Y002630D01*
X013390Y002717D02*
X013128Y002717D01*
X013928Y002756D02*
X014190Y002756D01*
X013928Y002756D02*
X013928Y003018D01*
X014190Y003018D01*
X014190Y002756D01*
X014190Y002843D02*
X013928Y002843D01*
X013928Y002930D02*
X014190Y002930D01*
X014190Y003017D02*
X013928Y003017D01*
X014528Y002756D02*
X014790Y002756D01*
X014528Y002756D02*
X014528Y003018D01*
X014790Y003018D01*
X014790Y002756D01*
X014790Y002843D02*
X014528Y002843D01*
X014528Y002930D02*
X014790Y002930D01*
X014790Y003017D02*
X014528Y003017D01*
X016328Y003018D02*
X016328Y002756D01*
X016328Y003018D02*
X016590Y003018D01*
X016590Y002756D01*
X016328Y002756D01*
X016328Y002843D02*
X016590Y002843D01*
X016590Y002930D02*
X016328Y002930D01*
X016328Y003017D02*
X016590Y003017D01*
X016928Y003018D02*
X016928Y002756D01*
X016928Y003018D02*
X017190Y003018D01*
X017190Y002756D01*
X016928Y002756D01*
X016928Y002843D02*
X017190Y002843D01*
X017190Y002930D02*
X016928Y002930D01*
X016928Y003017D02*
X017190Y003017D01*
X017528Y003018D02*
X017528Y002756D01*
X017528Y003018D02*
X017790Y003018D01*
X017790Y002756D01*
X017528Y002756D01*
X017528Y002843D02*
X017790Y002843D01*
X017790Y002930D02*
X017528Y002930D01*
X017528Y003017D02*
X017790Y003017D01*
X018128Y003018D02*
X018128Y002756D01*
X018128Y003018D02*
X018390Y003018D01*
X018390Y002756D01*
X018128Y002756D01*
X018128Y002843D02*
X018390Y002843D01*
X018390Y002930D02*
X018128Y002930D01*
X018128Y003017D02*
X018390Y003017D01*
X018128Y003356D02*
X018128Y003618D01*
X018390Y003618D01*
X018390Y003356D01*
X018128Y003356D01*
X018128Y003443D02*
X018390Y003443D01*
X018390Y003530D02*
X018128Y003530D01*
X018128Y003617D02*
X018390Y003617D01*
X017528Y003618D02*
X017528Y003356D01*
X017528Y003618D02*
X017790Y003618D01*
X017790Y003356D01*
X017528Y003356D01*
X017528Y003443D02*
X017790Y003443D01*
X017790Y003530D02*
X017528Y003530D01*
X017528Y003617D02*
X017790Y003617D01*
X016928Y003618D02*
X016928Y003356D01*
X016928Y003618D02*
X017190Y003618D01*
X017190Y003356D01*
X016928Y003356D01*
X016928Y003443D02*
X017190Y003443D01*
X017190Y003530D02*
X016928Y003530D01*
X016928Y003617D02*
X017190Y003617D01*
X016328Y003618D02*
X016328Y003356D01*
X016328Y003618D02*
X016590Y003618D01*
X016590Y003356D01*
X016328Y003356D01*
X016328Y003443D02*
X016590Y003443D01*
X016590Y003530D02*
X016328Y003530D01*
X016328Y003617D02*
X016590Y003617D01*
X018228Y002018D02*
X018228Y001756D01*
X018228Y002018D02*
X018490Y002018D01*
X018490Y001756D01*
X018228Y001756D01*
X018228Y001843D02*
X018490Y001843D01*
X018490Y001930D02*
X018228Y001930D01*
X018228Y002017D02*
X018490Y002017D01*
X018228Y001418D02*
X018228Y001156D01*
X018228Y001418D02*
X018490Y001418D01*
X018490Y001156D01*
X018228Y001156D01*
X018228Y001243D02*
X018490Y001243D01*
X018490Y001330D02*
X018228Y001330D01*
X018228Y001417D02*
X018490Y001417D01*
X004090Y007418D02*
X003828Y007418D01*
X004090Y007418D02*
X004090Y007156D01*
X003828Y007156D01*
X003828Y007418D01*
X003828Y007243D02*
X004090Y007243D01*
X004090Y007330D02*
X003828Y007330D01*
X003828Y007417D02*
X004090Y007417D01*
X003490Y007418D02*
X003228Y007418D01*
X003490Y007418D02*
X003490Y007156D01*
X003228Y007156D01*
X003228Y007418D01*
X003228Y007243D02*
X003490Y007243D01*
X003490Y007330D02*
X003228Y007330D01*
X003228Y007417D02*
X003490Y007417D01*
X003190Y008356D02*
X002928Y008356D01*
X002928Y008618D01*
X003190Y008618D01*
X003190Y008356D01*
X003190Y008443D02*
X002928Y008443D01*
X002928Y008530D02*
X003190Y008530D01*
X003190Y008617D02*
X002928Y008617D01*
X002590Y008356D02*
X002328Y008356D01*
X002328Y008618D01*
X002590Y008618D01*
X002590Y008356D01*
X002590Y008443D02*
X002328Y008443D01*
X002328Y008530D02*
X002590Y008530D01*
X002590Y008617D02*
X002328Y008617D01*
X001890Y008356D02*
X001628Y008356D01*
X001628Y008618D01*
X001890Y008618D01*
X001890Y008356D01*
X001890Y008443D02*
X001628Y008443D01*
X001628Y008530D02*
X001890Y008530D01*
X001890Y008617D02*
X001628Y008617D01*
X001290Y008356D02*
X001028Y008356D01*
X001028Y008618D01*
X001290Y008618D01*
X001290Y008356D01*
X001290Y008443D02*
X001028Y008443D01*
X001028Y008530D02*
X001290Y008530D01*
X001290Y008617D02*
X001028Y008617D01*
X002928Y005556D02*
X003190Y005556D01*
X002928Y005556D02*
X002928Y005818D01*
X003190Y005818D01*
X003190Y005556D01*
X003190Y005643D02*
X002928Y005643D01*
X002928Y005730D02*
X003190Y005730D01*
X003190Y005817D02*
X002928Y005817D01*
X003528Y005556D02*
X003790Y005556D01*
X003528Y005556D02*
X003528Y005818D01*
X003790Y005818D01*
X003790Y005556D01*
X003790Y005643D02*
X003528Y005643D01*
X003528Y005730D02*
X003790Y005730D01*
X003790Y005817D02*
X003528Y005817D01*
X003628Y004956D02*
X003890Y004956D01*
X003628Y004956D02*
X003628Y005218D01*
X003890Y005218D01*
X003890Y004956D01*
X003890Y005043D02*
X003628Y005043D01*
X003628Y005130D02*
X003890Y005130D01*
X003890Y005217D02*
X003628Y005217D01*
X003290Y004956D02*
X003028Y004956D01*
X003028Y005218D01*
X003290Y005218D01*
X003290Y004956D01*
X003290Y005043D02*
X003028Y005043D01*
X003028Y005130D02*
X003290Y005130D01*
X003290Y005217D02*
X003028Y005217D01*
D15*
X017759Y001882D03*
X017759Y001291D03*
D16*
X017744Y008080D03*
X018374Y008080D03*
X018374Y009694D03*
X017744Y009694D03*
D17*
X017587Y008887D03*
D18*
X002359Y005963D03*
X002359Y004211D03*
D19*
X001306Y003443D03*
X001306Y006730D03*
D20*
X001306Y005579D03*
X001306Y004595D03*
D21*
X002359Y004575D03*
X002359Y004831D03*
X002359Y005087D03*
X002359Y005343D03*
X002359Y005598D03*
D22*
X002519Y007587D03*
X001399Y007587D03*
D23*
X011144Y007354D03*
X011774Y007354D03*
X011774Y008220D03*
X011144Y008220D03*
D24*
X015205Y003487D03*
X015914Y003487D03*
X015914Y002887D03*
X015205Y002887D03*
X002514Y001887D03*
X001805Y001887D03*
D25*
X012466Y003687D03*
X013253Y003947D03*
X013253Y003427D03*
D26*
X004319Y008680D03*
X003799Y008680D03*
X004059Y007893D03*
D27*
X004259Y009487D03*
X005259Y009487D03*
X006259Y009487D03*
X007259Y009487D03*
X008259Y009487D03*
X009259Y009487D03*
X010259Y009487D03*
X011259Y009487D03*
X012259Y009487D03*
X013259Y009487D03*
X014259Y009487D03*
X015259Y009487D03*
X016259Y009487D03*
X016259Y001487D03*
X015259Y001487D03*
X014259Y001487D03*
X013259Y001487D03*
X012259Y001487D03*
X011259Y001487D03*
X010259Y001487D03*
X009259Y001487D03*
X008259Y001487D03*
X007259Y001487D03*
X006259Y001487D03*
X005259Y001487D03*
X004259Y001487D03*
X003259Y001487D03*
X003259Y009487D03*
D28*
X001809Y001887D02*
X002259Y001437D01*
X003259Y001437D01*
X003259Y001487D01*
X002514Y001887D02*
X002509Y001887D01*
X002359Y002037D01*
X002359Y004211D01*
X002359Y004537D02*
X001959Y004537D01*
X001959Y007137D01*
X002009Y007137D01*
X001959Y007137D02*
X001959Y008487D01*
X001759Y008487D01*
X001959Y008487D02*
X002459Y008487D01*
X002759Y008687D02*
X002759Y007787D01*
X002559Y007587D01*
X002519Y007587D01*
X001759Y007237D02*
X001409Y007587D01*
X001399Y007587D01*
X001359Y007587D01*
X001359Y008287D01*
X001159Y008487D01*
X002509Y008937D02*
X002759Y008687D01*
X003059Y008487D02*
X003609Y007937D01*
X003659Y007937D01*
X003659Y006537D01*
X004259Y005937D01*
X004509Y005987D02*
X005009Y006487D01*
X005009Y008087D01*
X005259Y008637D02*
X005259Y006537D01*
X004659Y005937D01*
X004659Y004287D01*
X004459Y004087D01*
X004459Y001987D01*
X004609Y001837D01*
X004809Y001837D01*
X005359Y002387D01*
X005359Y004337D01*
X005809Y004337D01*
X005859Y004345D01*
X005859Y004541D02*
X005809Y004587D01*
X005359Y004587D01*
X005359Y004637D01*
X005109Y004887D02*
X005109Y004137D01*
X004409Y004387D02*
X004259Y004237D01*
X004259Y001487D01*
X004009Y002087D02*
X002909Y003187D01*
X003459Y004037D02*
X003459Y005487D01*
X003659Y005687D01*
X003359Y006037D02*
X003359Y007287D01*
X003959Y007287D02*
X004109Y007137D01*
X004109Y006737D01*
X004509Y005987D02*
X004509Y004837D01*
X004409Y004737D01*
X004159Y004987D02*
X004159Y005087D01*
X003759Y005087D01*
X003159Y005087D02*
X002359Y005087D01*
X002359Y005343D02*
X002359Y005387D01*
X002759Y005387D01*
X003059Y005687D01*
X002659Y005637D02*
X002659Y006287D01*
X001759Y006287D02*
X001759Y007237D01*
X001759Y006287D02*
X001659Y006187D01*
X002359Y005637D02*
X002359Y005598D01*
X002359Y005637D02*
X002659Y005637D01*
X002359Y004831D02*
X002359Y004787D01*
X003159Y004787D01*
X003159Y004687D01*
X002359Y004575D02*
X002359Y004537D01*
X001959Y004537D02*
X001809Y004537D01*
X001809Y001887D01*
X001805Y001887D01*
X004709Y002087D02*
X004809Y002187D01*
X004809Y005487D01*
X005809Y005487D01*
X005859Y005526D01*
X005859Y005337D02*
X005859Y005329D01*
X005859Y005337D02*
X006209Y005337D01*
X006359Y005487D01*
X006709Y005487D01*
X006709Y004837D01*
X006609Y004737D01*
X006609Y004337D01*
X006809Y004137D01*
X006559Y003887D02*
X006459Y003987D01*
X006459Y005237D01*
X006859Y005537D02*
X006759Y005637D01*
X006759Y006487D01*
X005859Y006487D01*
X005859Y006510D01*
X005809Y006687D02*
X005409Y006687D01*
X005409Y006187D01*
X005809Y006687D02*
X005859Y006707D01*
X005859Y006887D02*
X005859Y006904D01*
X005859Y006887D02*
X006409Y006887D01*
X006409Y006737D01*
X006659Y006787D02*
X006659Y007837D01*
X006627Y007868D01*
X006609Y007887D01*
X005259Y009237D01*
X005259Y009487D01*
X006259Y009487D02*
X007209Y008537D01*
X007209Y007887D01*
X007217Y007868D01*
X007059Y007837D02*
X007020Y007868D01*
X007059Y007837D02*
X007059Y006937D01*
X007109Y006887D01*
X006859Y006787D02*
X007159Y006487D01*
X007759Y007087D01*
X008159Y006987D02*
X007409Y006237D01*
X007409Y005637D01*
X006859Y005537D02*
X006859Y004637D01*
X007059Y004487D02*
X007109Y004537D01*
X007109Y004737D01*
X007009Y004837D01*
X007009Y006437D01*
X006659Y006787D01*
X006859Y006787D02*
X006859Y007837D01*
X006823Y007868D01*
X007409Y007887D02*
X007414Y007868D01*
X007409Y007887D02*
X007409Y009337D01*
X007259Y009487D01*
X007659Y008637D02*
X007659Y007887D01*
X007611Y007868D01*
X008159Y007837D02*
X008201Y007868D01*
X008159Y007837D02*
X008159Y006987D01*
X008159Y006637D02*
X007759Y006237D01*
X007759Y003387D01*
X007808Y003380D01*
X007809Y003337D01*
X007809Y003137D01*
X007859Y003087D01*
X007859Y002287D01*
X007509Y002287D01*
X007059Y002737D01*
X007059Y003337D01*
X007020Y003380D01*
X007059Y003387D01*
X007059Y004487D01*
X007259Y004787D02*
X007259Y003387D01*
X007217Y003380D01*
X007409Y003387D02*
X007414Y003380D01*
X007409Y003387D02*
X007409Y004987D01*
X007259Y004787D02*
X007159Y004887D01*
X007159Y006487D01*
X006109Y007387D02*
X005859Y007137D01*
X005859Y007100D01*
X004059Y007893D02*
X004059Y007937D01*
X003659Y007937D01*
X003759Y008687D02*
X003799Y008680D01*
X003809Y008687D01*
X004309Y008687D01*
X004319Y008680D01*
X003759Y008687D02*
X003259Y009187D01*
X003259Y009487D01*
X008159Y008387D02*
X009259Y009487D01*
X010159Y009487D02*
X010259Y009487D01*
X010159Y009487D02*
X008809Y008137D01*
X008809Y007887D01*
X008792Y007868D01*
X008609Y007887D02*
X008595Y007868D01*
X008609Y007887D02*
X008609Y008337D01*
X008398Y007868D02*
X008409Y007837D01*
X008409Y004437D01*
X008609Y004587D02*
X008759Y004437D01*
X008759Y003987D01*
X009009Y003637D02*
X009009Y003387D01*
X008989Y003380D01*
X009159Y003337D02*
X009186Y003380D01*
X009159Y003337D02*
X009159Y003037D01*
X008659Y003037D01*
X008109Y002487D01*
X008259Y002287D02*
X008259Y001487D01*
X009259Y001487D02*
X009259Y002187D01*
X008809Y002637D01*
X008459Y002487D02*
X008259Y002287D01*
X007609Y002537D02*
X007609Y003337D01*
X007611Y003380D01*
X008005Y003380D02*
X008009Y003387D01*
X008009Y005387D01*
X008859Y005387D02*
X009009Y005237D01*
X009009Y004237D01*
X009259Y004337D02*
X009359Y004337D01*
X009259Y004337D02*
X009259Y005337D01*
X008859Y005737D01*
X009659Y005537D02*
X009659Y007337D01*
X009509Y007087D02*
X009509Y004537D01*
X010109Y003937D01*
X010109Y002487D01*
X009609Y002987D01*
X009609Y003337D01*
X009579Y003380D01*
X009559Y003387D01*
X009409Y003387D01*
X009382Y003380D01*
X009009Y003637D02*
X009259Y003887D01*
X009259Y004337D01*
X009559Y003837D02*
X009859Y003537D01*
X009859Y003187D01*
X010659Y002737D02*
X010659Y004087D01*
X011509Y004937D01*
X011509Y006487D01*
X010359Y006487D01*
X010347Y006510D01*
X010359Y006687D02*
X010347Y006707D01*
X010359Y006687D02*
X011759Y006687D01*
X011759Y006587D01*
X012259Y006837D02*
X012359Y006937D01*
X012359Y007837D01*
X012509Y007987D01*
X012509Y009237D01*
X012259Y009487D01*
X012109Y008887D02*
X012109Y008237D01*
X012259Y008087D01*
X012109Y007737D02*
X011709Y008137D01*
X011774Y008220D01*
X011759Y008187D01*
X011709Y008137D01*
X011159Y007587D01*
X011159Y007387D01*
X011144Y007354D01*
X011109Y007337D01*
X010159Y007337D01*
X010009Y007187D01*
X010009Y007087D01*
X009909Y007087D01*
X010009Y007087D02*
X010009Y006937D01*
X010309Y006937D01*
X010347Y006904D01*
X010359Y007087D02*
X010347Y007100D01*
X010359Y007087D02*
X010809Y007087D01*
X010809Y007037D01*
X010859Y006987D01*
X011759Y006987D01*
X011759Y007337D01*
X011774Y007354D01*
X012109Y007037D02*
X012009Y006937D01*
X012009Y005887D01*
X012509Y005387D01*
X012891Y005401D01*
X012859Y005387D01*
X012509Y005387D01*
X012359Y005237D01*
X012359Y005137D01*
X012259Y005137D01*
X012359Y005137D02*
X012359Y004687D01*
X011759Y004087D01*
X011459Y003887D02*
X011659Y003687D01*
X012466Y003687D01*
X012759Y003487D02*
X012759Y004337D01*
X013509Y004287D02*
X013559Y004287D01*
X013559Y003737D01*
X013259Y003437D01*
X013253Y003427D01*
X013259Y003187D02*
X013659Y003187D01*
X013909Y003437D01*
X015159Y003437D01*
X015159Y003487D01*
X015205Y003487D01*
X014659Y003187D02*
X014659Y002887D01*
X015205Y002887D01*
X014659Y002887D02*
X014659Y002537D01*
X014609Y002487D01*
X014259Y002337D02*
X014259Y001487D01*
X013659Y002087D02*
X013659Y002587D01*
X013909Y002737D02*
X013909Y002337D01*
X013259Y002587D02*
X013859Y003187D01*
X014659Y003187D01*
X014059Y002887D02*
X013909Y002737D01*
X013259Y003187D02*
X013159Y003087D01*
X012759Y003487D01*
X012609Y003287D02*
X011659Y003287D01*
X011659Y001937D01*
X011359Y001587D02*
X011259Y001487D01*
X011359Y001587D02*
X011359Y003487D01*
X011159Y003687D01*
X011459Y003887D02*
X011459Y004387D01*
X011759Y004687D01*
X011759Y005137D01*
X011259Y005137D02*
X011259Y004937D01*
X010359Y004937D01*
X010347Y004935D01*
X010347Y005132D02*
X010359Y005137D01*
X010809Y005137D01*
X010809Y005387D01*
X011259Y005487D02*
X011259Y005687D01*
X010359Y005687D01*
X010347Y005722D01*
X010309Y005537D02*
X010347Y005526D01*
X010309Y005537D02*
X009659Y005537D01*
X009909Y005287D02*
X010309Y005287D01*
X010347Y005329D01*
X009909Y006087D02*
X009909Y006287D01*
X010309Y006287D01*
X010347Y006313D01*
X009509Y007087D02*
X009259Y007337D01*
X008659Y007337D02*
X008609Y007287D01*
X008609Y004587D01*
X010347Y004148D02*
X010359Y004137D01*
X010359Y002487D01*
X010759Y002487D01*
X010909Y002637D01*
X010909Y003137D01*
X011059Y003287D01*
X012159Y003037D02*
X012259Y002937D01*
X012259Y001487D01*
X010759Y001837D02*
X010109Y002487D01*
X010259Y001537D02*
X009159Y002637D01*
X010259Y001537D02*
X010259Y001487D01*
X012659Y002587D02*
X013159Y003087D01*
X013559Y004287D02*
X013559Y005337D01*
X013409Y005487D01*
X013409Y006037D01*
X013259Y006187D01*
X012891Y006188D01*
X012909Y006187D01*
X012909Y006387D01*
X012891Y006385D01*
X012909Y006187D02*
X013259Y006187D01*
X013259Y006237D01*
X013509Y006487D01*
X013759Y006687D02*
X013309Y007137D01*
X012909Y007137D01*
X012891Y007172D01*
X012891Y007369D02*
X012859Y007387D01*
X012859Y007637D01*
X012109Y007737D02*
X012109Y007037D01*
X011109Y007887D02*
X011109Y008187D01*
X011144Y008220D01*
X011109Y007887D02*
X009609Y007887D01*
X009579Y007868D01*
X009409Y007887D02*
X009382Y007868D01*
X009409Y007887D02*
X009409Y008137D01*
X009459Y008187D01*
X010359Y008187D01*
X010359Y008137D01*
X010609Y008387D02*
X011259Y009037D01*
X011259Y009487D01*
X009959Y008887D02*
X009209Y008137D01*
X009209Y007887D01*
X009186Y007868D01*
X009009Y007837D02*
X008989Y007868D01*
X009009Y007837D02*
X009009Y006837D01*
X005859Y005132D02*
X005809Y005137D01*
X005059Y005137D01*
X005059Y005237D01*
X005109Y004887D02*
X005809Y004887D01*
X005859Y004935D01*
X005859Y004738D02*
X005859Y004737D01*
X006309Y004737D01*
X006309Y003037D01*
X006059Y002787D02*
X006059Y003937D01*
X005859Y004137D01*
X005859Y004148D01*
X005809Y003837D02*
X005809Y002687D01*
X007009Y001487D01*
X007259Y001487D01*
X013759Y005487D02*
X014159Y005887D01*
X014159Y008237D01*
X014170Y008255D01*
X014209Y008287D01*
X014359Y008287D01*
X014367Y008255D01*
X014559Y008237D02*
X014564Y008255D01*
X014559Y008237D02*
X014559Y005937D01*
X014359Y005737D01*
X013759Y006087D02*
X013759Y006687D01*
X013759Y006087D02*
X013659Y005987D01*
X014509Y005137D02*
X014509Y004387D01*
X014559Y004337D01*
X014564Y004318D01*
X015155Y004318D02*
X015159Y004337D01*
X015159Y004687D01*
X015059Y004787D01*
X015059Y007387D01*
X014809Y007637D01*
X015559Y007487D02*
X015559Y004337D01*
X015548Y004318D01*
X015359Y004337D02*
X015351Y004318D01*
X015359Y004337D02*
X015309Y004387D01*
X015309Y006737D01*
X016828Y006582D02*
X016859Y006587D01*
X017209Y006587D01*
X017359Y006737D01*
X017359Y007687D01*
X017709Y008037D01*
X017744Y008080D01*
X018359Y008087D02*
X018374Y008080D01*
X018359Y008037D01*
X018359Y007487D01*
X018009Y007487D01*
X018009Y007187D01*
X018359Y006887D02*
X017509Y006887D01*
X017509Y006487D01*
X017209Y006187D01*
X016859Y006187D01*
X016828Y006188D01*
X016828Y005991D02*
X016859Y005987D01*
X018009Y005987D01*
X018009Y006487D01*
X018009Y005987D02*
X018559Y005987D01*
X018559Y003187D01*
X018259Y002887D01*
X017659Y002887D01*
X017059Y002887D01*
X016459Y002887D01*
X015914Y002887D01*
X015914Y003487D02*
X016209Y003487D01*
X016209Y003887D01*
X016209Y003487D02*
X016459Y003487D01*
X017059Y003487D01*
X017659Y003487D01*
X018259Y003487D01*
X017659Y002887D02*
X017659Y001987D01*
X017759Y001887D01*
X017759Y001882D01*
X018359Y001887D02*
X018359Y002487D01*
X016709Y002487D02*
X016709Y002087D01*
X015709Y002087D01*
X017759Y001291D02*
X017759Y001287D01*
X018359Y001287D01*
X016209Y004637D02*
X016209Y008587D01*
X015309Y009487D01*
X015259Y009487D01*
X015909Y008237D02*
X015942Y008255D01*
X015909Y008237D02*
X015909Y005737D01*
X013809Y007637D02*
X013159Y008287D01*
X013159Y008337D01*
X017587Y008887D02*
X017609Y008887D01*
X017609Y008837D01*
X018359Y008087D01*
D29*
X018009Y007187D03*
X018009Y006487D03*
X015909Y005737D03*
X014509Y005137D03*
X013759Y005487D03*
X014359Y005737D03*
X013659Y005987D03*
X013509Y006487D03*
X012259Y006837D03*
X011759Y006587D03*
X012859Y007637D03*
X012259Y008087D03*
X013159Y008337D03*
X012109Y008887D03*
X010609Y008387D03*
X010359Y008137D03*
X009959Y008887D03*
X008609Y008337D03*
X008159Y008387D03*
X007659Y008637D03*
X008659Y007337D03*
X009259Y007337D03*
X009659Y007337D03*
X009909Y007087D03*
X009009Y006837D03*
X008159Y006637D03*
X007759Y007087D03*
X007109Y006887D03*
X006409Y006737D03*
X006109Y007387D03*
X005009Y008087D03*
X005259Y008637D03*
X002509Y008937D03*
X002009Y007137D03*
X002659Y006287D03*
X003359Y006037D03*
X004259Y005937D03*
X005059Y005237D03*
X004409Y004737D03*
X004159Y004987D03*
X004409Y004387D03*
X005109Y004137D03*
X005359Y004637D03*
X006459Y005237D03*
X006859Y004637D03*
X007409Y004987D03*
X008009Y005387D03*
X007409Y005637D03*
X008859Y005737D03*
X008859Y005387D03*
X009909Y005287D03*
X010809Y005387D03*
X011259Y005487D03*
X011259Y005137D03*
X011759Y005137D03*
X012259Y005137D03*
X012759Y004337D03*
X013509Y004287D03*
X012609Y003287D03*
X012159Y003037D03*
X011159Y003687D03*
X009859Y003187D03*
X010659Y002737D03*
X011659Y001937D03*
X010759Y001837D03*
X009159Y002637D03*
X008809Y002637D03*
X008459Y002487D03*
X008109Y002487D03*
X007609Y002537D03*
X006309Y003037D03*
X006059Y002787D03*
X004709Y002087D03*
X004009Y002087D03*
X002909Y003187D03*
X003459Y004037D03*
X003159Y004687D03*
X001659Y006187D03*
X004109Y006737D03*
X005409Y006187D03*
X008409Y004437D03*
X009009Y004237D03*
X009359Y004337D03*
X008759Y003987D03*
X009559Y003837D03*
X006809Y004137D03*
X006559Y003887D03*
X005809Y003837D03*
X009909Y006087D03*
X013809Y007637D03*
X014809Y007637D03*
X015559Y007487D03*
X015309Y006737D03*
X016209Y004637D03*
X016209Y003887D03*
X016709Y002487D03*
X015709Y002087D03*
X014609Y002487D03*
X014259Y002337D03*
X013909Y002337D03*
X013659Y002087D03*
X013659Y002587D03*
X018359Y002487D03*
M02*
