G75*
%MOIN*%
%OFA0B0*%
%FSLAX24Y24*%
%IPPOS*%
%LPD*%
%AMOC8*
5,1,8,0,0,1.08239X$1,22.5*
%
%ADD10R,0.0192X0.0513*%
%ADD11R,0.0513X0.0192*%
%ADD12R,0.0159X0.0867*%
%ADD13R,0.0867X0.0159*%
%ADD14C,0.0107*%
%ADD15R,0.0395X0.0395*%
%ADD16R,0.0474X0.0434*%
%ADD17R,0.0395X0.0749*%
%ADD18R,0.0768X0.0768*%
%ADD19OC8,0.0497*%
%ADD20R,0.0671X0.0671*%
%ADD21R,0.0611X0.0237*%
%ADD22R,0.0710X0.0790*%
%ADD23R,0.0552X0.0631*%
%ADD24R,0.0395X0.0552*%
%ADD25R,0.0470X0.0300*%
%ADD26R,0.0300X0.0470*%
%ADD27C,0.0820*%
%ADD28C,0.0370*%
D10*
X006627Y003380D03*
X006823Y003380D03*
X007020Y003380D03*
X007217Y003380D03*
X007414Y003380D03*
X007611Y003380D03*
X007808Y003380D03*
X008005Y003380D03*
X008201Y003380D03*
X008398Y003380D03*
X008595Y003380D03*
X008792Y003380D03*
X008989Y003380D03*
X009186Y003380D03*
X009382Y003380D03*
X009579Y003380D03*
X009579Y007868D03*
X009382Y007868D03*
X009186Y007868D03*
X008989Y007868D03*
X008792Y007868D03*
X008595Y007868D03*
X008398Y007868D03*
X008201Y007868D03*
X008005Y007868D03*
X007808Y007868D03*
X007611Y007868D03*
X007414Y007868D03*
X007217Y007868D03*
X007020Y007868D03*
X006823Y007868D03*
X006627Y007868D03*
D11*
X005859Y007100D03*
X005859Y006904D03*
X005859Y006707D03*
X005859Y006510D03*
X005859Y006313D03*
X005859Y006116D03*
X005859Y005919D03*
X005859Y005722D03*
X005859Y005526D03*
X005859Y005329D03*
X005859Y005132D03*
X005859Y004935D03*
X005859Y004738D03*
X005859Y004541D03*
X005859Y004345D03*
X005859Y004148D03*
X010347Y004148D03*
X010347Y004345D03*
X010347Y004541D03*
X010347Y004738D03*
X010347Y004935D03*
X010347Y005132D03*
X010347Y005329D03*
X010347Y005526D03*
X010347Y005722D03*
X010347Y005919D03*
X010347Y006116D03*
X010347Y006313D03*
X010347Y006510D03*
X010347Y006707D03*
X010347Y006904D03*
X010347Y007100D03*
D12*
X013777Y008255D03*
X013973Y008255D03*
X014170Y008255D03*
X014367Y008255D03*
X014564Y008255D03*
X014761Y008255D03*
X014958Y008255D03*
X015155Y008255D03*
X015351Y008255D03*
X015548Y008255D03*
X015745Y008255D03*
X015942Y008255D03*
X015942Y004318D03*
X015745Y004318D03*
X015548Y004318D03*
X015351Y004318D03*
X015155Y004318D03*
X014958Y004318D03*
X014761Y004318D03*
X014564Y004318D03*
X014367Y004318D03*
X014170Y004318D03*
X013973Y004318D03*
X013777Y004318D03*
D13*
X012891Y005204D03*
X012891Y005401D03*
X012891Y005598D03*
X012891Y005795D03*
X012891Y005991D03*
X012891Y006188D03*
X012891Y006385D03*
X012891Y006582D03*
X012891Y006779D03*
X012891Y006976D03*
X012891Y007172D03*
X012891Y007369D03*
X016828Y007369D03*
X016828Y007172D03*
X016828Y006976D03*
X016828Y006779D03*
X016828Y006582D03*
X016828Y006385D03*
X016828Y006188D03*
X016828Y005991D03*
X016828Y005795D03*
X016828Y005598D03*
X016828Y005401D03*
X016828Y005204D03*
D14*
X018520Y006726D02*
X018520Y007048D01*
X018520Y006726D02*
X018198Y006726D01*
X018198Y007048D01*
X018520Y007048D01*
X018520Y006833D02*
X018198Y006833D01*
X018198Y006940D02*
X018520Y006940D01*
X018520Y007047D02*
X018198Y007047D01*
X018520Y007326D02*
X018520Y007648D01*
X018520Y007326D02*
X018198Y007326D01*
X018198Y007648D01*
X018520Y007648D01*
X018520Y007433D02*
X018198Y007433D01*
X018198Y007540D02*
X018520Y007540D01*
X018520Y007647D02*
X018198Y007647D01*
X011598Y004848D02*
X011598Y004526D01*
X011598Y004848D02*
X011920Y004848D01*
X011920Y004526D01*
X011598Y004526D01*
X011598Y004633D02*
X011920Y004633D01*
X011920Y004740D02*
X011598Y004740D01*
X011598Y004847D02*
X011920Y004847D01*
X011598Y004248D02*
X011598Y003926D01*
X011598Y004248D02*
X011920Y004248D01*
X011920Y003926D01*
X011598Y003926D01*
X011598Y004033D02*
X011920Y004033D01*
X011920Y004140D02*
X011598Y004140D01*
X011598Y004247D02*
X011920Y004247D01*
X011820Y003126D02*
X011498Y003126D01*
X011498Y003448D01*
X011820Y003448D01*
X011820Y003126D01*
X011820Y003233D02*
X011498Y003233D01*
X011498Y003340D02*
X011820Y003340D01*
X011820Y003447D02*
X011498Y003447D01*
X011220Y003126D02*
X010898Y003126D01*
X010898Y003448D01*
X011220Y003448D01*
X011220Y003126D01*
X011220Y003233D02*
X010898Y003233D01*
X010898Y003340D02*
X011220Y003340D01*
X011220Y003447D02*
X010898Y003447D01*
X012498Y002426D02*
X012820Y002426D01*
X012498Y002426D02*
X012498Y002748D01*
X012820Y002748D01*
X012820Y002426D01*
X012820Y002533D02*
X012498Y002533D01*
X012498Y002640D02*
X012820Y002640D01*
X012820Y002747D02*
X012498Y002747D01*
X013098Y002426D02*
X013420Y002426D01*
X013098Y002426D02*
X013098Y002748D01*
X013420Y002748D01*
X013420Y002426D01*
X013420Y002533D02*
X013098Y002533D01*
X013098Y002640D02*
X013420Y002640D01*
X013420Y002747D02*
X013098Y002747D01*
X013898Y002726D02*
X014220Y002726D01*
X013898Y002726D02*
X013898Y003048D01*
X014220Y003048D01*
X014220Y002726D01*
X014220Y002833D02*
X013898Y002833D01*
X013898Y002940D02*
X014220Y002940D01*
X014220Y003047D02*
X013898Y003047D01*
X014498Y002726D02*
X014820Y002726D01*
X014498Y002726D02*
X014498Y003048D01*
X014820Y003048D01*
X014820Y002726D01*
X014820Y002833D02*
X014498Y002833D01*
X014498Y002940D02*
X014820Y002940D01*
X014820Y003047D02*
X014498Y003047D01*
X016298Y003048D02*
X016298Y002726D01*
X016298Y003048D02*
X016620Y003048D01*
X016620Y002726D01*
X016298Y002726D01*
X016298Y002833D02*
X016620Y002833D01*
X016620Y002940D02*
X016298Y002940D01*
X016298Y003047D02*
X016620Y003047D01*
X016898Y003048D02*
X016898Y002726D01*
X016898Y003048D02*
X017220Y003048D01*
X017220Y002726D01*
X016898Y002726D01*
X016898Y002833D02*
X017220Y002833D01*
X017220Y002940D02*
X016898Y002940D01*
X016898Y003047D02*
X017220Y003047D01*
X017498Y003048D02*
X017498Y002726D01*
X017498Y003048D02*
X017820Y003048D01*
X017820Y002726D01*
X017498Y002726D01*
X017498Y002833D02*
X017820Y002833D01*
X017820Y002940D02*
X017498Y002940D01*
X017498Y003047D02*
X017820Y003047D01*
X018098Y003048D02*
X018098Y002726D01*
X018098Y003048D02*
X018420Y003048D01*
X018420Y002726D01*
X018098Y002726D01*
X018098Y002833D02*
X018420Y002833D01*
X018420Y002940D02*
X018098Y002940D01*
X018098Y003047D02*
X018420Y003047D01*
X018098Y003326D02*
X018098Y003648D01*
X018420Y003648D01*
X018420Y003326D01*
X018098Y003326D01*
X018098Y003433D02*
X018420Y003433D01*
X018420Y003540D02*
X018098Y003540D01*
X018098Y003647D02*
X018420Y003647D01*
X017498Y003648D02*
X017498Y003326D01*
X017498Y003648D02*
X017820Y003648D01*
X017820Y003326D01*
X017498Y003326D01*
X017498Y003433D02*
X017820Y003433D01*
X017820Y003540D02*
X017498Y003540D01*
X017498Y003647D02*
X017820Y003647D01*
X016898Y003648D02*
X016898Y003326D01*
X016898Y003648D02*
X017220Y003648D01*
X017220Y003326D01*
X016898Y003326D01*
X016898Y003433D02*
X017220Y003433D01*
X017220Y003540D02*
X016898Y003540D01*
X016898Y003647D02*
X017220Y003647D01*
X016298Y003648D02*
X016298Y003326D01*
X016298Y003648D02*
X016620Y003648D01*
X016620Y003326D01*
X016298Y003326D01*
X016298Y003433D02*
X016620Y003433D01*
X016620Y003540D02*
X016298Y003540D01*
X016298Y003647D02*
X016620Y003647D01*
X018198Y002048D02*
X018198Y001726D01*
X018198Y002048D02*
X018520Y002048D01*
X018520Y001726D01*
X018198Y001726D01*
X018198Y001833D02*
X018520Y001833D01*
X018520Y001940D02*
X018198Y001940D01*
X018198Y002047D02*
X018520Y002047D01*
X018198Y001448D02*
X018198Y001126D01*
X018198Y001448D02*
X018520Y001448D01*
X018520Y001126D01*
X018198Y001126D01*
X018198Y001233D02*
X018520Y001233D01*
X018520Y001340D02*
X018198Y001340D01*
X018198Y001447D02*
X018520Y001447D01*
X004120Y007448D02*
X003798Y007448D01*
X004120Y007448D02*
X004120Y007126D01*
X003798Y007126D01*
X003798Y007448D01*
X003798Y007233D02*
X004120Y007233D01*
X004120Y007340D02*
X003798Y007340D01*
X003798Y007447D02*
X004120Y007447D01*
X003520Y007448D02*
X003198Y007448D01*
X003520Y007448D02*
X003520Y007126D01*
X003198Y007126D01*
X003198Y007448D01*
X003198Y007233D02*
X003520Y007233D01*
X003520Y007340D02*
X003198Y007340D01*
X003198Y007447D02*
X003520Y007447D01*
X003220Y008326D02*
X002898Y008326D01*
X002898Y008648D01*
X003220Y008648D01*
X003220Y008326D01*
X003220Y008433D02*
X002898Y008433D01*
X002898Y008540D02*
X003220Y008540D01*
X003220Y008647D02*
X002898Y008647D01*
X002620Y008326D02*
X002298Y008326D01*
X002298Y008648D01*
X002620Y008648D01*
X002620Y008326D01*
X002620Y008433D02*
X002298Y008433D01*
X002298Y008540D02*
X002620Y008540D01*
X002620Y008647D02*
X002298Y008647D01*
X001920Y008326D02*
X001598Y008326D01*
X001598Y008648D01*
X001920Y008648D01*
X001920Y008326D01*
X001920Y008433D02*
X001598Y008433D01*
X001598Y008540D02*
X001920Y008540D01*
X001920Y008647D02*
X001598Y008647D01*
X001320Y008326D02*
X000998Y008326D01*
X000998Y008648D01*
X001320Y008648D01*
X001320Y008326D01*
X001320Y008433D02*
X000998Y008433D01*
X000998Y008540D02*
X001320Y008540D01*
X001320Y008647D02*
X000998Y008647D01*
X002898Y005526D02*
X003220Y005526D01*
X002898Y005526D02*
X002898Y005848D01*
X003220Y005848D01*
X003220Y005526D01*
X003220Y005633D02*
X002898Y005633D01*
X002898Y005740D02*
X003220Y005740D01*
X003220Y005847D02*
X002898Y005847D01*
X003498Y005526D02*
X003820Y005526D01*
X003498Y005526D02*
X003498Y005848D01*
X003820Y005848D01*
X003820Y005526D01*
X003820Y005633D02*
X003498Y005633D01*
X003498Y005740D02*
X003820Y005740D01*
X003820Y005847D02*
X003498Y005847D01*
X003598Y004926D02*
X003920Y004926D01*
X003598Y004926D02*
X003598Y005248D01*
X003920Y005248D01*
X003920Y004926D01*
X003920Y005033D02*
X003598Y005033D01*
X003598Y005140D02*
X003920Y005140D01*
X003920Y005247D02*
X003598Y005247D01*
X003320Y004926D02*
X002998Y004926D01*
X002998Y005248D01*
X003320Y005248D01*
X003320Y004926D01*
X003320Y005033D02*
X002998Y005033D01*
X002998Y005140D02*
X003320Y005140D01*
X003320Y005247D02*
X002998Y005247D01*
D15*
X017759Y001882D03*
X017759Y001291D03*
D16*
X017744Y008080D03*
X018374Y008080D03*
X018374Y009694D03*
X017744Y009694D03*
D17*
X017587Y008887D03*
D18*
X001306Y006730D03*
X001306Y003443D03*
D19*
X002359Y004211D03*
X002359Y005963D03*
D20*
X001306Y005579D03*
X001306Y004595D03*
D21*
X002359Y004575D03*
X002359Y004831D03*
X002359Y005087D03*
X002359Y005343D03*
X002359Y005598D03*
D22*
X002519Y007587D03*
X001399Y007587D03*
D23*
X011144Y007354D03*
X011774Y007354D03*
X011774Y008220D03*
X011144Y008220D03*
D24*
X001805Y001887D03*
X002514Y001887D03*
X015205Y002887D03*
X015914Y002887D03*
X015914Y003487D03*
X015205Y003487D03*
D25*
X013253Y003427D03*
X013253Y003947D03*
X012466Y003687D03*
D26*
X004319Y008680D03*
X003799Y008680D03*
X004059Y007893D03*
D27*
X004259Y009487D03*
X005259Y009487D03*
X006259Y009487D03*
X007259Y009487D03*
X008259Y009487D03*
X009259Y009487D03*
X010259Y009487D03*
X011259Y009487D03*
X012259Y009487D03*
X013259Y009487D03*
X014259Y009487D03*
X015259Y009487D03*
X016259Y009487D03*
X016259Y001487D03*
X015259Y001487D03*
X014259Y001487D03*
X013259Y001487D03*
X012259Y001487D03*
X011259Y001487D03*
X010259Y001487D03*
X009259Y001487D03*
X008259Y001487D03*
X007259Y001487D03*
X006259Y001487D03*
X005259Y001487D03*
X004259Y001487D03*
X003259Y001487D03*
X003259Y009487D03*
D28*
X002509Y008937D03*
X005009Y008087D03*
X005259Y008637D03*
X006109Y007387D03*
X006409Y006737D03*
X007109Y006887D03*
X007759Y007087D03*
X008159Y006637D03*
X009009Y006837D03*
X009259Y007337D03*
X009659Y007337D03*
X009909Y007087D03*
X008659Y007337D03*
X008609Y008337D03*
X008159Y008387D03*
X007659Y008637D03*
X009959Y008887D03*
X010609Y008387D03*
X010359Y008137D03*
X012259Y008087D03*
X012859Y007637D03*
X013809Y007637D03*
X014809Y007637D03*
X015559Y007487D03*
X015309Y006737D03*
X013659Y005987D03*
X014359Y005737D03*
X013759Y005487D03*
X014509Y005137D03*
X013509Y004287D03*
X012759Y004337D03*
X012259Y005137D03*
X011759Y005137D03*
X011259Y005137D03*
X010809Y005387D03*
X011259Y005487D03*
X009909Y005287D03*
X008859Y005387D03*
X008859Y005737D03*
X008009Y005387D03*
X007409Y005637D03*
X006459Y005237D03*
X006859Y004637D03*
X007409Y004987D03*
X008409Y004437D03*
X009009Y004237D03*
X009359Y004337D03*
X008759Y003987D03*
X009559Y003837D03*
X009859Y003187D03*
X010659Y002737D03*
X011659Y001937D03*
X010759Y001837D03*
X009159Y002637D03*
X008809Y002637D03*
X008459Y002487D03*
X008109Y002487D03*
X007609Y002537D03*
X006309Y003037D03*
X006059Y002787D03*
X004709Y002087D03*
X004009Y002087D03*
X002909Y003187D03*
X003459Y004037D03*
X004409Y004387D03*
X004409Y004737D03*
X004159Y004987D03*
X005059Y005237D03*
X005359Y004637D03*
X005109Y004137D03*
X005809Y003837D03*
X006559Y003887D03*
X006809Y004137D03*
X004259Y005937D03*
X003359Y006037D03*
X002659Y006287D03*
X001659Y006187D03*
X002009Y007137D03*
X004109Y006737D03*
X005409Y006187D03*
X003159Y004687D03*
X009909Y006087D03*
X011759Y006587D03*
X012259Y006837D03*
X013509Y006487D03*
X015909Y005737D03*
X016209Y004637D03*
X016209Y003887D03*
X016709Y002487D03*
X015709Y002087D03*
X014609Y002487D03*
X014259Y002337D03*
X013909Y002337D03*
X013659Y002087D03*
X013659Y002587D03*
X012609Y003287D03*
X012159Y003037D03*
X011159Y003687D03*
X018009Y006487D03*
X018009Y007187D03*
X013159Y008337D03*
X012109Y008887D03*
X018359Y002487D03*
M02*
