G75*
%MOIN*%
%OFA0B0*%
%FSLAX24Y24*%
%IPPOS*%
%LPD*%
%AMOC8*
5,1,8,0,0,1.08239X$1,22.5*
%
%ADD10C,0.0000*%
%ADD11C,0.0060*%
%ADD12C,0.0050*%
D10*
X000759Y000887D02*
X000759Y010087D01*
X018759Y010087D01*
X018759Y000887D01*
X000759Y000887D01*
D11*
X001409Y009087D02*
X002509Y009087D01*
X002526Y009089D01*
X002543Y009093D01*
X002559Y009100D01*
X002573Y009110D01*
X002586Y009123D01*
X002596Y009137D01*
X002603Y009153D01*
X002607Y009170D01*
X002609Y009187D01*
X002609Y009787D01*
X002607Y009804D01*
X002603Y009821D01*
X002596Y009837D01*
X002586Y009851D01*
X002573Y009864D01*
X002559Y009874D01*
X002543Y009881D01*
X002526Y009885D01*
X002509Y009887D01*
X001409Y009887D01*
X001392Y009885D01*
X001375Y009881D01*
X001359Y009874D01*
X001345Y009864D01*
X001332Y009851D01*
X001322Y009837D01*
X001315Y009821D01*
X001311Y009804D01*
X001309Y009787D01*
X001309Y009187D01*
X001311Y009170D01*
X001315Y009153D01*
X001322Y009137D01*
X001332Y009123D01*
X001345Y009110D01*
X001359Y009100D01*
X001375Y009093D01*
X001392Y009089D01*
X001409Y009087D01*
D12*
X001595Y009012D02*
X001595Y008562D01*
X001745Y008562D02*
X001444Y008562D01*
X001745Y008862D02*
X001595Y009012D01*
X001905Y009012D02*
X002055Y009012D01*
X001980Y009012D02*
X001980Y008637D01*
X002055Y008562D01*
X002130Y008562D01*
X002205Y008637D01*
X002365Y008637D02*
X002365Y008712D01*
X002440Y008787D01*
X002590Y008787D01*
X002665Y008862D01*
X002665Y008937D01*
X002590Y009012D01*
X002440Y009012D01*
X002365Y008937D01*
X002365Y008637D02*
X002440Y008562D01*
X002590Y008562D01*
X002665Y008637D01*
M02*
