G75*
%MOIN*%
%OFA0B0*%
%FSLAX24Y24*%
%IPPOS*%
%LPD*%
%AMOC8*
5,1,8,0,0,1.08239X$1,22.5*
%
%ADD10R,0.0112X0.0433*%
%ADD11R,0.0433X0.0112*%
%ADD12R,0.0079X0.0787*%
%ADD13R,0.0787X0.0079*%
%ADD14C,0.0088*%
%ADD15R,0.0315X0.0315*%
%ADD16R,0.0394X0.0354*%
%ADD17R,0.0315X0.0669*%
%ADD18R,0.0630X0.0630*%
%ADD19R,0.0591X0.0591*%
%ADD20R,0.0531X0.0157*%
%ADD21C,0.0020*%
%ADD22R,0.0630X0.0710*%
%ADD23R,0.0472X0.0551*%
%ADD24R,0.0315X0.0472*%
%ADD25R,0.0390X0.0220*%
%ADD26R,0.0220X0.0390*%
D10*
X006627Y003380D03*
X006823Y003380D03*
X007020Y003380D03*
X007217Y003380D03*
X007414Y003380D03*
X007611Y003380D03*
X007808Y003380D03*
X008005Y003380D03*
X008201Y003380D03*
X008398Y003380D03*
X008595Y003380D03*
X008792Y003380D03*
X008989Y003380D03*
X009186Y003380D03*
X009382Y003380D03*
X009579Y003380D03*
X009579Y007868D03*
X009382Y007868D03*
X009186Y007868D03*
X008989Y007868D03*
X008792Y007868D03*
X008595Y007868D03*
X008398Y007868D03*
X008201Y007868D03*
X008005Y007868D03*
X007808Y007868D03*
X007611Y007868D03*
X007414Y007868D03*
X007217Y007868D03*
X007020Y007868D03*
X006823Y007868D03*
X006627Y007868D03*
D11*
X005859Y007100D03*
X005859Y006904D03*
X005859Y006707D03*
X005859Y006510D03*
X005859Y006313D03*
X005859Y006116D03*
X005859Y005919D03*
X005859Y005722D03*
X005859Y005526D03*
X005859Y005329D03*
X005859Y005132D03*
X005859Y004935D03*
X005859Y004738D03*
X005859Y004541D03*
X005859Y004345D03*
X005859Y004148D03*
X010347Y004148D03*
X010347Y004345D03*
X010347Y004541D03*
X010347Y004738D03*
X010347Y004935D03*
X010347Y005132D03*
X010347Y005329D03*
X010347Y005526D03*
X010347Y005722D03*
X010347Y005919D03*
X010347Y006116D03*
X010347Y006313D03*
X010347Y006510D03*
X010347Y006707D03*
X010347Y006904D03*
X010347Y007100D03*
D12*
X013777Y008255D03*
X013973Y008255D03*
X014170Y008255D03*
X014367Y008255D03*
X014564Y008255D03*
X014761Y008255D03*
X014958Y008255D03*
X015155Y008255D03*
X015351Y008255D03*
X015548Y008255D03*
X015745Y008255D03*
X015942Y008255D03*
X015942Y004318D03*
X015745Y004318D03*
X015548Y004318D03*
X015351Y004318D03*
X015155Y004318D03*
X014958Y004318D03*
X014761Y004318D03*
X014564Y004318D03*
X014367Y004318D03*
X014170Y004318D03*
X013973Y004318D03*
X013777Y004318D03*
D13*
X012891Y005204D03*
X012891Y005401D03*
X012891Y005598D03*
X012891Y005795D03*
X012891Y005991D03*
X012891Y006188D03*
X012891Y006385D03*
X012891Y006582D03*
X012891Y006779D03*
X012891Y006976D03*
X012891Y007172D03*
X012891Y007369D03*
X016828Y007369D03*
X016828Y007172D03*
X016828Y006976D03*
X016828Y006779D03*
X016828Y006582D03*
X016828Y006385D03*
X016828Y006188D03*
X016828Y005991D03*
X016828Y005795D03*
X016828Y005598D03*
X016828Y005401D03*
X016828Y005204D03*
D14*
X018490Y006756D02*
X018490Y007018D01*
X018490Y006756D02*
X018228Y006756D01*
X018228Y007018D01*
X018490Y007018D01*
X018490Y006843D02*
X018228Y006843D01*
X018228Y006930D02*
X018490Y006930D01*
X018490Y007017D02*
X018228Y007017D01*
X018490Y007356D02*
X018490Y007618D01*
X018490Y007356D02*
X018228Y007356D01*
X018228Y007618D01*
X018490Y007618D01*
X018490Y007443D02*
X018228Y007443D01*
X018228Y007530D02*
X018490Y007530D01*
X018490Y007617D02*
X018228Y007617D01*
X011628Y004818D02*
X011628Y004556D01*
X011628Y004818D02*
X011890Y004818D01*
X011890Y004556D01*
X011628Y004556D01*
X011628Y004643D02*
X011890Y004643D01*
X011890Y004730D02*
X011628Y004730D01*
X011628Y004817D02*
X011890Y004817D01*
X011628Y004218D02*
X011628Y003956D01*
X011628Y004218D02*
X011890Y004218D01*
X011890Y003956D01*
X011628Y003956D01*
X011628Y004043D02*
X011890Y004043D01*
X011890Y004130D02*
X011628Y004130D01*
X011628Y004217D02*
X011890Y004217D01*
X011790Y003156D02*
X011528Y003156D01*
X011528Y003418D01*
X011790Y003418D01*
X011790Y003156D01*
X011790Y003243D02*
X011528Y003243D01*
X011528Y003330D02*
X011790Y003330D01*
X011790Y003417D02*
X011528Y003417D01*
X011190Y003156D02*
X010928Y003156D01*
X010928Y003418D01*
X011190Y003418D01*
X011190Y003156D01*
X011190Y003243D02*
X010928Y003243D01*
X010928Y003330D02*
X011190Y003330D01*
X011190Y003417D02*
X010928Y003417D01*
X012528Y002456D02*
X012790Y002456D01*
X012528Y002456D02*
X012528Y002718D01*
X012790Y002718D01*
X012790Y002456D01*
X012790Y002543D02*
X012528Y002543D01*
X012528Y002630D02*
X012790Y002630D01*
X012790Y002717D02*
X012528Y002717D01*
X013128Y002456D02*
X013390Y002456D01*
X013128Y002456D02*
X013128Y002718D01*
X013390Y002718D01*
X013390Y002456D01*
X013390Y002543D02*
X013128Y002543D01*
X013128Y002630D02*
X013390Y002630D01*
X013390Y002717D02*
X013128Y002717D01*
X013928Y002756D02*
X014190Y002756D01*
X013928Y002756D02*
X013928Y003018D01*
X014190Y003018D01*
X014190Y002756D01*
X014190Y002843D02*
X013928Y002843D01*
X013928Y002930D02*
X014190Y002930D01*
X014190Y003017D02*
X013928Y003017D01*
X014528Y002756D02*
X014790Y002756D01*
X014528Y002756D02*
X014528Y003018D01*
X014790Y003018D01*
X014790Y002756D01*
X014790Y002843D02*
X014528Y002843D01*
X014528Y002930D02*
X014790Y002930D01*
X014790Y003017D02*
X014528Y003017D01*
X016328Y003018D02*
X016328Y002756D01*
X016328Y003018D02*
X016590Y003018D01*
X016590Y002756D01*
X016328Y002756D01*
X016328Y002843D02*
X016590Y002843D01*
X016590Y002930D02*
X016328Y002930D01*
X016328Y003017D02*
X016590Y003017D01*
X016928Y003018D02*
X016928Y002756D01*
X016928Y003018D02*
X017190Y003018D01*
X017190Y002756D01*
X016928Y002756D01*
X016928Y002843D02*
X017190Y002843D01*
X017190Y002930D02*
X016928Y002930D01*
X016928Y003017D02*
X017190Y003017D01*
X017528Y003018D02*
X017528Y002756D01*
X017528Y003018D02*
X017790Y003018D01*
X017790Y002756D01*
X017528Y002756D01*
X017528Y002843D02*
X017790Y002843D01*
X017790Y002930D02*
X017528Y002930D01*
X017528Y003017D02*
X017790Y003017D01*
X018128Y003018D02*
X018128Y002756D01*
X018128Y003018D02*
X018390Y003018D01*
X018390Y002756D01*
X018128Y002756D01*
X018128Y002843D02*
X018390Y002843D01*
X018390Y002930D02*
X018128Y002930D01*
X018128Y003017D02*
X018390Y003017D01*
X018128Y003356D02*
X018128Y003618D01*
X018390Y003618D01*
X018390Y003356D01*
X018128Y003356D01*
X018128Y003443D02*
X018390Y003443D01*
X018390Y003530D02*
X018128Y003530D01*
X018128Y003617D02*
X018390Y003617D01*
X017528Y003618D02*
X017528Y003356D01*
X017528Y003618D02*
X017790Y003618D01*
X017790Y003356D01*
X017528Y003356D01*
X017528Y003443D02*
X017790Y003443D01*
X017790Y003530D02*
X017528Y003530D01*
X017528Y003617D02*
X017790Y003617D01*
X016928Y003618D02*
X016928Y003356D01*
X016928Y003618D02*
X017190Y003618D01*
X017190Y003356D01*
X016928Y003356D01*
X016928Y003443D02*
X017190Y003443D01*
X017190Y003530D02*
X016928Y003530D01*
X016928Y003617D02*
X017190Y003617D01*
X016328Y003618D02*
X016328Y003356D01*
X016328Y003618D02*
X016590Y003618D01*
X016590Y003356D01*
X016328Y003356D01*
X016328Y003443D02*
X016590Y003443D01*
X016590Y003530D02*
X016328Y003530D01*
X016328Y003617D02*
X016590Y003617D01*
X018228Y002018D02*
X018228Y001756D01*
X018228Y002018D02*
X018490Y002018D01*
X018490Y001756D01*
X018228Y001756D01*
X018228Y001843D02*
X018490Y001843D01*
X018490Y001930D02*
X018228Y001930D01*
X018228Y002017D02*
X018490Y002017D01*
X018228Y001418D02*
X018228Y001156D01*
X018228Y001418D02*
X018490Y001418D01*
X018490Y001156D01*
X018228Y001156D01*
X018228Y001243D02*
X018490Y001243D01*
X018490Y001330D02*
X018228Y001330D01*
X018228Y001417D02*
X018490Y001417D01*
X004090Y007418D02*
X003828Y007418D01*
X004090Y007418D02*
X004090Y007156D01*
X003828Y007156D01*
X003828Y007418D01*
X003828Y007243D02*
X004090Y007243D01*
X004090Y007330D02*
X003828Y007330D01*
X003828Y007417D02*
X004090Y007417D01*
X003490Y007418D02*
X003228Y007418D01*
X003490Y007418D02*
X003490Y007156D01*
X003228Y007156D01*
X003228Y007418D01*
X003228Y007243D02*
X003490Y007243D01*
X003490Y007330D02*
X003228Y007330D01*
X003228Y007417D02*
X003490Y007417D01*
X003190Y008356D02*
X002928Y008356D01*
X002928Y008618D01*
X003190Y008618D01*
X003190Y008356D01*
X003190Y008443D02*
X002928Y008443D01*
X002928Y008530D02*
X003190Y008530D01*
X003190Y008617D02*
X002928Y008617D01*
X002590Y008356D02*
X002328Y008356D01*
X002328Y008618D01*
X002590Y008618D01*
X002590Y008356D01*
X002590Y008443D02*
X002328Y008443D01*
X002328Y008530D02*
X002590Y008530D01*
X002590Y008617D02*
X002328Y008617D01*
X001890Y008356D02*
X001628Y008356D01*
X001628Y008618D01*
X001890Y008618D01*
X001890Y008356D01*
X001890Y008443D02*
X001628Y008443D01*
X001628Y008530D02*
X001890Y008530D01*
X001890Y008617D02*
X001628Y008617D01*
X001290Y008356D02*
X001028Y008356D01*
X001028Y008618D01*
X001290Y008618D01*
X001290Y008356D01*
X001290Y008443D02*
X001028Y008443D01*
X001028Y008530D02*
X001290Y008530D01*
X001290Y008617D02*
X001028Y008617D01*
X002928Y005556D02*
X003190Y005556D01*
X002928Y005556D02*
X002928Y005818D01*
X003190Y005818D01*
X003190Y005556D01*
X003190Y005643D02*
X002928Y005643D01*
X002928Y005730D02*
X003190Y005730D01*
X003190Y005817D02*
X002928Y005817D01*
X003528Y005556D02*
X003790Y005556D01*
X003528Y005556D02*
X003528Y005818D01*
X003790Y005818D01*
X003790Y005556D01*
X003790Y005643D02*
X003528Y005643D01*
X003528Y005730D02*
X003790Y005730D01*
X003790Y005817D02*
X003528Y005817D01*
X003628Y004956D02*
X003890Y004956D01*
X003628Y004956D02*
X003628Y005218D01*
X003890Y005218D01*
X003890Y004956D01*
X003890Y005043D02*
X003628Y005043D01*
X003628Y005130D02*
X003890Y005130D01*
X003890Y005217D02*
X003628Y005217D01*
X003290Y004956D02*
X003028Y004956D01*
X003028Y005218D01*
X003290Y005218D01*
X003290Y004956D01*
X003290Y005043D02*
X003028Y005043D01*
X003028Y005130D02*
X003290Y005130D01*
X003290Y005217D02*
X003028Y005217D01*
D15*
X017759Y001882D03*
X017759Y001291D03*
D16*
X017744Y008080D03*
X018374Y008080D03*
X018374Y009694D03*
X017744Y009694D03*
D17*
X017587Y008887D03*
D18*
X001306Y006730D03*
X001306Y003443D03*
D19*
X001306Y004595D03*
X001306Y005579D03*
D20*
X002359Y005598D03*
X002359Y005343D03*
X002359Y005087D03*
X002359Y004831D03*
X002359Y004575D03*
D21*
X002281Y004410D02*
X002442Y004410D01*
X002556Y004295D01*
X002556Y004130D01*
X002442Y004016D01*
X002281Y004016D01*
X002162Y004134D01*
X002162Y004291D01*
X002281Y004410D01*
X002267Y004396D02*
X002455Y004396D01*
X002473Y004378D02*
X002249Y004378D01*
X002231Y004360D02*
X002491Y004360D01*
X002510Y004342D02*
X002213Y004342D01*
X002195Y004324D02*
X002528Y004324D01*
X002546Y004305D02*
X002177Y004305D01*
X002162Y004287D02*
X002556Y004287D01*
X002556Y004269D02*
X002162Y004269D01*
X002162Y004251D02*
X002556Y004251D01*
X002556Y004233D02*
X002162Y004233D01*
X002162Y004215D02*
X002556Y004215D01*
X002556Y004196D02*
X002162Y004196D01*
X002162Y004178D02*
X002556Y004178D01*
X002556Y004160D02*
X002162Y004160D01*
X002162Y004142D02*
X002556Y004142D01*
X002550Y004124D02*
X002173Y004124D01*
X002191Y004105D02*
X002532Y004105D01*
X002513Y004087D02*
X002209Y004087D01*
X002227Y004069D02*
X002495Y004069D01*
X002477Y004051D02*
X002245Y004051D01*
X002264Y004033D02*
X002459Y004033D01*
X002442Y005768D02*
X002281Y005768D01*
X002162Y005886D01*
X002162Y006043D01*
X002281Y006161D01*
X002442Y006161D01*
X002556Y006047D01*
X002556Y005882D01*
X002442Y005768D01*
X002453Y005779D02*
X002270Y005779D01*
X002252Y005797D02*
X002471Y005797D01*
X002489Y005815D02*
X002233Y005815D01*
X002215Y005833D02*
X002507Y005833D01*
X002525Y005851D02*
X002197Y005851D01*
X002179Y005869D02*
X002544Y005869D01*
X002556Y005888D02*
X002162Y005888D01*
X002162Y005906D02*
X002556Y005906D01*
X002556Y005924D02*
X002162Y005924D01*
X002162Y005942D02*
X002556Y005942D01*
X002556Y005960D02*
X002162Y005960D01*
X002162Y005979D02*
X002556Y005979D01*
X002556Y005997D02*
X002162Y005997D01*
X002162Y006015D02*
X002556Y006015D01*
X002556Y006033D02*
X002162Y006033D01*
X002170Y006051D02*
X002552Y006051D01*
X002534Y006069D02*
X002189Y006069D01*
X002207Y006088D02*
X002516Y006088D01*
X002498Y006106D02*
X002225Y006106D01*
X002243Y006124D02*
X002479Y006124D01*
X002461Y006142D02*
X002261Y006142D01*
X002279Y006160D02*
X002443Y006160D01*
D22*
X002519Y007587D03*
X001399Y007587D03*
D23*
X011144Y007354D03*
X011774Y007354D03*
X011774Y008220D03*
X011144Y008220D03*
D24*
X001805Y001887D03*
X002514Y001887D03*
X015205Y002887D03*
X015914Y002887D03*
X015914Y003487D03*
X015205Y003487D03*
D25*
X013253Y003427D03*
X013253Y003947D03*
X012466Y003687D03*
D26*
X004319Y008680D03*
X003799Y008680D03*
X004059Y007893D03*
M02*
