%
M48
M72
T01C0.0130
T02C0.0217
T03C0.0400
T04C0.0433
%
T01
X4009Y2087
X4709Y2087
X6059Y2787
X6309Y3037
X5809Y3837
X6559Y3887
X6809Y4137
X6859Y4637
X7409Y4987
X8009Y5387
X7409Y5637
X6459Y5237
X5359Y4637
X5109Y4137
X4409Y4387
X4409Y4737
X4159Y4987
X5059Y5237
X4259Y5937
X3359Y6037
X2659Y6287
X1659Y6187
X2009Y7137
X4109Y6737
X5409Y6187
X6409Y6737
X7109Y6887
X7759Y7087
X8159Y6637
X9009Y6837
X9259Y7337
X9659Y7337
X9909Y7087
X8659Y7337
X8609Y8337
X8159Y8387
X7659Y8637
X6109Y7387
X5009Y8087
X5259Y8637
X2509Y8937
X8859Y5737
X8859Y5387
X9909Y5287
X10809Y5387
X11259Y5487
X11259Y5137
X11759Y5137
X12259Y5137
X12759Y4337
X13509Y4287
X14509Y5137
X13759Y5487
X14359Y5737
X13659Y5987
X13509Y6487
X12259Y6837
X11759Y6587
X12859Y7637
X12259Y8087
X13159Y8337
X12109Y8887
X10609Y8387
X10359Y8137
X9959Y8887
X13809Y7637
X14809Y7637
X15559Y7487
X15309Y6737
X15909Y5737
X16209Y4637
X16209Y3887
X16709Y2487
X15709Y2087
X14609Y2487
X14259Y2337
X13909Y2337
X13659Y2087
X13659Y2587
X12609Y3287
X12159Y3037
X11159Y3687
X9859Y3187
X10659Y2737
X11659Y1937
X10759Y1837
X9159Y2637
X8809Y2637
X8459Y2487
X8109Y2487
X7609Y2537
X9559Y3837
X9359Y4337
X9009Y4237
X8759Y3987
X8409Y4437
X9909Y6087
X3459Y4037
X3159Y4687
X2909Y3187
X18009Y6487
X18009Y7187
X18359Y2487
T02
X2359Y4211
X2359Y5963
T03
X3259Y1487
X4259Y1487
X5259Y1487
X6259Y1487
X7259Y1487
X8259Y1487
X9259Y1487
X10259Y1487
X11259Y1487
X12259Y1487
X13259Y1487
X14259Y1487
X15259Y1487
X16259Y1487
X16259Y9487
X15259Y9487
X14259Y9487
X13259Y9487
X12259Y9487
X11259Y9487
X10259Y9487
X9259Y9487
X8259Y9487
X7259Y9487
X6259Y9487
X5259Y9487
X4259Y9487
X3259Y9487
T04
X1306Y6730
X1306Y3443
M30
