G75*
%MOIN*%
%OFA0B0*%
%FSLAX24Y24*%
%IPPOS*%
%LPD*%
%AMOC8*
5,1,8,0,0,1.08239X$1,22.5*
%
%ADD10C,0.0000*%
%ADD11C,0.0080*%
%ADD12C,0.0050*%
%ADD13C,0.0060*%
%ADD14C,0.0040*%
%ADD15R,0.0059X0.0118*%
%ADD16R,0.0118X0.0118*%
%ADD17C,0.0030*%
%ADD18C,0.0020*%
%ADD19C,0.0010*%
D10*
X000759Y000887D02*
X000759Y010087D01*
X018759Y010087D01*
X018759Y000887D01*
X000759Y000887D01*
D11*
X002759Y001237D02*
X002759Y001737D01*
X003009Y001987D01*
X003509Y001987D01*
X003759Y001737D01*
X004009Y001987D01*
X004509Y001987D01*
X004759Y001737D01*
X005009Y001987D01*
X005509Y001987D01*
X005759Y001737D01*
X006009Y001987D01*
X006509Y001987D01*
X006759Y001737D01*
X007009Y001987D01*
X007509Y001987D01*
X007759Y001737D01*
X008009Y001987D01*
X008509Y001987D01*
X008759Y001737D01*
X009009Y001987D01*
X009509Y001987D01*
X009759Y001737D01*
X010009Y001987D01*
X010509Y001987D01*
X010759Y001737D01*
X011009Y001987D01*
X011509Y001987D01*
X011759Y001737D01*
X012009Y001987D01*
X012509Y001987D01*
X012759Y001737D01*
X013009Y001987D01*
X013509Y001987D01*
X013759Y001737D01*
X014009Y001987D01*
X014509Y001987D01*
X014759Y001737D01*
X015009Y001987D01*
X015509Y001987D01*
X015759Y001737D01*
X016009Y001987D01*
X016509Y001987D01*
X016759Y001737D01*
X016759Y001237D01*
X016509Y000987D01*
X016009Y000987D01*
X015759Y001237D01*
X015509Y000987D01*
X015009Y000987D01*
X014759Y001237D01*
X014509Y000987D01*
X014009Y000987D01*
X013759Y001237D01*
X013509Y000987D01*
X013009Y000987D01*
X012759Y001237D01*
X012509Y000987D01*
X012009Y000987D01*
X011759Y001237D01*
X011509Y000987D01*
X011009Y000987D01*
X010759Y001237D01*
X010509Y000987D01*
X010009Y000987D01*
X009759Y001237D01*
X009509Y000987D01*
X009009Y000987D01*
X008759Y001237D01*
X008509Y000987D01*
X008009Y000987D01*
X007759Y001237D01*
X007509Y000987D01*
X007009Y000987D01*
X006759Y001237D01*
X006509Y000987D01*
X006009Y000987D01*
X005759Y001237D01*
X005509Y000987D01*
X005009Y000987D01*
X004759Y001237D01*
X004509Y000987D01*
X004009Y000987D01*
X003759Y001237D01*
X003509Y000987D01*
X003009Y000987D01*
X002759Y001237D01*
X006134Y004049D02*
X006528Y003656D01*
X010071Y003656D01*
X010071Y007593D01*
X006134Y007593D01*
X006134Y004049D01*
X006009Y008987D02*
X006509Y008987D01*
X006759Y009237D01*
X007009Y008987D01*
X007509Y008987D01*
X007759Y009237D01*
X008009Y008987D01*
X008509Y008987D01*
X008759Y009237D01*
X009009Y008987D01*
X009509Y008987D01*
X009759Y009237D01*
X010009Y008987D01*
X010509Y008987D01*
X010759Y009237D01*
X011009Y008987D01*
X011509Y008987D01*
X011759Y009237D01*
X012009Y008987D01*
X012509Y008987D01*
X012759Y009237D01*
X013009Y008987D01*
X013509Y008987D01*
X013759Y009237D01*
X014009Y008987D01*
X014509Y008987D01*
X014759Y009237D01*
X015009Y008987D01*
X015509Y008987D01*
X015759Y009237D01*
X016009Y008987D01*
X016509Y008987D01*
X016759Y009237D01*
X016759Y009737D01*
X016509Y009987D01*
X016009Y009987D01*
X015759Y009737D01*
X015509Y009987D01*
X015009Y009987D01*
X014759Y009737D01*
X014509Y009987D01*
X014009Y009987D01*
X013759Y009737D01*
X013509Y009987D01*
X013009Y009987D01*
X012759Y009737D01*
X012509Y009987D01*
X012009Y009987D01*
X011759Y009737D01*
X011509Y009987D01*
X011009Y009987D01*
X010759Y009737D01*
X010509Y009987D01*
X010009Y009987D01*
X009759Y009737D01*
X009509Y009987D01*
X009009Y009987D01*
X008759Y009737D01*
X008509Y009987D01*
X008009Y009987D01*
X007759Y009737D01*
X007509Y009987D01*
X007009Y009987D01*
X006759Y009737D01*
X006509Y009987D01*
X006009Y009987D01*
X005759Y009737D01*
X005509Y009987D01*
X005009Y009987D01*
X004759Y009737D01*
X004509Y009987D01*
X004009Y009987D01*
X003759Y009737D01*
X003509Y009987D01*
X003009Y009987D01*
X002759Y009737D01*
X002759Y009237D01*
X003009Y008987D01*
X003509Y008987D01*
X003759Y009237D01*
X004009Y008987D01*
X004509Y008987D01*
X004759Y009237D01*
X005009Y008987D01*
X005509Y008987D01*
X005759Y009237D01*
X006009Y008987D01*
D12*
X004634Y008547D02*
X003484Y008547D01*
X003484Y008027D01*
X004634Y008027D01*
X004634Y008547D01*
X003309Y008737D02*
X003309Y008237D01*
X002209Y008237D01*
X002209Y008737D01*
X003309Y008737D01*
X002009Y008737D02*
X002009Y008237D01*
X000909Y008237D01*
X000909Y008737D01*
X002009Y008737D01*
X003109Y007537D02*
X004209Y007537D01*
X004209Y007037D01*
X003109Y007037D01*
X003109Y007537D01*
X002359Y006445D02*
X002359Y005874D01*
X001966Y005874D01*
X001966Y004299D01*
X002359Y004299D01*
X002359Y003728D01*
X000469Y003728D01*
X000125Y003433D01*
X000469Y003728D02*
X000469Y006445D01*
X002359Y006445D01*
X002809Y005937D02*
X002809Y005437D01*
X003909Y005437D01*
X003909Y005937D01*
X002809Y005937D01*
X002909Y005337D02*
X002909Y004837D01*
X004009Y004837D01*
X004009Y005337D01*
X002909Y005337D01*
X000469Y006445D02*
X000125Y006740D01*
X002829Y010232D02*
X002904Y010232D01*
X002979Y010307D01*
X002979Y010682D01*
X002904Y010682D02*
X003055Y010682D01*
X003215Y010682D02*
X003440Y010682D01*
X003515Y010607D01*
X003515Y010457D01*
X003440Y010382D01*
X003215Y010382D01*
X003215Y010232D02*
X003215Y010682D01*
X003675Y010607D02*
X003750Y010682D01*
X003900Y010682D01*
X003975Y010607D01*
X003975Y010532D01*
X003675Y010232D01*
X003975Y010232D01*
X002829Y010232D02*
X002754Y010307D01*
X011509Y004937D02*
X012009Y004937D01*
X012009Y003837D01*
X011509Y003837D01*
X011509Y004937D01*
X012599Y004261D02*
X013119Y004261D01*
X013119Y003112D01*
X012599Y003112D01*
X012599Y004261D01*
X012930Y004436D02*
X012932Y004454D01*
X012938Y004470D01*
X012947Y004485D01*
X012960Y004498D01*
X012975Y004507D01*
X012991Y004513D01*
X013009Y004515D01*
X013027Y004513D01*
X013043Y004507D01*
X013058Y004498D01*
X013071Y004485D01*
X013080Y004470D01*
X013086Y004454D01*
X013088Y004436D01*
X013086Y004418D01*
X013080Y004402D01*
X013071Y004387D01*
X013058Y004374D01*
X013043Y004365D01*
X013027Y004359D01*
X013009Y004357D01*
X012991Y004359D01*
X012975Y004365D01*
X012960Y004374D01*
X012947Y004387D01*
X012938Y004402D01*
X012932Y004418D01*
X012930Y004436D01*
X013088Y004515D02*
X013088Y008058D01*
X016631Y008058D01*
X016631Y004515D01*
X013088Y004515D01*
X011909Y003537D02*
X011909Y003037D01*
X010809Y003037D01*
X010809Y003537D01*
X011909Y003537D01*
X012409Y002837D02*
X012409Y002337D01*
X013509Y002337D01*
X013509Y002837D01*
X012409Y002837D01*
X013809Y002637D02*
X013809Y003137D01*
X014909Y003137D01*
X014909Y002637D01*
X013809Y002637D01*
X016209Y002637D02*
X016209Y003737D01*
X016709Y003737D01*
X016709Y002637D01*
X016209Y002637D01*
X016809Y002637D02*
X016809Y003737D01*
X017309Y003737D01*
X017309Y002637D01*
X016809Y002637D01*
X017409Y002637D02*
X017409Y003737D01*
X017909Y003737D01*
X017909Y002637D01*
X017409Y002637D01*
X018009Y002637D02*
X018009Y003737D01*
X018509Y003737D01*
X018509Y002637D01*
X018009Y002637D01*
X018109Y002137D02*
X018609Y002137D01*
X018609Y001037D01*
X018109Y001037D01*
X018109Y002137D01*
X016504Y000742D02*
X016504Y000292D01*
X016354Y000292D02*
X016654Y000292D01*
X016194Y000517D02*
X016119Y000442D01*
X015893Y000442D01*
X015893Y000292D02*
X015893Y000742D01*
X016119Y000742D01*
X016194Y000667D01*
X016194Y000517D01*
X016354Y000592D02*
X016504Y000742D01*
X015733Y000742D02*
X015583Y000742D01*
X015658Y000742D02*
X015658Y000367D01*
X015583Y000292D01*
X015508Y000292D01*
X015433Y000367D01*
X006500Y004121D02*
X006502Y004141D01*
X006508Y004159D01*
X006517Y004177D01*
X006529Y004192D01*
X006544Y004204D01*
X006562Y004213D01*
X006580Y004219D01*
X006600Y004221D01*
X006620Y004219D01*
X006638Y004213D01*
X006656Y004204D01*
X006671Y004192D01*
X006683Y004177D01*
X006692Y004159D01*
X006698Y004141D01*
X006700Y004121D01*
X006698Y004101D01*
X006692Y004083D01*
X006683Y004065D01*
X006671Y004050D01*
X006656Y004038D01*
X006638Y004029D01*
X006620Y004023D01*
X006600Y004021D01*
X006580Y004023D01*
X006562Y004029D01*
X006544Y004038D01*
X006529Y004050D01*
X006517Y004065D01*
X006508Y004083D01*
X006502Y004101D01*
X006500Y004121D01*
X018109Y006637D02*
X018609Y006637D01*
X018609Y007737D01*
X018109Y007737D01*
X018109Y006637D01*
D13*
X015677Y003723D02*
X015441Y003723D01*
X015441Y003250D02*
X015677Y003250D01*
X015677Y003123D02*
X015441Y003123D01*
X015441Y002650D02*
X015677Y002650D01*
X005573Y004227D02*
X005573Y004374D01*
X005500Y004448D01*
X005133Y004448D01*
X005206Y004614D02*
X005133Y004688D01*
X005133Y004835D01*
X005206Y004908D01*
X005353Y004835D02*
X005353Y004688D01*
X005279Y004614D01*
X005206Y004614D01*
X005059Y004761D02*
X005646Y004761D01*
X005573Y004688D02*
X005500Y004614D01*
X005573Y004688D02*
X005573Y004835D01*
X005500Y004908D01*
X005426Y004908D01*
X005353Y004835D01*
X005279Y005075D02*
X005133Y005222D01*
X005573Y005222D01*
X005573Y005368D02*
X005573Y005075D01*
X005573Y004227D02*
X005500Y004154D01*
X005133Y004154D01*
X002277Y002123D02*
X002041Y002123D01*
X002041Y001650D02*
X002277Y001650D01*
D14*
X002729Y005357D02*
X002729Y005667D01*
X002884Y005667D01*
X002936Y005615D01*
X002936Y005512D01*
X002884Y005460D01*
X002729Y005460D01*
X002833Y005460D02*
X002936Y005357D01*
X003052Y005357D02*
X003258Y005564D01*
X003258Y005615D01*
X003207Y005667D01*
X003103Y005667D01*
X003052Y005615D01*
X003052Y005357D02*
X003258Y005357D01*
X003158Y005957D02*
X002952Y005957D01*
X003055Y005957D02*
X003055Y006267D01*
X002952Y006164D01*
X002836Y006215D02*
X002784Y006267D01*
X002629Y006267D01*
X002629Y005957D01*
X002629Y006060D02*
X002784Y006060D01*
X002836Y006112D01*
X002836Y006215D01*
X002733Y006060D02*
X002836Y005957D01*
X003785Y006707D02*
X003785Y007017D01*
X003940Y007017D01*
X003992Y006965D01*
X003992Y006862D01*
X003940Y006810D01*
X003785Y006810D01*
X003888Y006810D02*
X003992Y006707D01*
X004107Y006862D02*
X004314Y006862D01*
X004262Y006707D02*
X004262Y007017D01*
X004107Y006862D01*
X002197Y008057D02*
X001890Y008057D01*
X002043Y008057D02*
X002043Y008517D01*
X001890Y008364D01*
X001736Y008517D02*
X001429Y008517D01*
X001429Y008057D01*
X001429Y008287D02*
X001583Y008287D01*
X001207Y008757D02*
X001103Y008757D01*
X001052Y008808D01*
X000936Y008808D02*
X000884Y008757D01*
X000781Y008757D01*
X000729Y008808D01*
X000729Y009015D01*
X000781Y009067D01*
X000884Y009067D01*
X000936Y009015D01*
X001052Y009015D02*
X001103Y009067D01*
X001207Y009067D01*
X001258Y009015D01*
X001258Y008964D01*
X001207Y008912D01*
X001258Y008860D01*
X001258Y008808D01*
X001207Y008757D01*
X001207Y008912D02*
X001155Y008912D01*
X002029Y009015D02*
X002029Y008808D01*
X002081Y008757D01*
X002184Y008757D01*
X002236Y008808D01*
X002352Y008757D02*
X002558Y008964D01*
X002558Y009015D01*
X002507Y009067D01*
X002403Y009067D01*
X002352Y009015D01*
X002236Y009015D02*
X002184Y009067D01*
X002081Y009067D01*
X002029Y009015D01*
X002352Y008757D02*
X002558Y008757D01*
X010629Y003815D02*
X010629Y003608D01*
X010681Y003557D01*
X010784Y003557D01*
X010836Y003608D01*
X010952Y003557D02*
X011158Y003557D01*
X011055Y003557D02*
X011055Y003867D01*
X010952Y003764D01*
X010836Y003815D02*
X010784Y003867D01*
X010681Y003867D01*
X010629Y003815D01*
X011274Y003815D02*
X011274Y003608D01*
X011481Y003815D01*
X011481Y003608D01*
X011429Y003557D01*
X011326Y003557D01*
X011274Y003608D01*
X011274Y003815D02*
X011326Y003867D01*
X011429Y003867D01*
X011481Y003815D01*
X012229Y003115D02*
X012281Y003167D01*
X012384Y003167D01*
X012436Y003115D01*
X012552Y003115D02*
X012603Y003167D01*
X012707Y003167D01*
X012758Y003115D01*
X012758Y003064D01*
X012707Y003012D01*
X012603Y003012D01*
X012552Y003064D01*
X012552Y003115D01*
X012603Y003012D02*
X012552Y002960D01*
X012552Y002908D01*
X012603Y002857D01*
X012707Y002857D01*
X012758Y002908D01*
X012758Y002960D01*
X012707Y003012D01*
X012436Y002908D02*
X012384Y002857D01*
X012281Y002857D01*
X012229Y002908D01*
X012229Y003115D01*
X013629Y003208D02*
X013681Y003157D01*
X013784Y003157D01*
X013836Y003208D01*
X013952Y003208D02*
X014003Y003157D01*
X014107Y003157D01*
X014158Y003208D01*
X014158Y003415D01*
X014107Y003467D01*
X014003Y003467D01*
X013952Y003415D01*
X013952Y003364D01*
X014003Y003312D01*
X014158Y003312D01*
X013836Y003415D02*
X013784Y003467D01*
X013681Y003467D01*
X013629Y003415D01*
X013629Y003208D01*
X012288Y004512D02*
X012081Y004512D01*
X012029Y004564D01*
X012029Y004667D01*
X012081Y004719D01*
X012132Y004834D02*
X012029Y004938D01*
X012339Y004938D01*
X012339Y005041D02*
X012339Y004834D01*
X012288Y004719D02*
X012339Y004667D01*
X012339Y004564D01*
X012288Y004512D01*
X016729Y003841D02*
X016729Y003634D01*
X016781Y003519D02*
X016729Y003467D01*
X016729Y003364D01*
X016781Y003312D01*
X016988Y003312D01*
X017039Y003364D01*
X017039Y003467D01*
X016988Y003519D01*
X016988Y003634D02*
X017039Y003634D01*
X016988Y003634D02*
X016781Y003841D01*
X016729Y003841D01*
X017329Y003841D02*
X017381Y003738D01*
X017484Y003634D01*
X017484Y003790D01*
X017536Y003841D01*
X017588Y003841D01*
X017639Y003790D01*
X017639Y003686D01*
X017588Y003634D01*
X017484Y003634D01*
X017381Y003519D02*
X017329Y003467D01*
X017329Y003364D01*
X017381Y003312D01*
X017588Y003312D01*
X017639Y003364D01*
X017639Y003467D01*
X017588Y003519D01*
X017929Y003467D02*
X017929Y003364D01*
X017981Y003312D01*
X018188Y003312D01*
X018239Y003364D01*
X018239Y003467D01*
X018188Y003519D01*
X018188Y003634D02*
X018239Y003686D01*
X018239Y003790D01*
X018188Y003841D01*
X018084Y003841D01*
X018032Y003790D01*
X018032Y003738D01*
X018084Y003634D01*
X017929Y003634D01*
X017929Y003841D01*
X017981Y003519D02*
X017929Y003467D01*
X018529Y003467D02*
X018529Y003364D01*
X018581Y003312D01*
X018788Y003312D01*
X018839Y003364D01*
X018839Y003467D01*
X018788Y003519D01*
X018684Y003634D02*
X018684Y003841D01*
X018529Y003790D02*
X018684Y003634D01*
X018581Y003519D02*
X018529Y003467D01*
X018529Y003790D02*
X018839Y003790D01*
X017489Y003045D02*
X017489Y002738D01*
X017489Y002891D02*
X017029Y002891D01*
X017182Y002738D01*
X017106Y002584D02*
X017029Y002508D01*
X017029Y002277D01*
X017489Y002277D01*
X017489Y002508D01*
X017413Y002584D01*
X017106Y002584D01*
X017029Y002124D02*
X017029Y001817D01*
X017489Y001817D01*
X017489Y002124D01*
X017259Y001971D02*
X017259Y001817D01*
X017489Y001664D02*
X017489Y001357D01*
X017029Y001357D01*
X018629Y001712D02*
X018629Y001867D01*
X018681Y001919D01*
X018784Y001919D01*
X018836Y001867D01*
X018836Y001712D01*
X018939Y001712D02*
X018629Y001712D01*
X018836Y001816D02*
X018939Y001919D01*
X018888Y002034D02*
X018939Y002086D01*
X018939Y002190D01*
X018888Y002241D01*
X018836Y002241D01*
X018784Y002190D01*
X018784Y002138D01*
X018784Y002190D02*
X018732Y002241D01*
X018681Y002241D01*
X018629Y002190D01*
X018629Y002086D01*
X018681Y002034D01*
X018038Y006457D02*
X017831Y006457D01*
X017779Y006508D01*
X017779Y006612D01*
X017831Y006664D01*
X017882Y006779D02*
X017779Y006882D01*
X018089Y006882D01*
X018089Y006779D02*
X018089Y006986D01*
X018089Y007101D02*
X018089Y007308D01*
X018089Y007205D02*
X017779Y007205D01*
X017882Y007101D01*
X018038Y006664D02*
X018089Y006612D01*
X018089Y006508D01*
X018038Y006457D01*
D15*
X017907Y001646D03*
X017612Y001646D03*
D16*
X017759Y001646D03*
D17*
X017799Y009965D02*
X017847Y010013D01*
X017847Y010110D01*
X017799Y010158D01*
X017751Y010158D01*
X017702Y010110D01*
X017702Y010013D01*
X017654Y009965D01*
X017606Y009965D01*
X017557Y010013D01*
X017557Y010110D01*
X017606Y010158D01*
X017654Y010259D02*
X017557Y010356D01*
X017847Y010356D01*
X017847Y010259D02*
X017847Y010453D01*
D18*
X002564Y006855D02*
X002564Y006818D01*
X002528Y006782D01*
X002564Y006745D01*
X002564Y006708D01*
X002528Y006671D01*
X002454Y006671D01*
X002418Y006708D01*
X002343Y006708D02*
X002343Y006745D01*
X002307Y006782D01*
X002233Y006782D01*
X002197Y006818D01*
X002197Y006855D01*
X002233Y006892D01*
X002307Y006892D01*
X002343Y006855D01*
X002418Y006855D02*
X002454Y006892D01*
X002528Y006892D01*
X002564Y006855D01*
X002528Y006782D02*
X002491Y006782D01*
X002343Y006708D02*
X002307Y006671D01*
X002233Y006671D01*
X002197Y006708D01*
X002122Y006708D02*
X002122Y006892D01*
X001976Y006892D02*
X001976Y006708D01*
X002012Y006671D01*
X002086Y006671D01*
X002122Y006708D01*
X002270Y006635D02*
X002270Y006928D01*
D19*
X005064Y007792D02*
X005064Y007942D01*
X005064Y007867D02*
X005164Y007867D01*
X005212Y007892D02*
X005237Y007867D01*
X005287Y007867D01*
X005312Y007842D01*
X005312Y007817D01*
X005287Y007792D01*
X005237Y007792D01*
X005212Y007817D01*
X005164Y007792D02*
X005164Y007942D01*
X005212Y007917D02*
X005212Y007892D01*
X005212Y007917D02*
X005237Y007942D01*
X005287Y007942D01*
X005312Y007917D01*
X005359Y007942D02*
X005409Y007892D01*
X005459Y007942D01*
X005459Y007792D01*
X005506Y007817D02*
X005531Y007792D01*
X005581Y007792D01*
X005606Y007817D01*
X005606Y007842D01*
X005581Y007867D01*
X005531Y007867D01*
X005506Y007892D01*
X005506Y007917D01*
X005531Y007942D01*
X005581Y007942D01*
X005606Y007917D01*
X005654Y007867D02*
X005754Y007867D01*
X005801Y007917D02*
X005826Y007942D01*
X005876Y007942D01*
X005901Y007917D01*
X005901Y007892D01*
X005801Y007792D01*
X005901Y007792D01*
X005948Y007817D02*
X005948Y007842D01*
X005973Y007867D01*
X006023Y007867D01*
X006048Y007842D01*
X006048Y007817D01*
X006023Y007792D01*
X005973Y007792D01*
X005948Y007817D01*
X005973Y007867D02*
X005948Y007892D01*
X005948Y007917D01*
X005973Y007942D01*
X006023Y007942D01*
X006048Y007917D01*
X006048Y007892D01*
X006023Y007867D01*
X006096Y007917D02*
X006121Y007942D01*
X006171Y007942D01*
X006196Y007917D01*
X006096Y007817D01*
X006121Y007792D01*
X006171Y007792D01*
X006196Y007817D01*
X006196Y007917D01*
X006243Y007867D02*
X006343Y007867D01*
X006318Y007792D02*
X006318Y007942D01*
X006243Y007867D01*
X006096Y007817D02*
X006096Y007917D01*
X005359Y007942D02*
X005359Y007792D01*
X005312Y008292D02*
X005212Y008292D01*
X005312Y008392D01*
X005312Y008417D01*
X005287Y008442D01*
X005237Y008442D01*
X005212Y008417D01*
X005164Y008417D02*
X005164Y008317D01*
X005139Y008292D01*
X005064Y008292D01*
X005064Y008442D01*
X005139Y008442D01*
X005164Y008417D01*
X012055Y008387D02*
X012165Y008387D01*
X012165Y008350D02*
X012165Y008424D01*
X012091Y008350D02*
X012055Y008387D01*
X012055Y008313D02*
X012073Y008313D01*
X012110Y008277D01*
X012165Y008277D01*
X012110Y008277D02*
X012073Y008240D01*
X012055Y008240D01*
X012091Y007597D02*
X012055Y007560D01*
X012091Y007524D01*
X012165Y007524D01*
X012146Y007487D02*
X012165Y007468D01*
X012165Y007432D01*
X012146Y007413D01*
X012146Y007376D02*
X012165Y007358D01*
X012165Y007321D01*
X012146Y007303D01*
X012110Y007303D02*
X012091Y007339D01*
X012091Y007358D01*
X012110Y007376D01*
X012146Y007376D01*
X012091Y007413D02*
X012073Y007413D01*
X012055Y007432D01*
X012055Y007468D01*
X012073Y007487D01*
X012110Y007468D02*
X012128Y007487D01*
X012146Y007487D01*
X012110Y007468D02*
X012110Y007432D01*
X012091Y007413D01*
X012055Y007376D02*
X012055Y007303D01*
X012110Y007303D01*
X012091Y007266D02*
X012073Y007266D01*
X012055Y007247D01*
X012055Y007211D01*
X012073Y007192D01*
X012073Y007155D02*
X012055Y007137D01*
X012055Y007100D01*
X012073Y007082D01*
X012073Y007045D02*
X012091Y007045D01*
X012110Y007026D01*
X012128Y007045D01*
X012146Y007045D01*
X012165Y007026D01*
X012165Y006990D01*
X012146Y006971D01*
X012165Y006934D02*
X012055Y006861D01*
X012055Y006824D02*
X012165Y006824D01*
X012055Y006750D01*
X012165Y006750D01*
X012165Y006861D02*
X012055Y006934D01*
X012073Y006971D02*
X012055Y006990D01*
X012055Y007026D01*
X012073Y007045D01*
X012110Y007026D02*
X012110Y007008D01*
X012165Y007082D02*
X012091Y007155D01*
X012073Y007155D01*
X012165Y007155D02*
X012165Y007082D01*
X012165Y007192D02*
X012091Y007266D01*
X012165Y007266D02*
X012165Y007192D01*
X012110Y007524D02*
X012110Y007597D01*
X012091Y007597D02*
X012165Y007597D01*
X015570Y003157D02*
X015570Y003007D01*
X015670Y003007D01*
X015717Y003007D02*
X015817Y003007D01*
X015767Y003007D02*
X015767Y003157D01*
X015717Y003107D01*
X015742Y002557D02*
X015717Y002532D01*
X015742Y002557D02*
X015792Y002557D01*
X015817Y002532D01*
X015817Y002507D01*
X015717Y002407D01*
X015817Y002407D01*
X015670Y002407D02*
X015570Y002407D01*
X015570Y002557D01*
X013014Y002544D02*
X013014Y002644D01*
X013014Y002594D02*
X012864Y002594D01*
X012914Y002544D01*
X012889Y002497D02*
X012864Y002472D01*
X012864Y002397D01*
X013014Y002397D01*
X013014Y002472D01*
X012989Y002497D01*
X012889Y002497D01*
X012514Y002472D02*
X012514Y002422D01*
X012489Y002397D01*
X012389Y002497D01*
X012489Y002497D01*
X012514Y002472D01*
X012489Y002397D02*
X012389Y002397D01*
X012364Y002422D01*
X012364Y002472D01*
X012389Y002497D01*
X012439Y002544D02*
X012439Y002644D01*
X012364Y002619D02*
X012439Y002544D01*
X012514Y002619D02*
X012364Y002619D01*
X012389Y002350D02*
X012414Y002350D01*
X012439Y002325D01*
X012439Y002275D01*
X012414Y002250D01*
X012389Y002250D01*
X012364Y002275D01*
X012364Y002325D01*
X012389Y002350D01*
X012439Y002325D02*
X012464Y002350D01*
X012489Y002350D01*
X012514Y002325D01*
X012514Y002275D01*
X012489Y002250D01*
X012464Y002250D01*
X012439Y002275D01*
X012414Y002202D02*
X012389Y002202D01*
X012364Y002177D01*
X012364Y002127D01*
X012389Y002102D01*
X012439Y002055D02*
X012439Y001955D01*
X012464Y001908D02*
X012489Y001908D01*
X012514Y001883D01*
X012514Y001833D01*
X012489Y001808D01*
X012514Y001760D02*
X012364Y001760D01*
X012414Y001710D01*
X012364Y001660D01*
X012514Y001660D01*
X012489Y001613D02*
X012464Y001613D01*
X012439Y001588D01*
X012439Y001538D01*
X012414Y001513D01*
X012389Y001513D01*
X012364Y001538D01*
X012364Y001588D01*
X012389Y001613D01*
X012489Y001613D02*
X012514Y001588D01*
X012514Y001538D01*
X012489Y001513D01*
X012514Y001466D02*
X012364Y001466D01*
X012439Y001466D02*
X012439Y001366D01*
X012514Y001366D02*
X012364Y001366D01*
X012389Y001808D02*
X012414Y001808D01*
X012439Y001833D01*
X012439Y001883D01*
X012464Y001908D01*
X012389Y001908D02*
X012364Y001883D01*
X012364Y001833D01*
X012389Y001808D01*
X012514Y002102D02*
X012414Y002202D01*
X012514Y002202D02*
X012514Y002102D01*
X002417Y001532D02*
X002417Y001507D01*
X002392Y001482D01*
X002417Y001457D01*
X002417Y001432D01*
X002392Y001407D01*
X002342Y001407D01*
X002317Y001432D01*
X002270Y001407D02*
X002170Y001407D01*
X002170Y001557D01*
X002317Y001532D02*
X002342Y001557D01*
X002392Y001557D01*
X002417Y001532D01*
X002392Y001482D02*
X002367Y001482D01*
M02*
